<?xml version="1.0" encoding="UTF-8"?>
<svg id="Capa_1" data-name="Capa 1" xmlns="http://www.w3.org/2000/svg" viewBox="0 0 17.61 24.07">
  <defs>
    <style>
      .cls-1 {
        fill: #3c4f69;
      }
    </style>
  </defs>
  <g>
    <path class="cls-1" d="M2.53,22.03c.08.03.27.07.24.02l-.32-.1.07.08Z"/>
    <path class="cls-1" d="M3.19,21.91c-.15-.08-.41-.2-.71-.24.3.12.17.1.53.23.03.05-.12.04-.24,0,.08.03-.08.04.11.11.26,0,.29-.05.09-.16.07,0,.16.04.21.05Z"/>
    <path class="cls-1" d="M4.67,18.42h-.04s.04,0,.04,0Z"/>
    <path class="cls-1" d="M5.6,16.3s.03.04.06.05c-.01-.02-.03-.04-.06-.05Z"/>
    <path class="cls-1" d="M6.08,16.06s-.02,0-.03.01c.03,0,.05,0,.03-.01Z"/>
    <path class="cls-1" d="M4.67,18.42l.12-.03c-.1-.04-.09,0-.12.03Z"/>
    <path class="cls-1" d="M2.53,21.21s.04.03.08.05c-.01-.01-.02-.03-.03-.04h-.05Z"/>
    <path class="cls-1" d="M4.63,19.47v.02s.07.03.12.05l-.12-.07Z"/>
    <path class="cls-1" d="M4.47,20.24s-.25-.09-.37-.13c.11.04.16.07.18.09.05.01.11.03.19.05Z"/>
    <path class="cls-1" d="M3.68,21.31l.03.03-.03-.03Z"/>
    <path class="cls-1" d="M4.85,18.96s.08.02.1.02c-.03-.01-.07-.02-.1-.02Z"/>
    <path class="cls-1" d="M16.21.14s.01.03.02.05c0-.03,0-.05-.02-.05Z"/>
    <polygon class="cls-1" points="17.51 1.22 17.5 1.24 17.54 1.39 17.51 1.22"/>
    <path class="cls-1" d="M6.67,15.53h0s.02.02,0,0Z"/>
    <path class="cls-1" d="M9.34,9.59c-.25-.06-.22-.27-.51-.32.1.05.33.31.51.32Z"/>
    <path class="cls-1" d="M2.57,21.2s0-.02,0-.03c-.01.01-.01.02,0,.03Z"/>
    <path class="cls-1" d="M8.82,9.28h0s-.03,0-.03,0c.01,0,.02,0,.03,0Z"/>
    <path class="cls-1" d="M7.15,13.95s-.08-.03-.12-.03c.03.01.06.02.12.03Z"/>
    <path class="cls-1" d="M6.3,14.92h.05s-.04,0-.05,0Z"/>
    <path class="cls-1" d="M7.05,13.21s.06,0,.04-.03c-.01,0-.02,0-.03,0,.03.02.04.04,0,.04Z"/>
    <path class="cls-1" d="M7.33,12.61s-.04,0-.06-.01v.03s.06-.01.06-.01Z"/>
    <path class="cls-1" d="M14.16,1.19c.05.06.1.13.15.2-.11-.17-.04-.29-.15-.2Z"/>
    <path class="cls-1" d="M2.68,21.25c-.07-.02-.1-.03-.11-.05,0,0,0,.02,0,.03.04.01.08.02.1.02Z"/>
    <path class="cls-1" d="M5.05,12.26l.08-.08s-.07.05-.08.08Z"/>
    <path class="cls-1" d="M10.14,4.54v-.04s-.02.02,0,.04Z"/>
    <path class="cls-1" d="M5.23,11.86c.1.02.16.03.2.03-.02-.01-.03-.02-.06-.04l-.14.02Z"/>
    <path class="cls-1" d="M14.31,1.4h0s0,0,0,0Z"/>
    <path class="cls-1" d="M14.71.44c-.11.04.11.35.17.55-.08.15-.18-.22-.3-.37-.04.13.06.45,0,.47-.03-.05-.05-.07-.07-.14.06.3-.23.14-.14.51-.02-.03-.04-.05-.06-.07.1.15.2.32.26.44-.04.03.04.25-.1.04.03,0-.02-.09-.04-.17v.12c-.2-.28,0-.14-.12-.36-.03.15,0,.45-.11.4-.19-.29.1-.19-.14-.4l.17.05c-.34-.42.08,0-.27-.46-.19,0-.07.24-.27.23.07.18.15.23.22.41,0,.41-.6-.63-.5-.15.09.21.31.58.08.46l-.18-.34c-.15.05.23.51-.05.38-.06-.14.03-.17-.02-.2-.26-.19.06.22,0,.26l-.21-.27c-.11.13-.11.45-.21.6-.05-.09-.09-.19-.19-.25-.08.27-.42.25-.71.25l.12.28s-.11-.08-.13-.14c-.14-.03.12.15.16.26-.02.05-.16-.09-.19-.18.04.29.03.68-.3.55l-.04-.09c-.17,0,.31.54.04.41l-.02-.05c-.28.09-.3.48-.76.31.28.32-.32.06.1.48-.31-.09-.36-.2-.65-.18-.06.02.21.31.21.4l-.23-.21.17.29-.31-.21.02.1s.14.05.2.11c.04.17-.32.05-.44-.06l.04.35c-.09-.08-.1-.14-.14-.22.15.3-.26-.19-.12.09.06.03.13.13.18.17-.18-.08-.27.03-.28.15l-.15-.15c-.15.11-.16.36-.29.52.12,0,.4.25.39.31l-.27-.18c.14.15.13.03.28.24-.08.03-.32-.19-.38-.29l.03.14c-.08-.06-.11-.1-.2-.18.14.15-.36-.07-.11.18l-.08-.05c-.12.16-.09.3-.17.45.23.17.14.18.29.36-.14.04-.4.02-.47.15.06.16.18.16.29.29-.21-.14-.27,0-.38-.17-.06.17-.08.21-.03.51.1.04.15.04.22.1.01.06-.14.01-.24-.06l-.02-.02c.18.41-.93.07-.59.52l-.02-.02.13.32c-.09.05-.13-.15-.31-.17.25.41-.23.26-.08.56-.72-.27-.2.45-.71.37l.16.08c.13.13-.12,0-.17.01.12.06.16.03.23.11-.01.46-.64.61-.97.91-.11.11.78.5.31.47l-.27-.2c.21.45-.3.55-.13.97-.06-.05-.15-.09-.13-.12-.24-.05-.11.21.06.29-.04.03-.16-.07-.27-.09-.16,0,.21.28-.02.2-.04-.01-.06-.05-.07-.07.09.09-.11.16.16.25-.17.04.02.25-.17.26.26.18-.22.11.17.31-.41-.2-.41.02-.25.18-.11-.08-.15,0-.31-.11-.03.08.02.18.23.26-.56-.09.27.45-.39.24.13.32.18.59.2.83-.41-.19.05-.24-.38-.42.09.26.4.52.22.67-.08.02-.17-.1-.23-.15.09.26-.19.35-.03.61-.04-.02-.07-.05-.1-.08,0,.04-.09.05.1.13l-.04-.05c.3.06.52.37.67.43-.52-.28-.2.11-.86-.26.03.04.11.1.24.15-.05.02-.13,0-.26-.09.06.16.28.2.23.31-.09-.04-.12-.07-.22-.13.16.13.32.25.2.31-.05-.03-.13-.05-.12-.07-.03.17.38.45.14.56-.38-.2-.15,0-.51-.12l.07.13.18.03c-.04.08.19.25.05.27l-.12-.11v.18s.17-.04.17-.04c.15.15.45.16.31.23-.03-.04-.03.08-.26.05h0c.1.08.2.16.09.19-.12-.03-.38-.15-.46-.17.28.15.01.22.31.38-.07-.04-.25-.11-.29-.12l.23.12c-.09.01-.13,0-.27-.06-.08.1.46.12.22.19-.02-.02-.05-.02-.08-.06-.15.1.06.31-.1.4-.37-.09-.05-.14-.36-.2,0,.2.3.52.16.66l.05-.02c.5.19-.29.05-.08.21-.03-.03-.27-.12-.22-.1-.12.09.04.29.14.52l-.12-.06c-.14.03-.13.17-.21.22.12.06.09.1.29.13-.81,0,.26.57-.42.59,0-.03-.1-.09-.1-.07l.07.22c.23.05.14.02.32.03.12.06.21.14.2.19-.12-.12-.36-.1-.49-.1.07.01.14.05.21.06-.42-.02.44.14.14.19l-.11-.04c.05.06.19.15.14.19-.26-.05-.11-.08-.32-.15,0,.08.45.28.17.27-.06-.05-.05-.1-.11-.15-.32-.01-.25.02-.31.06h0s-.17.08-.17.08h.09c.65.27.07.21.48.45-.39-.23-.24-.09-.53-.17-.09,0-.19.03-.27,0,.22.12-.21.05.11.22-.1-.02-.03.06-.26-.02.05.1.17.03.29.06.29.2-.46.17-.06.46.15.19.46.3.58.47-.16,0-.34-.12-.34-.12-.16.04-.15.1-.05.2-.08-.03-.15-.04-.26-.04.01.06.34.12.18.16-.1-.04-.27-.09-.37-.15.07.09.23.19.3.28-.17-.02-.24-.1-.34-.15.06.09.1.23.36.32l.1-.03s-.23-.04-.27-.07c-.19-.11.11-.07.21-.05l.05.06c.57.08-.04-.21.01-.3l.39.14-.31-.18c.11,0,.34.05.39.11.22-.02-.13-.1.11-.1.04,0,.05,0,.07.02l-.1-.1c.08.03.29.06.22.09.26-.06-.25-.27.06-.24l.02.02c-.09-.2-.29-.09-.61-.3l.75.1-.29-.09s.05-.04.16,0c-.19-.12-.13-.02-.31-.11.29-.01-.06-.26.41-.16-.22-.09-.19.03-.33-.1.51.11-.06-.12.19-.14.25.09.1.13.35.11-.43-.16.14-.12.07-.2-.35-.1-.11-.18-.2-.32.12.04.25-.14.4-.21l.06.02c-.35-.12-.25-.2-.3-.3.21.06.29.1.37.17l.02-.07c-.11-.05-.16-.09-.19-.14l.26.09c.01-.1-.26-.28-.04-.34-.24-.08-.71-.11-.84-.29.13.04.36.1.41.15-.01-.02-.1-.07-.04-.08l.21.12c.11-.02-.18-.08-.14-.12.19.06.14,0,.29.06.01.02-.09.01-.02.05.05-.04.18-.06.33-.04-.11-.03-.25-.08-.27-.12.01-.1.24.04.35.02-.12-.06.03-.08-.25-.17,0-.03.14,0,.22.02-.11-.09.03-.23-.28-.27h-.02s0,0,0,0h0s0,0,0,0c-.23-.24.26-.27.19-.46l.09.03c-.08-.13,0-.22-.18-.36,0-.03.19,0,.3.04-.05-.09-.15-.14.04-.18.14.13.15.03.09.11.11-.06.27-.03.05-.22.23.12.32.04.27-.03h-.19c-.02-.06.02-.09.05-.13l.31.13c.44-.05-.53-.56.16-.47-.2-.13-.19.04-.43-.09.07-.07.55,0,.56-.02.21-.05-.42-.27-.26-.35-.12-.03-.42-.12-.49-.25.07-.07.51.07.57.16,0,.02-.04.02-.07,0,.03.04.07.1.2.11l-.11-.05c.13,0,.16-.12.33-.02-.08-.1-.17-.1-.25-.07.2-.05.07-.17.22-.23-.07,0-.2-.04-.2-.06.2-.11-.18-.15-.19-.28.19,0,.39.18.3.01.14-.02.3.1.38.16-.18-.18.21-.13.27-.17l.07.09c-.04-.05-.03-.08-.02-.1l-.23-.06c.05-.02.06-.04.15,0-.13-.09-.38-.12-.55-.26.13,0-.07-.17.23-.07-.15.09.3.1.3.23-.03-.03-.01-.06.04-.07.03,0,.06.03.07.04.31-.02-.31-.19-.25-.31.16.08.32.1.3.06-.02.05-.28-.09-.39-.19.16-.03-.06-.13-.03-.17l-.08.02c-.16-.08-.12-.12-.15-.2.13.05.07.09.13.09-.26-.18.36-.02.2-.19.13,0,.31.12.4.12-.17-.19.27-.01.14-.19-.23-.06-.18-.04-.36-.2l.08.24-.27-.24c-.02.05.09.17.04.18-.16-.13-.1-.1-.3-.15.36.07-.13-.22.12-.21l.54.23c.29-.02-.19-.34.02-.44h-.12c-.21-.11.01-.1-.05-.19.18.08.26.08.38.11-.14-.06.06-.11-.29-.28l.27.04c.15-.08-.45-.38-.33-.47.18.13.33.13.43.27.02-.04.07-.06-.05-.12.12.03-.19-.22,0-.18-.07-.05-.26-.15-.22-.18.04.01.09.04.09.04-.09-.04-.09-.13-.3-.18.62.13.12-.37.65-.26-.02-.12-.02-.25,0-.34.05.03.09.04.06.05.22-.03-.48-.32-.23-.35.32.08.12.14.25.16.59.27,0-.19.38-.11l.02.04c.23.03-.14-.27-.05-.35,0,0,.05.03.09.04-.26-.22-.29-.41-.32-.55.21.15.1.11.34.21,0-.06-.38-.18-.39-.3.14.03.28.02.53.14l-.03.09c.34.12.05-.11.12-.13l.14.08c.02-.15-.32-.34-.23-.46l-.11-.04c-.3-.26.23.04.01-.17l.36.16c-.06-.09-.24-.36-.26-.48.23.19.3.36.42.51.03-.05.06-.18-.09-.3.02.04.09.11.03.1-.24-.21-.33-.36-.27-.45.66.39.31-.16.87.06-.15-.31.3-.27.37-.49-.55-.23.02-.07-.51-.37,0-.07.01-.08.05-.06l.4.05c.17.06.09.11.21.18.1-.07.25.09.42.11-.19-.1-.25-.2-.14-.21l-.29-.07c-.19-.31.51.15.32-.15l.14.14c-.05-.13.16-.25-.21-.59.07.03.22.1.24.15.16-.13-.2-.66.14-.62l.12.1c-.02-.05-.2-.21-.05-.16.05.04.12.1.13.09-.03-.04-.16-.23-.06-.22l.12.13c.27-.05-.17-.48-.16-.67.36.26.56.22.66.2l.05.04c.17-.14-.08-.52-.08-.79.46.19.43-.22.76-.21-.08-.03-.26-.22-.27-.28.1.02-.15-.3.16-.03h-.02c.33.23.31.09.37.04l-.39-.35c.71.35.13-.59.72-.21-.06-.12-.02-.17-.09-.29l.21.19c.14-.05.21-.07.28-.23l.12.17c.07-.05-.5-.65-.45-.73l.32.28c.11-.12.49.04.34-.35.04.05.12.14.11.17.06-.04.4.01,0-.4.25.28.15-.08.11-.27l.17.22c-.18-.31-.24-.39-.22-.53.04.01.16.16.09.12.16.06-.12-.24.05-.2l.09.16c.08-.04.01-.11-.08-.3-.03-.12.17-.05.34.14-.09-.13-.18-.32-.09-.29.06.07.09.13.1.16.23.07-.03-.38.22-.22.06.07.09.11.11.12-.09.06-.17.1-.18.08.16.2.26.19.42.51-.07-.19-.22-.6-.08-.56.02.02.03.04.06.06v.03s.04-.02.03-.07c.05.02.08.03.1.02.13.17.15.03.19.01-.17-.23-.09-.23-.27-.38.02.01.01.03,0,.06,0,.01,0,.02,0,.04v-.02s-.06.05-.09.08c-.06-.14-.1-.26.04-.16-.08-.16-.17-.33-.21-.41.28.28.5.39.65.58.02-.2.2-.26,0-.75,0-.08.12.1.17.17,0,.06-.02.07.01.14,0-.16.16-.17,0-.5.17.09.13.32.21.2l.04.11c.51.39-.08-1.04.55-.51-.04-.03-.06-.05-.09-.1.45.17.51-.6,1.03-.22.13.07.05-.16.04-.34l.12.28-.02-.36c.06-.29.46.61.48.11l-.08-.19c.07.02.16-.17.22.06,0-.04-.04-.21.02-.11l.04.15.08-.3c.15.08.14.61.31.6.04-.08.07-.5.02-.59-.03,0-.09-.08-.13-.23l.04-.1c-.09-.46-.14-.94-.39-1.21l-.05.31-.09-.21.1-.04c-.11-.19-.1,0-.11.14-.04-.11-.08-.19-.11-.23v.46c-.06-.17-.04-.36-.15-.44,0,.21.16.38.11.53-.11-.19-.14-.36-.16-.17-.04-.11-.05-.19-.04-.25-.02.15-.14.1-.1.35-.14-.24-.17.12-.3-.3.01.11,0,.36-.04.4-.08-.53-.2.04-.37-.5.09.47-.19.29-.22.58,0-.04-.02-.11,0-.1-.08-.01-.16-.14-.24-.2.14.36.07.5.11.74-.23-.31-.13-.45-.3-.77.13.29-.02.36.11.59-.16-.19-.1-.08-.27-.36.19.45-.03.1.05.4-.19-.18-.22-.41-.26-.22-.11-.11-.1-.31-.1-.31ZM12.9,2.53h0s.02-.04.03-.05c0,0-.01.02-.03.05ZM12.73,2.66s.05-.02.08-.05c.06.07.12.16.1.17-.03-.06-.1-.07-.18-.12ZM14.23,3.97s-.04.01-.08-.03c0-.01.02-.03.02-.06l-.02-.03s.05.09.07.12Z"/>
    <path class="cls-1" d="M14.06,3.64s0-.02,0-.02c-.02-.02-.04-.03-.05-.04l.04.08h.01Z"/>
    <path class="cls-1" d="M4.62,18.43h0s-.02,0-.04,0c.01,0,.02,0,.03,0Z"/>
    <polygon class="cls-1" points="10.2 4.27 10.25 4.32 10.22 4.26 10.2 4.27"/>
    <path class="cls-1" d="M3.37,19.22s-.05,0-.07,0c.02,0,.04,0,.07,0Z"/>
    <path class="cls-1" d="M3.18,19.67l-.11.04c.06-.01.09-.03.11-.04Z"/>
    <path class="cls-1" d="M2.95,19.99s.08.03.11.04h0s-.12-.04-.12-.04Z"/>
    <path class="cls-1" d="M4.55,14.23s0-.01,0-.02c-.04-.05-.03-.02,0,.02Z"/>
    <path class="cls-1" d="M4.52,16.12s-.08-.07-.11-.1c-.03.02-.04.04.11.1Z"/>
    <polygon class="cls-1" points="5.04 12.27 5.04 12.27 5.05 12.26 5.04 12.27"/>
    <path class="cls-1" d="M4.45,15.95c-.06.01-.06.04-.03.08.03-.02.06-.04.03-.08Z"/>
    <path class="cls-1" d="M2.43,21.53h-.02s.03.02.04.03l-.03-.03Z"/>
    <path class="cls-1" d="M2.45,21.56l.03.03s0-.02-.03-.03Z"/>
    <path class="cls-1" d="M2.54,21.65l-.06-.06s-.02.03.06.06Z"/>
    <path class="cls-1" d="M2.67,21.08l-.1-.03s.05.02.1.03Z"/>
    <path class="cls-1" d="M2.68,20.93s-.23.04-.18.1l.08.02c-.14-.06.26-.05.11-.12Z"/>
    <path class="cls-1" d="M4.05,20.64l-.11.1c.11,0,.26.02.27.08.35-.07-.24-.03-.16-.17Z"/>
    <path class="cls-1" d="M4.3,20.31c.03.08.15.04.21.06-.08-.07-.11-.08-.21-.06Z"/>
    <path class="cls-1" d="M5.1,17.69l.24.09c-.02-.06-.09-.03-.24-.09Z"/>
    <polygon class="cls-1" points="4.02 16.76 3.86 16.75 4.07 16.85 4.02 16.76"/>
    <polygon class="cls-1" points="5.84 17.07 5.87 17.1 5.81 16.99 5.84 17.07"/>
    <path class="cls-1" d="M7.5,12.82l-.29-.12c.04.06.35.21.29.12Z"/>
    <path class="cls-1" d="M8.1,10.91c.15.05.26.05.14-.05-.04.03-.17.01-.14.05Z"/>
    <polygon class="cls-1" points="11.74 6.35 11.79 6.45 11.77 6.33 11.74 6.35"/>
  </g>
  <g>
    <path class="cls-1" d="M9.34,18.82c-.02-.08-.07-.27-.08-.23l.08.32v-.09Z"/>
    <path class="cls-1" d="M9.05,18.28c.02.16.09.44.19.72-.07-.31-.04-.18-.12-.55,0-.04.06.09.09.21-.02-.08.05.06,0-.14-.1-.24-.13-.24-.1-.02-.03-.07-.05-.15-.06-.21Z"/>
    <path class="cls-1" d="M6.97,18.75l.03.02s-.03-.02-.03-.02Z"/>
    <path class="cls-1" d="M5.83,19.42s-.02-.04-.04-.06c0,.02.01.04.04.06Z"/>
    <path class="cls-1" d="M5.42,19.29s.02,0,.02,0c-.02-.02-.04-.03-.02,0Z"/>
    <path class="cls-1" d="M6.97,18.75l-.09-.06c.06.09.06.05.09.06Z"/>
    <path class="cls-1" d="M9.06,19.11s0-.05-.02-.09c0,.01,0,.03,0,.04l.02.05Z"/>
    <path class="cls-1" d="M7.32,18.2h0s-.04-.08-.06-.13l.05.13Z"/>
    <path class="cls-1" d="M7.71,17.93s.11.24.16.36c-.05-.11-.07-.16-.07-.18-.03-.05-.06-.1-.1-.17Z"/>
    <path class="cls-1" d="M8.57,18.08v-.04s0,.02,0,.04Z"/>
    <path class="cls-1" d="M7.01,18.33s-.05-.06-.06-.08l.06.08Z"/>
    <path class="cls-1" d="M.14,17.07s.03,0,.05-.01c-.03,0-.05.01-.05.01Z"/>
    <polygon class="cls-1" points="1.38 16.27 1.39 16.27 1.54 16.24 1.38 16.27"/>
    <path class="cls-1" d="M4.87,19.31h0s-.01-.02,0,0Z"/>
    <path class="cls-1" d="M3.64,20.68c-.1.41-.19.52-.29.98.05-.18.23-.71.29-.98Z"/>
    <path class="cls-1" d="M9.04,19.08s0,0-.01,0c0,0,.01,0,.01,0Z"/>
    <path class="cls-1" d="M3.35,21.66h0s0,.05,0,.05c0-.02,0-.03,0-.05Z"/>
    <path class="cls-1" d="M4.32,20.07s.07.06.09.08c-.02-.02-.05-.04-.09-.08Z"/>
    <path class="cls-1" d="M5.09,19.89l-.04-.02s.03.02.04.02Z"/>
    <path class="cls-1" d="M4.38,20.56s-.04-.04-.02,0c0,.01.02.02.02.03-.02-.03-.03-.05,0-.02Z"/>
    <path class="cls-1" d="M4.25,20.69s.02.03.03.05v-.02s-.03-.03-.03-.03Z"/>
    <path class="cls-1" d="M.53,18.11c.08-.02.16-.05.24-.08-.19.05-.27.02-.24.08Z"/>
    <path class="cls-1" d="M9,18.96c.02.07.03.1.03.12,0,0,0-.01,0-.02-.01-.04-.03-.08-.04-.1Z"/>
    <path class="cls-1" d="M5.8,22.27l-.1.04s.08-.02.1-.04Z"/>
    <path class="cls-1" d="M1.19,20.66h-.04s0,0,.04,0Z"/>
    <path class="cls-1" d="M5.49,22.57c-.07-.07-.11-.11-.15-.13,0,.02.02.04.03.07l.12.06Z"/>
    <path class="cls-1" d="M.77,18.04h0s0,0,0,0Z"/>
    <path class="cls-1" d="M.04,17.83c0,.06.36-.06.57-.1.12.04-.26.09-.44.16.1.02.44-.03.43,0-.06.02-.08.03-.15.04.3-.03.04.12.41.08-.03.01-.06.02-.09.03.18-.05.36-.09.49-.13.01.02.24-.01,0,.06,0-.02-.09,0-.17.02h.11c-.33.1-.13,0-.37.06.12.02.41.01.33.07-.33.09-.13-.06-.41.06l.11-.09c-.51.17.03-.04-.52.13-.08.1.19.04.11.14.19-.03.27-.07.46-.1.36.03-.81.29-.35.26.22-.03.64-.13.44-.02l-.38.07c-.02.08.55-.09.31.05-.15.02-.14-.03-.18,0-.28.12.22-.02.23.02l-.33.09c.07.07.33.09.41.17-.1.02-.21.03-.3.07.19.07.02.24-.15.4l.3-.03s-.12.05-.18.05c-.1.07.18-.04.3-.05.03.02-.16.07-.25.08.26.01.57.08.28.23h-.09c-.1.09.6-.07.35.05h-.05c-.09.16.2.24-.2.44.42-.08-.15.17.42.04-.27.14-.37.15-.54.3-.02.03.37-.05.44-.03l-.3.07.33-.03-.35.11.09.04s.12-.08.21-.1c.15.04-.16.26-.31.31.1.04.2.08.3.12-.12.04-.17.03-.25.03.32,0-.3.15,0,.14.06-.04.17-.07.23-.09-.16.13-.13.25-.04.3l-.2.09c0,.2.18.29.22.47.07-.13.4-.35.44-.34l-.28.24c.18-.11.1-.13.32-.24-.02.08-.31.3-.41.33h.12c-.08.07-.13.09-.24.17.18-.12-.24.39.07.18l-.08.08c.04.19.16.18.22.3.22-.25.19-.14.38-.32-.04.16-.16.47-.09.54.13-.08.18-.22.31-.36-.18.26-.11.32-.26.46.09.06.12.08.32-.03.05-.12.07-.18.13-.26.04-.02-.04.15-.11.28l-.02.02c.26-.26-.18.98.18.53l-.02.02.21-.19c.03.08-.1.16-.13.34.28-.33.2.17.41-.07-.1.77.35-.01.37.47l.02-.19c.06-.19.02.1.04.15.02-.15,0-.17.03-.27.27-.25.47.15.8.23.12,0-.02-1.09.15-.68v.42c.16-.62.46-.3.57-.85.01.09.04.2.02.21.12.21.17-.14.09-.34.04,0,.07.17.13.26.1.1-.01-.41.11-.19.02.03.02.09.02.11-.02-.14.15-.1,0-.33.14.05.08-.24.22-.15-.13-.3.21,0-.03-.38.25.39.35.17.25-.03.07.12.13.07.23.23.05-.06.05-.17-.12-.33.48.29-.18-.43.34.02-.08-.26-.11-.46-.1-.61.31.33-.06.12.28.45-.05-.21-.28-.53-.13-.52.06.03.12.15.17.21-.05-.21.17-.11.07-.35.03.03.05.07.07.1,0-.02.08.02-.07-.13l.03.05c-.23-.2-.37-.5-.48-.62.38.45.17.04.64.62-.02-.04-.07-.12-.17-.22.04.02.1.07.19.2-.03-.13-.19-.27-.15-.31.07.07.08.11.16.2-.11-.16-.22-.33-.13-.3.04.05.1.1.08.11.04-.08-.24-.48-.04-.4.27.34.12.08.37.36l-.04-.12-.14-.12s-.11-.25,0-.19l.08.14v-.11s-.11-.08-.11-.08c-.09-.17-.31-.35-.2-.31.02.04.04-.03.2.13h0c-.06-.1-.12-.21-.04-.16.08.09.27.32.32.38-.19-.25.02-.13-.17-.4.04.07.17.22.2.25l-.15-.21c.07.05.09.08.19.2.08,0-.32-.35-.13-.24,0,.02.03.05.05.08.12.04,0-.21.14-.16.25.28.01.11.23.34.03-.11-.13-.48,0-.46l-.04-.02c-.31-.43.21.17.1-.06.01.04.16.25.13.2.1.03.02-.18,0-.37l.07.12c.1.08.12,0,.19.03-.07-.12-.04-.11-.16-.27.53.58-.03-.48.41,0-.01,0,.04.12.05.11v-.15c-.11-.19-.07-.11-.18-.26-.06-.12-.09-.23-.07-.24.04.15.19.32.27.42-.04-.06-.07-.13-.11-.19.25.33-.23-.41-.03-.2l.06.11c0-.07-.07-.22-.03-.2.14.23.04.12.14.31.02-.03-.18-.48-.02-.27.02.07,0,.09.02.16.18.26.15.18.2.21h0s.12.09.12.09l-.05-.07c-.28-.64.02-.15-.12-.59.14.41.1.23.23.5.05.07.11.14.15.22-.08-.23.12.15,0-.19.04.09.03,0,.13.22,0-.09-.08-.15-.13-.26-.09-.33.28.31.17-.14,0-.2-.12-.51-.11-.69.08.14.11.34.11.34.09.12.1.08.1-.03.02.08.06.15.1.25.02-.03-.1-.34-.02-.22.03.1.08.27.11.38,0-.09-.03-.28-.03-.37.06.16.06.25.09.36,0-.08.04-.17-.03-.43l-.05-.08s.08.22.08.27c.04.21-.07-.07-.11-.17v-.07c-.2-.53-.06.12-.12.1l-.12-.4.07.34c-.05-.1-.14-.31-.13-.38-.11-.18.02.15-.09-.05-.02-.03-.02-.05-.02-.07v.13c-.02-.08-.1-.27-.06-.22-.16-.2.01.33-.13.05v-.03c-.04.17.1.29.18.64l-.34-.67.11.28s-.04-.02-.09-.13c.05.2.06.12.12.31-.16-.23-.06.17-.28-.26.08.22.12.14.14.31-.24-.47-.01.11-.16-.09-.11-.25,0-.14-.15-.33.18.42-.12-.05-.12.05.17.32,0,.17,0,.31-.05-.11-.2-.12-.32-.2l-.03-.05c.17.32.09.29.09.38-.11-.19-.15-.27-.18-.37l-.04.02c.05.11.07.17.07.22l-.13-.24s.07.33-.08.22c.14.22.43.57.46.76-.08-.12-.21-.31-.22-.37,0,.02.04.11,0,.07l-.1-.21c-.08-.07.09.17.06.17-.11-.17-.09-.11-.17-.24,0-.02.06.06.03-.01-.04-.01-.14-.09-.23-.21.06.09.15.22.14.26-.04.04-.15-.19-.23-.25.06.12-.04.02.12.27-.01,0-.09-.1-.14-.17.05.12-.09.11.11.35h.02s0,.02,0,.03h0s0,0,0,0c.1.29-.25-.02-.25.13l-.06-.08c.02.12-.06.13.04.32-.01,0-.14-.12-.21-.22.01.08.08.17-.07.08-.07-.16-.11-.11-.04-.13-.09-.03-.2-.15-.08.1-.14-.21-.23-.22-.2-.15l.14.12s-.03.05-.07.04l-.2-.27c-.35-.24.28.66-.22.19.13.2.15.09.31.31-.07,0-.42-.33-.43-.32-.17-.09.27.41.13.36.08.08.3.32.33.44-.07,0-.37-.33-.41-.43,0-.02.03,0,.06.04-.02-.04-.03-.1-.13-.18l.07.09c-.1-.08-.14-.02-.26-.18.05.11.12.16.18.18-.16-.09-.08.06-.21.02.05.04.15.14.14.15-.17-.04.12.2.1.28-.15-.11-.28-.33-.23-.17-.11-.06-.22-.23-.27-.31.11.21-.19-.03-.24-.04l-.04-.09c.02.06.01.06,0,.08l.17.16s-.05,0-.12-.08c.09.13.28.28.39.46-.1-.07.03.15-.19-.08.13.02-.22-.23-.21-.31.02.04,0,.05-.04.03-.03-.02-.04-.05-.05-.07-.25-.15.22.28.15.33-.11-.14-.24-.23-.23-.2.03-.02.21.21.29.32-.13-.07.03.11,0,.12l.07.03c.11.14.08.14.09.2-.1-.1-.04-.09-.09-.13.19.25-.28-.18-.18.01-.1-.07-.23-.24-.3-.28.12.21-.21-.13-.13.05.18.16.14.12.27.31l-.04-.19.19.3s-.06-.15-.01-.14c.11.16.07.12.22.25-.28-.23.08.21-.12.07l-.41-.43c-.24-.14.11.31-.06.27l.09.05c.15.18-.02.06.03.15-.14-.14-.2-.18-.29-.26.1.1-.06.04.21.33l-.21-.16c-.13-.03.32.47.24.46-.14-.17-.25-.25-.33-.38-.01,0-.04-.01.05.09-.09-.09.15.22.02.09.05.07.18.23.16.23-.02-.03-.06-.08-.06-.08.06.08.06.13.21.29-.4-.47-.1.16-.4-.28.01.08.01.17,0,.2-.02-.06-.04-.1-.03-.08-.1-.16.21.59.08.42-.14-.31-.04-.2-.1-.31-.24-.67,0,.13-.15-.26v-.05c-.08-.23.04.3,0,.28,0,0-.01-.07-.02-.11.07.4.04.57.02.72-.03-.32,0-.18-.06-.49,0,.06.08.5.05.62-.03-.16-.07-.29-.1-.64l.02-.04c-.06-.44-.02.04-.04-.03v-.2c-.03.08,0,.61-.05.61v.16c-.01.55-.02-.28-.04.14v-.54c-.01.14-.06.58-.11.72.05-.44.07-.67.1-.94,0,0-.03.07-.06.36,0-.06.02-.2.02-.12-.03.46-.08.71-.12.73.11-1.15-.06-.22.05-1.14-.11.47-.03-.16-.07-.09-.24.97-.02.03-.29,1.03-.04.06-.04.04-.02-.02.04-.2.08-.4.14-.61.09-.29.08-.21.15-.44.01-.08.13-.42.22-.69-.12.35-.18.5-.13.36l-.15.46c-.22.5.29-.82.08-.33l.12-.29c-.07.15-.04.08-.34.68.05-.1.16-.33.19-.4.05-.1-.39.63-.18.21l.11-.18s-.21.33-.1.14c.05-.07.11-.17.12-.19-.04.06-.2.29-.14.18l.13-.19c.14-.24-.32.42-.42.46.33-.44.45-.6.51-.68l.05-.06c.04-.05-.3.29-.47.36.4-.37.15-.22.38-.4-.07.05-.31.18-.35.19.08-.05-.29.11.08-.07h0c.36-.19.26-.14.27-.15l-.49.21c.35-.18.29-.15.2-.16-.08.02-.19-.05.14-.15-.13,0-.14-.03-.28-.02l.28-.07c.05-.09.08-.14-.01-.21l.2-.03c0-.06-.81.13-.84.08l.41-.11c-.03-.09.31-.27-.08-.27.06-.01.18-.04.2-.03,0-.04.24-.23-.32-.08.37-.09.01-.1-.16-.11l.27-.06c-.36.04-.45.06-.56.03.03-.02.21-.06.15-.03.13-.08-.27.03-.13-.06l.18-.02c0-.05-.08-.03-.29,0-.12,0,.05-.1.29-.17-.15.03-.36.05-.29,0,.09-.03.15-.03.18-.03.17-.12-.34-.04-.09-.16.09-.02.13-.04.16-.05,0,.06,0,.12-.02.12.25-.06.28-.12.64-.17-.2,0-.62.04-.52-.04.02,0,.05-.02.08-.03h.03s0-.02-.05-.02c.04-.03.07-.04.07-.06.21-.06.1-.08.1-.11-.27.07-.24.03-.45.11.02,0,.03,0,.05.01,0,0,.01,0,.03,0h-.02s.02.04.03.06c-.14.01-.27.02-.12-.04-.18.03-.36.06-.45.07.37-.13.56-.24.8-.31-.17-.04-.14-.15-.67-.08-.07,0,.14-.06.22-.09.05,0,.05.02.13,0-.14-.01-.08-.12-.44-.04.15-.09.34-.05.26-.11l.11-.02c.54-.29-.97-.02-.28-.36-.04.02-.06.03-.12.05.28-.27-.4-.31.07-.62.09-.08-.14-.03-.32-.02l.29-.08-.35.03c-.27-.02.69-.31.2-.29l-.19.06s-.14-.08.09-.13c-.04,0-.21.04-.11,0l.15-.04-.28-.02c.09-.09.61-.14.62-.24-.07-.02-.47,0-.57.04,0,.02-.09.06-.24.1h-.09c-.45.09-.92.18-1.22.34h.29s-.21.06-.21.06l-.03-.04c-.2.08-.01.05.12.04-.12.03-.2.06-.24.08l.45-.05c-.18.05-.36.06-.45.12.21-.02.39-.12.53-.11-.2.08-.37.11-.19.1-.12.03-.19.04-.25.04.15,0,.08.06.32.02-.25.09.09.08-.34.18.1-.02.35-.03.37,0-.52.08,0,.1-.56.23.47-.08.24.08.51.08-.04,0-.11.02-.09,0-.03.04-.17.09-.25.13.38-.09.48-.05.72-.08-.36.13-.45.08-.8.18.31-.08.33,0,.58-.08-.22.09-.1.06-.41.15.48-.11.09.01.39-.03-.22.1-.44.12-.29.14-.14.06-.32.05-.32.05ZM1.16,18.87h0s-.02-.02-.02-.02c0,0,.01,0,.03.02ZM1.19,18.98s0-.03,0-.05c.09-.03.19-.05.19-.03-.06,0-.11.05-.19.08ZM3.03,18.29s0,.03-.07.04c0,0-.02-.01-.04-.02h-.03c.05,0,.1-.01.14-.02Z"/>
    <path class="cls-1" d="M2.66,18.35s-.02,0-.02,0c-.02,0-.04.02-.06.02h.09s0-.02,0-.02Z"/>
    <path class="cls-1" d="M7.01,18.78h0s.01.01.03.03c0-.01-.01-.02-.02-.03Z"/>
    <polygon class="cls-1" points="1.02 20.55 1.09 20.53 1.03 20.54 1.02 20.55"/>
    <path class="cls-1" d="M8.02,19.27l.04.06s-.03-.04-.04-.06Z"/>
    <path class="cls-1" d="M8.26,19.21l.08.07s-.06-.06-.08-.07Z"/>
    <path class="cls-1" d="M8.48,19.26s-.04-.08-.05-.11h0s.05.11.05.11Z"/>
    <path class="cls-1" d="M6.39,21.24s0,0,0,.01c.02.05.02.03,0-.01Z"/>
    <path class="cls-1" d="M6.61,20.15s.05.09.06.12c.03,0,.04,0-.06-.12Z"/>
    <polygon class="cls-1" points="5.81 22.27 5.81 22.27 5.8 22.27 5.81 22.27"/>
    <path class="cls-1" d="M6.64,20.3s.05.01.03-.02c-.02,0-.05-.02-.03.02Z"/>
    <path class="cls-1" d="M9.21,19.09h.01s0-.02-.01-.03v.03Z"/>
    <path class="cls-1" d="M9.21,19.06v-.03s0,0,0,.03Z"/>
    <path class="cls-1" d="M9.2,18.95v.07s.02,0,0-.07Z"/>
    <path class="cls-1" d="M8.95,19.04l.03.1s-.02-.05-.03-.1Z"/>
    <path class="cls-1" d="M8.9,19.1s.12.19.11.12l-.03-.08c.05.15-.14-.21-.09-.04Z"/>
    <path class="cls-1" d="M8.11,18.07l.1.04c-.06-.09-.13-.22-.11-.26-.22-.26.12.21.01.21Z"/>
    <path class="cls-1" d="M7.84,18.02c.01-.06-.07-.14-.1-.2.02.1.03.12.1.2Z"/>
    <path class="cls-1" d="M6.48,18.89l-.15-.21s.06.08.15.21Z"/>
    <polygon class="cls-1" points="7.08 20.1 7.2 20.21 7.06 20.02 7.08 20.1"/>
    <polygon class="cls-1" points="5.79 18.8 5.78 18.76 5.8 18.87 5.79 18.8"/>
    <path class="cls-1" d="M4.15,20.44l.17.28c-.02-.06-.21-.37-.17-.28Z"/>
    <path class="cls-1" d="M3.88,21.14c-.01-.21-.02-.34-.02-.12,0,.02.02.18.02.12Z"/>
    <polygon class="cls-1" points="3.5 20.07 3.6 20.04 3.52 20.06 3.5 20.07"/>
  </g>
</svg>