<?xml version="1.0" encoding="UTF-8"?>
<svg id="Capa_1" data-name="Capa 1" xmlns="http://www.w3.org/2000/svg" viewBox="0 0 941.62 813.27">
  <defs>
    <style>
      .cls-1 {
        fill: #a6b7c9;
      }
    </style>
  </defs>
  <rect class="cls-1" width="45.67" height="813.27"/>
  <rect class="cls-1" x="68.69" width="45.67" height="813.27"/>
  <rect class="cls-1" x="137.38" width="45.67" height="813.27"/>
  <rect class="cls-1" x="206.06" width="45.67" height="813.27"/>
  <rect class="cls-1" x="274.75" width="45.67" height="813.27"/>
  <rect class="cls-1" x="343.44" width="45.67" height="813.27"/>
  <rect class="cls-1" x="412.13" width="45.67" height="813.27"/>
  <rect class="cls-1" x="480.82" width="45.67" height="813.27"/>
  <rect class="cls-1" x="552.36" width="45.67" height="813.27"/>
  <rect class="cls-1" x="621.05" width="45.67" height="813.27"/>
  <rect class="cls-1" x="689.74" width="45.67" height="813.27"/>
  <rect class="cls-1" x="758.42" width="45.67" height="813.27"/>
  <rect class="cls-1" x=".08" width="45.67" height="813.27"/>
  <rect class="cls-1" x="68.76" width="45.67" height="813.27"/>
  <rect class="cls-1" x="137.45" width="45.67" height="813.27"/>
  <rect class="cls-1" x="206.14" width="45.67" height="813.27"/>
  <rect class="cls-1" x="274.83" width="45.67" height="813.27"/>
  <rect class="cls-1" x="343.52" width="45.67" height="813.27"/>
  <rect class="cls-1" x="412.21" width="45.67" height="813.27"/>
  <rect class="cls-1" x="480.89" width="45.67" height="813.27"/>
  <rect class="cls-1" x="552.44" width="45.67" height="813.27"/>
  <rect class="cls-1" x="621.13" width="45.67" height="813.27"/>
  <rect class="cls-1" x="689.81" width="45.67" height="813.27"/>
  <rect class="cls-1" x="758.5" width="45.67" height="813.27"/>
  <rect class="cls-1" x="827.19" width="45.67" height="813.27"/>
  <rect class="cls-1" x="895.88" width="45.67" height="813.27"/>
  <rect class="cls-1" x="827.27" width="45.67" height="813.27"/>
  <rect class="cls-1" x="895.95" width="45.67" height="813.27"/>
</svg>