<?xml version="1.0" encoding="UTF-8"?>
<svg id="Capa_1" data-name="Capa 1" xmlns="http://www.w3.org/2000/svg" viewBox="0 0 46.01 23.62">
  <defs>
    <style>
      .cls-1 {
        fill: #3c4f69;
      }
    </style>
  </defs>
  <g>
    <path class="cls-1" d="M.08,6.28c-.14.06.1.11-.08.07,0-.06.03-.11.08-.07Z"/>
    <path class="cls-1" d="M26.64.64c-.35.47-1.04.33-1.42.75-.05.04-.07-.2-.17-.1-.32.49-1.07.66-1.7.83v-.07c-.12.03-.13.27-.25.31-.02-.03,0-.07-.05-.1.04.11-.15.17-.14.27-.07,0-.12-.08-.2-.09l.03.15c.05.37-.38.28-.48.57-.01-.03,0-.07-.04-.08-.19.42-.59.76-.86,1.15-.02-.05-.07-.12-.13-.13.09.11.02.25-.04.36-.15-.05-.04.25-.2.31l-.02-.03c.05.18-.17.07-.09.25l-.13-.02c.13.16-.18.06-.15.19l.04.02c0,.1-.12.07-.14.16h-.02c-.06.17-.22.19-.09.28-.14-.02.06-.18-.15-.2-.24.58-.56,1.1-.85,1.63-.09.03-.12.06-.18.05,0,.07-.07.22-.03.31,0-.02-.09,0-.11.03-.1.07.11.18-.01.26-.02-.06-.06-.1-.12-.11.07.15-.02.26-.02.39-.02-.03-.02-.06-.07-.08.08.18-.12.22-.07.36l-.07-.08c-.17.14.16.12.04.25-.01-.05-.05-.05-.08-.07.1.2-.04.41-.04.57,0-.01-.03-.02-.03-.02-.03.16-.12.32-.1.51-.06.05-.21-.08-.23.1.18.04,0,.31.22.26-.07.13-.2.35-.15.46-.06-.08-.23.03-.23-.1l-.13.07c-.07-.03.04-.09-.06-.08,0,.06.03.26,0,.31.09.14.28.28.27.46-.06-.1-.21.02-.23-.05l.31.31c0,.08-.15,0-.1.11.05,0,.08.06.11.11-.02.02.03.37-.16.3-.08-.01-.03-.14-.1-.1,0,.13.06.17.05.31l-.03-.02c-.03.06.06.33.17.32,0-.06-.11-.07-.05-.12.11.16.13.37.12.54-.03-.09-.08-.13-.13-.21.12.33.23.74.32,1.16.1.16-.2-.4-.14-.36-.05.08.01.34.07.61.06.27.12.55.02.47-.03-.09.16.31.13.25,0,.17-.17-.21-.09.04-.1-.21.05.21.1.41.08.24-.05-.09-.07-.21.11.33.37,1.48.25,1.43.06.17.24.78.3,1.02,0,.01,0,.02,0,0l-.17-.49c-.13-.32-.07,0-.23-.46.03.11.05.17.08.2.01-.01,0-.09,0-.16-.06-.27-.11-.46-.02-.16-.05-.14-.02,0,.03.18.05.19.12.45-.01.05-.01,0,0,.04,0,.06,0,0-.01.03-.02.03-.02,0-.06-.05-.17-.32.05.11-.13-.5-.18-.57-.09-.11.03.15-.02.14v.07c.1.39-.15-.24.03.27-.11-.34-.15-.13-.3-.71l-.11-.45s.05.37.06.5c-.02-.05-.06-.17-.07-.24.16.67-.15-.26-.1.13-.17-.41-.35-.55-.47-.97-.07.02-.15.05-.28-.23.02,0,.05.03.05-.07-.08-.24-.09-.14-.15-.17,0-.05-.15-.46-.21-.68-.09-.02-.08.21-.1.31-.03-.24-.1-.28-.19-.34-.08-.06-.18-.13-.2-.31.05.01.18.05.12-.11,0-.34-.24-.03-.34-.32l-.06.2c0-.18-.3-.18-.17-.31-.1-.02-.13-.23-.24-.09-.06-.28-.46-.38-.35-.7-.05,0-.09-.09-.14,0-.03.11.11,0,.08.07-.03-.02-.07.01-.09.03-.03-.08-.06-.13.09-.19-.05-.2-.34.1-.45-.1.06-.05.06-.08.01-.11h-.17c-.08-.11.05-.17.14-.26-.07-.04-.13-.1-.22-.06l.04-.18c-.02.13-.1.02-.15.02h.05s-.07-.08-.11-.1c-.04.07,0,.14.03.19-.07.02-.1-.03-.19-.01.09-.08-.04-.14-.08-.19-.04-.06-.13.04-.14.02.04-.05-.08-.08.02-.11.03,0,0,.08.07.06,0-.06.07-.15-.06-.14-.09,0-.14.2-.19.05.05,0,.08-.04.13-.05l-.06-.13-.07.08s.02-.03.02-.05c-.1.07-.17-.09-.27,0-.06-.03-.06-.14-.1-.19h.01c-.02-.1-.13-.12-.22-.1l.02-.02s-.12-.07-.2-.04c-.03-.13.21-.36.04-.31-.09-.06-.25.08-.26.16-.11-.17-.38-.13-.43-.38-.05.02-.05.06-.11.05-.21-.18-.56-.17-.64-.47.09,0,.06-.09.09-.15-.11.05-.02-.13-.12,0-.04.09-.07.13-.03.2-.17-.03-.38-.16-.41-.28.02.06-.03.07-.07.08.09-.14-.01-.21-.12-.2l-.06.08v-.12c-.05.01-.13.17-.17.04.01-.04.03-.07.02-.1-.12.03-.3.1-.35-.02v-.17c-.06,0-.16.04-.11.11-.12-.15-.21-.21-.21-.35-.4.16-.8.02-1.11-.13l.03-.06c-.06-.1-.09.1-.13.03.05-.05-.01-.17.08-.22-.1-.12-.21.06-.3.07-.04.09.09-.04.03.07-.03.03-.15-.13-.22,0-.01-.06.05-.16.08-.21l-.1.04c-.04-.19.31-.22.28-.45h-.08c-.02-.17.25-.1.08-.21-.1.04-.24.22-.19.3-.18-.01-.18.31-.35.24-.02-.1.15.02.15-.1-.05-.14-.19.01-.25-.05.07.08-.05.2-.11.21-.07-.09.1-.11-.02-.17-.04.07-.18.1-.09.19-.1.17-.11-.09-.22.03,0-.14.21-.26.09-.37-.01.13-.22.12-.19.32-.04-.05-.02-.15.04-.22-.06-.1-.25.18-.21-.07l-.06.12s-.04-.09-.06-.17c-.07-.02-.26.12-.21-.07-.03.01-.18-.03-.15.12.08.1.14-.07.15.12-.03-.16-.14-.01-.21.02v-.08s-.11-.01-.14.06c.03-.04.03-.09.01-.12l-.06.11c-.15.03.01-.21-.13-.21l.12-.07s-.05-.1-.12-.08c-.05.1-.11.22-.15.29-.08.03-.01-.12-.11-.03l.12-.11s-.03-.18-.14-.2c-.07.03-.2.16-.11.24-.05,0-.11-.08-.06-.15-.12.02,0,.12-.11.17-.03-.08-.14-.2-.2-.31l.13-.16h-.07c.11-.14-.03-.13.05-.27-.05-.03-.11.01-.16.04.11.26-.2.3-.19.53-.19.03-.05-.55-.29-.24.03.06-.09.21.04.17-.11-.04-.11.21-.23.11.11-.08-.09-.23.08-.35-.02.07.08.06.1.04-.04-.09.04-.22-.09-.23-.08.02-.18.01-.18.13,0,.13.12,0,.05.12-.15.03-.16-.16-.24.06.1-.01.11.12.1.21l-.11.04.03-.08c-.17-.07-.06.15-.23.11l-.07-.17c.05-.14.24.08.23-.15-.11-.02-.15.1-.25.03.02-.02.06-.02.08-.04-.04-.01-.06-.32-.23-.15-.09.06-.03.08-.03.17-.18.01-.23.1-.35.1.03-.17-.2-.02-.07-.19.06.09.31.11.38-.05-.05-.21.14.04.19-.16-.14-.02-.13-.21-.14-.34-.04-.01-.08.04-.11.06-.02.12.03.12.03.25-.16-.05-.32.01-.41.13-.05-.06-.03-.18.03-.19-.19.04-.4.02-.58-.02.12.2-.2.05-.12.21.1.04.18.19.13.28-.06-.01,0-.09-.02-.13-.07.11-.12-.17-.19,0,.17-.06.03-.24.06-.4-.13.09,0-.11-.12-.11-.13.09-.28.15-.42.2-.18-.13-.44.04-.6.05-.09-.07-.05-.25-.14-.28-.11.01.1.18-.07.12v-.04s-.29-.09-.3.16l.02-.19s-.05.03-.07.05c0-.06-.05-.11,0-.16-.11-.12-.2.05-.3.08l.08.1c-.16.12-.3.03-.47.1v-.11s-.11.08-.11.08c0-.11-.1-.16-.14-.06l.22-.31c.09.05-.06.15,0,.25.06.09.21.03.22-.08-.06,0-.06.02-.1.07-.05-.15.05-.16.08-.27-.03.01-.09-.03-.09.02.05-.09.12-.11.22-.13-.06.07.05.09.03.14-.01-.14.09-.19.22-.18.11.14.24-.12.4-.1-.05.14-.12.26-.2.32.1.06.11-.01.21.05.04-.11.05-.27.17-.34l.02.1c.11-.06.1-.21.25-.2.26.03.52,0,.71.02v.1c.11-.22.37-.08.51-.18.25.1.54-.1.66.08.44-.04.83-.09,1.27-.02l-.09.14c.09-.1.04.09.12.07-.08-.13.13-.14.19-.22.18.14.46.06.65-.01v.1c.2-.16.39.03.6.11.02.05.04.15.1.15.15-.13.21-.11.41-.17.13.03.33.12.44.21.54-.11.98.21,1.52.23v.12c.55-.06,1.05.38,1.49.44l-.12.17c.09.12.3.08.33-.06.09.12.35.06.35.25.11.09.19-.01.31.02.22.19.31.22.55.32l-.05-.04s-.09.1-.04.14c.11,0,.28.23.32-.03.17.27.63.22.75.54.02-.07.08-.04.13-.06.21.14.34.4.57.41.01.05-.12.06-.04.12.06.01.05-.07.13-.06.41.12.56.59.87.79.6.29,1.02.83,1.49,1.23l-.04.03c.27.02.2.5.49.41-.03.04,0,.04-.06.11.09-.09.04.23.14.09,0-.01,0,0-.02.02.02.2.07.03.12.24,0,.03-.01.04,0,.12.04.2.02-.3.07.14.01.01-.02-.21-.02-.2.15.33.19.2.18.1.07.19.12.33.17.46.11.29.18.53.05.11.05.12-.09-.26-.04-.13-.07-.22.26.63.13.25-.14-.38-.09-.23-.17-.46.08.15.2.39.09.06l.07.17c-.21-.54-.1-.44-.33-.88-.01-.08-.03-.17-.04-.27l-.02-.13v-.06s.01-.23.01-.23l.11-.97c.07-.32.14-.63.22-.95.43-1.21.86-2.42,1.68-3.44.33-.15.35-.16.47-.48.02.03.01.05.05.05-.12-.11.12-.2.02-.32.29-.38.57-.72.89-1.1-.04.07.04.19.09.11v-.14s.03.02.03.02c.02-.06.01-.17-.07-.16.77-1.01,1.94-1.55,2.95-2.21.28-.09.62-.33.88-.51.46-.13.92-.16,1.34-.29.43-.1.86-.19,1.29-.4,0,0-.03.45-.35.64Z"/>
    <path class="cls-1" d="M.25,6.23c.05.08.16.1.1.22-.02-.07-.09-.15-.1-.22Z"/>
    <path class="cls-1" d="M2.98,6.78s.04.03.05.05c-.03,0-.06.08-.09.03.03,0,.03-.04.04-.08Z"/>
    <path class="cls-1" d="M3.64,6.83c-.01.07-.15.13-.23.14l.23-.14Z"/>
    <path class="cls-1" d="M4.24,7.15c.05.07.03.1-.04.09,0-.04.02-.06.04-.09Z"/>
    <path class="cls-1" d="M4.29,6.99c.05,0,.07.05.09.09,0-.06-.12.03-.09-.09Z"/>
    <path class="cls-1" d="M5.58,7.33s.11-.05.13.03c-.02-.06-.16.07-.13-.03Z"/>
    <path class="cls-1" d="M6.2,7.32s.02.02.05,0c.03.04-.02.09-.05.09v-.09Z"/>
    <polygon class="cls-1" points="16.1 12.73 16.02 12.68 16.06 12.63 16.1 12.73"/>
    <path class="cls-1" d="M18.43,12.91c-.04-.16.07,0,.09,0,0,.11-.09-.14-.09,0Z"/>
    <polygon class="cls-1" points="18.46 9.57 18.45 9.59 18.31 9.54 18.46 9.57"/>
  </g>
  <g>
    <path class="cls-1" d="M28.13,16.27c-.08.05.08.11-.04.07,0-.06,0-.11.04-.07Z"/>
    <path class="cls-1" d="M45.72,16.48c-.26.38-.64.04-.9.32-.03.02-.03-.21-.09-.14-.23.34-.68.27-1.1.17v-.06c-.08-.02-.09.2-.17.2-.01-.04,0-.06-.03-.1.02.12-.1.1-.1.19-.04-.03-.08-.12-.13-.15v.14c.03.33-.25.08-.32.31,0-.03,0-.06-.03-.08-.14.28-.42.39-.61.6-.02-.05-.05-.12-.1-.16.06.13,0,.2-.03.26-.11-.1-.03.18-.14.16v-.03c.02.16-.14-.02-.07.16l-.1-.07c.1.18-.14-.03-.12.08l.03.03c0,.07-.09,0-.1.06l-.02-.02c-.05.11-.17.06-.06.18-.11-.07.04-.11-.12-.22-.17.35-.45.57-.69.83-.07-.01-.11,0-.16-.04,0,.05-.07.12-.03.2,0-.01-.08-.04-.1-.03-.09.01.09.17-.01.17-.01-.05-.05-.09-.1-.12.06.12-.01.17-.02.26-.01-.03-.02-.05-.06-.08.07.15-.11.1-.08.21l-.06-.08c-.16.02.14.14.03.18-.01-.04-.04-.05-.07-.08.09.17-.05.25-.04.36,0-.01-.03-.02-.03-.02-.03.1-.12.14-.13.29-.06.01-.18-.15-.2-.04.14.12-.04.22.15.32-.07.09-.18.17-.17.3-.03-.12-.17-.22-.14-.3l-.09-.07c-.04-.08.04-.02-.03-.1,0,.03,0,.19-.04.19.03.16.12.53.08.71-.02-.17-.12-.31-.12-.38.04.21.08.49.11.78-.01.07-.07-.26-.07-.1.02.09.03.18.04.28-.01-.03-.06.32-.13-.06-.03-.14,0-.15-.03-.25-.02.08,0,.22-.03.31v-.06s-.03.35.02.54c.01-.03-.04-.26,0-.19.02.3,0,.49-.03.59,0-.11-.01-.24-.02-.39,0,.5-.03.78-.06,1.11.02.26-.01-.53,0-.41-.01-.03-.02-.02-.03,0-.01-.01-.02.03-.04.04-.01,0-.03.01-.04,0-.03,0-.06-.06-.09-.31,0-.02,0,.33,0,.26-.04-.12-.04-.43-.06-.37,0-.19-.03,0-.06-.02-.02.1,0-.1.02-.07-.03.09-.2-.03-.27-.44,0,.1-.11.22-.13.15l.04-.19c0-.17-.08-.14-.05-.31-.09.15.21.14.12.21.01-.2-.14.15-.08-.1-.04-.08-.13.04-.14-.22,0,.06.09-.18.06-.23-.07-.08-.04.05-.1,0h-.05c-.05.15-.05-.13-.08.08.04-.14-.13-.13-.02-.34l.08-.16s-.12.1-.18.12c0-.02.01-.07.03-.09-.13.23-.05-.16-.19-.04-.02-.18-.17-.3-.1-.44-.1-.02-.22-.05-.23-.16.02,0,.05.02.09,0,.01-.1-.03-.05-.08-.07.03-.01.06-.14.09-.23-.09,0-.17.08-.23.12.15-.18-.21-.04-.1-.22.04,0,.14,0,.15-.07.14-.18-.2.02-.17-.11l-.13.13c.06-.1-.16-.03-.01-.14-.07.02-.02-.12-.15,0,.02-.21-.28-.2-.12-.47-.04,0-.05-.05-.11.02-.05.09.08-.02.04.04-.02,0-.05.02-.07.04,0-.06-.02-.09.12-.17,0-.15-.29.14-.33,0,.06-.05.07-.08.03-.09l-.14.04c-.04-.08.08-.15.17-.25-.05-.01-.08-.06-.16,0l.07-.15c-.05.11-.08.03-.11.04h.04c.03-.05-.03-.06-.06-.07-.05.06-.03.12-.02.15-.05.02-.07,0-.14.02.09-.09,0-.11-.01-.14-.01-.04-.11.06-.11.05.04-.05-.04-.05.04-.1.02,0-.02.07.04.04.01-.05.08-.13,0-.11-.07.02-.15.19-.16.08.03-.01.07-.05.11-.07l-.02-.09-.07.08s.02-.03.03-.05c-.09.08-.11-.04-.2.05-.03-.01-.01-.11-.03-.14h.01c0-.08-.06-.08-.13-.05l.02-.02s-.07-.04-.13,0c0-.1.23-.35.1-.27-.05-.03-.2.11-.22.18-.04-.12-.24-.04-.23-.24-.04.03-.04.06-.08.06-.1-.13-.34-.06-.33-.31.06-.02.06-.09.09-.15-.08.07.01-.11-.08.03-.05.09-.07.13-.06.19-.11,0-.23-.07-.23-.17,0,.05-.03.07-.06.09.08-.14.03-.19-.04-.17l-.05.08.02-.11s-.11.17-.11.06c.01-.03.03-.07.03-.1-.08.05-.21.14-.23.04l.02-.15s-.1.06-.08.12c-.05-.12-.1-.15-.08-.28-.28.2-.49.12-.67.04l.03-.07c-.03-.08-.07.11-.09.05.04-.06.01-.16.08-.22-.05-.1-.13.09-.19.1-.04.09.06-.04,0,.07-.02.03-.07-.11-.13.03,0-.06.05-.16.08-.21l-.07.05c0-.18.22-.24.23-.46h-.05c0-.15.17-.12.08-.2-.07.05-.17.24-.15.31-.11,0-.15.31-.24.27,0-.09.08,0,.1-.11-.01-.13-.11.03-.14-.02.03.06-.05.19-.09.21-.03-.08.07-.12,0-.16-.04.08-.12.12-.08.19-.08.18-.06-.07-.14.06.01-.14.16-.28.1-.36-.02.13-.14.14-.15.34-.02-.04,0-.14.05-.21-.02-.09-.16.2-.12-.05l-.05.12s-.01-.08-.02-.16c-.04-.01-.16.14-.12-.05-.02.02-.1-.02-.1.13.04.1.08-.08.07.11,0-.16-.08,0-.12.04v-.08s-.05,0-.08.08c.02-.04.03-.09.02-.11l-.04.11c-.09.04.02-.2-.06-.18l.07-.08s-.02-.09-.06-.07c-.04.1-.08.22-.11.3-.05.04,0-.12-.06-.02l.08-.12s0-.18-.06-.19c-.04.03-.12.17-.08.24-.03,0-.06-.07-.02-.15-.07.03-.01.11-.08.17-.01-.07-.07-.19-.09-.3l.08-.17h-.04c.07-.14-.01-.12.04-.27-.02-.03-.07.02-.1.05.05.25-.13.31-.14.54-.11.05,0-.54-.16-.2.01.06-.06.22.02.16-.06-.03-.07.22-.13.12.07-.09-.04-.23.05-.35-.01.07.04.06.06.04-.02-.09.03-.22-.04-.23-.05.02-.1.02-.11.13,0,.13.07,0,.03.12-.09.04-.09-.16-.14.06.05-.01.06.12.05.2l-.06.05.02-.08c-.09-.07-.04.15-.13.12l-.03-.17c.03-.14.13.07.13-.16-.06-.01-.09.1-.14.04.01-.02.03-.02.05-.04-.02,0-.03-.32-.13-.15-.05.07-.02.08-.02.17-.1.02-.13.12-.19.13.02-.17-.11-.01-.04-.19.03.1.17.09.21-.08-.03-.2.08.03.11-.17-.08-.01-.07-.21-.08-.34-.02,0-.05.05-.06.07-.01.12.02.12.01.25-.09-.03-.18.04-.23.16-.03-.06-.02-.18.02-.19-.11.04-.23.02-.33-.01.07.2-.11.05-.06.21.06.04.11.19.08.28-.03-.01,0-.09-.02-.13-.04.11-.07-.17-.11,0,.09-.07,0-.24.02-.4-.07.09,0-.11-.07-.11-.07.08-.15.17-.23.21-.11-.14-.25.02-.34.04-.06-.07-.05-.25-.1-.28-.06.01.07.18-.03.11v-.04s-.18-.1-.17.16v-.2s-.03.03-.04.06c-.01-.06-.04-.11-.02-.16-.08-.12-.11.05-.17.06l.06.1c-.09.11-.17.01-.27.07l-.02-.11-.04.08c0-.11-.08-.16-.09-.07l.1-.3c.06.05-.02.14.03.24.04.09.13.04.12-.07-.04,0-.04.02-.05.06-.04-.15.01-.15.02-.26-.02.01-.05-.03-.05.02.02-.08.06-.1.12-.12-.03.07.04.09.03.14-.02-.13.03-.19.12-.17.08.14.13-.13.23-.09-.02.14-.05.25-.09.32.07.06.06-.01.13.05.01-.1.01-.26.08-.33l.02.1c.06-.06.04-.21.13-.19.16.03.31.02.42.02v.1c.06-.22.22-.08.3-.18.15.1.32-.1.39.07.26-.09.49-.12.76-.07l-.06.14c.06-.1.02.09.07.07-.04-.12.08-.15.12-.23.11.12.27.02.4-.06v.1c.13-.17.23.02.35.07,0,.04.01.14.05.14.1-.15.14-.13.27-.21.08.02.19.09.25.18.35-.15.6.07.94.05l-.02.12c.37-.14.64.21.92.21l-.11.17c.05.09.19.03.23-.11.05.09.23,0,.2.17.06.07.13-.04.21-.03.11.15.17.16.33.21l-.03-.03s-.08.11-.05.14c.08-.02.16.15.23-.09.08.2.4.1.43.36.03-.06.07-.05.11-.08.13.08.18.28.34.26,0,.04-.1.07-.05.11.04,0,.05-.07.11-.07.27.04.3.41.49.52.39.14.62.5.91.74l-.04.03c.22-.03.05.35.32.24-.02.05.06.1-.03.14.17,0,.08.29.31.3,0-.01-.02-.01-.04-.01,0,.18.2.21.2.38-.02.01-.05-.01-.09.02-.03.12.2-.08.03.09,0,.01.09-.07.08-.07,0,.16.16.14.2.11,0,.26-.1.59-.02.39,0,.08.02-.14.01-.06.02-.09-.02.48,0,.3.02-.26.02-.13.03-.28,0,.21.01.49.04.32v.15c.02-.38.05-.06.04-.62v-.02c.02-.13.03-.27.03-.36.01-.11-.05-.09,0-.2.46-.64.88-1.32,1.56-1.77.28.03.28.02.38-.17.01.03,0,.04.04.06-.1-.13.1-.1.02-.24.25-.15.44-.35.7-.51-.03.04.02.16.06.13v-.12s.03.03.03.03c.02-.04.01-.13-.05-.15.59-.54,1.43-.55,2.12-.79.19,0,.41-.11.6-.18.61.09,1.1.24,1.67.08,0,0-.08.43-.3.53Z"/>
    <path class="cls-1" d="M28.23,16.24c.04.08.11.11.09.22-.02-.07-.07-.15-.09-.22Z"/>
    <path class="cls-1" d="M29.87,16.84s.02.03.03.05c-.02,0-.03.08-.05.03.02,0,.01-.04.02-.08Z"/>
    <path class="cls-1" d="M30.24,16.89c0,.07-.08.13-.13.14l.13-.14Z"/>
    <path class="cls-1" d="M30.58,17.18c.03.06.02.1-.02.09,0-.04.01-.06.02-.09Z"/>
    <path class="cls-1" d="M30.61,17.02s.04.05.05.09c0-.06-.07.03-.05-.09Z"/>
    <path class="cls-1" d="M31.32,17.29s.06-.06.07.03c-.01-.06-.1.08-.07-.03Z"/>
    <path class="cls-1" d="M31.67,17.24s.01.02.03,0c.01.04-.02.09-.03.09v-.09Z"/>
    <polygon class="cls-1" points="37.18 20.13 37.13 20.12 37.19 20.08 37.18 20.13"/>
    <path class="cls-1" d="M39.18,23.29c0-.19.03.14.04.16-.02.08-.02-.26-.04-.16Z"/>
    <polygon class="cls-1" points="39.82 20.44 39.81 20.45 39.7 20.35 39.82 20.44"/>
  </g>
</svg>