<?xml version="1.0" encoding="UTF-8"?>
<svg id="Capa_1" data-name="Capa 1" xmlns="http://www.w3.org/2000/svg" viewBox="0 0 71.61 96.39">
  <defs>
    <style>
      .cls-1 {
        fill: #3c4f69;
      }
    </style>
  </defs>
  <g>
    <path class="cls-1" d="M8.26,95.93c.78.73-.32-.5.53.46-.14-.06-.32-.18-.53-.46Z"/>
    <path class="cls-1" d="M70.24,87.98c-.88-1.3-2.09-2.61-3.68-3.49-.79-.43-1.64-.79-2.55-.94-.92-.15-1.75-.16-2.65.06l-.09.02s-.06.01-.03-.02l.08-.13.15-.26c.1-.18.2-.36.3-.54.22-.39.21.06.63-.72.78-1.62,1.94-3.75,2.27-6.19.13-1.21.1-2.5-.4-3.65-.53-1.13-1.46-2.02-2.46-2.58.1.02.18.06.27.08-.76-.48-1.87-.63-2.78-.67,0-.04.3-.04.09-.1-.12.04-.54.06-.98.12-.22.05-.44.12-.62.17-.18.07-.32.17-.41.22-.36.11-.36.05-.8.3-.12.15-.19.34-.28.5-.17.24-.22.56-.37.85l-.08.15.15-.08c.59-.31,1.26-.63,1.87-1.12.61-.49,1.18-1.09,1.55-1.79-.03.09-.12.27,0,.16.81-1.36,1.38-3.1,1.32-4.91-.03-.9-.21-1.8-.57-2.63-.37-.82-.9-1.56-1.52-2.16.13.06.29.1.18-.09-.21-.04-1.02-.75-1.84-1.18-.29-.36-1.47-.62-2.49-.91h.1c-.81-.03-1.1-.3-2.02-.1-.22,0-.4-.02-.54-.05-.03,0-.05.02-.08.03-.33.07-.5.04-.75.01-.22,0-.52.06-.83.17h0c-.2.08-.36.14-.5.19.14-.11.41-.25.63-.41l.06-.04c.39-.29.67-.62.89-.86.47-.41.68-.62.56-.63.5-.32-.67.73-.36.6,0,0,0,0,.02,0,.05-.02.15-.07.24-.14,1.56-1.61,2.64-3.76,2.98-6.01.37-2.26-.13-4.63-1.36-6.52-.22-.47-.41-.74-.43-.87-.27-.37-1.16-1.27-1.53-1.47.12.09-.17-.25-.36-.41-.63-.55-.83-.39-1.57-.91.33.14.46.16.39.05-.73-.29-1.67-.73-2.57-.92.14.02.36.06.34,0-.69-.11-1.35-.26-1.94-.34.05-.21.23-.47.31-.71l-.04.27c.73-1.19,0-.42.61-1.5-.1.28-.02.2-.01.26.36-1.1,1.16-2.76,1.45-3.86-.01.07.02.06.02.06.38-1.17.75-2.43.76-3.79.05-.49.26.18.21-1.14-.08.03-.15-.53-.22-.98-.11-.45-.2-.81-.23-.41-.07-.54-.27-1.23-.54-1.82-.17-.28-.32-.56-.49-.78-.18-.21-.35-.39-.48-.52.37.33-.19-.57.43.13-.12-.21-.25-.42-.41-.59.15,0,.5.55.41.32-.15-.2-.53-.48-.89-.77-.39-.26-.76-.51-.95-.61-.83-.33-1.65-.46-2.99-.61.65.02-.35-.25.1-.22-.67.06-1.31.19-1.87.47-.41.15-.16-.17-.72.15.05.03-.19.17-.33.3-.03.02-.14.1-.28.2-.07.05-.15.11-.23.17-.07.08-.14.16-.22.24-.33.3-.51.73-.66.77-.16.14.32-.66.02-.25-.07.14-.13.25-.18.33l-.17-.11c.32-.4.4-.53.76-1.12h.03c.35-.46.61-1.52.3-1-.15.35.17-.09-.12.4.09-.39.4-1.29.49-2.1,0,.28.04.25.07.38.07-1.12-.02-2.3-.44-3.43-.1,0,.29.38.27.58-.11-.78-.47-1.54-.93-2.15-.46-.62-1.01-1.1-1.48-1.55.18.12.02.17.02.14-.6-.44-.52-.52-.97-.71,0-.09-.57-.25-1.06-.38-.26-.03-.11-.08.31.06-.33-.09-1.13-.3-2.07-.33-.24.01-.41-.03-.88.05-.2.03-.39.05-.61.08l-.7.2c-.45.12-.95.3-1.39.43-.19.06-.38.12-.56.18l-.26.08-.12.04h-.04c.13-.14.23-.24.32-.33-.1.07.07-.18.39-.57.35-.46.9-1.12,1.21-1.47-.03.08-.05.16-.06.23.37-.32.58-.76.73-1.13.12-.24.15-.48.21-.49.01-.2-.02-.11-.07.11-.02.11-.06.25-.12.4-.07.23-.2.49-.34.75-.44.55-.87,1.09-1.11,1.39-.22.24-.29.31-.03,0,.31-.28.65-.77,1.04-1.28.28-.46.36-.81.37-.63.12-.3.17-.38.2-.59l.09-.53c.03-.35.07-.7.12-1.05,0,.2.13.61.15,0-.08-1.07-.03-.31-.2-1.16-.05-.17-.08-.35-.15-.52-.12,0-.25-.91-.26-.5.04-.08-.13-.43-.27-.75-.14-.32-.32-.59-.21-.6l.2.06c-.23-.41-.53-.57-.8-.81-.02-.06-.08-.17-.04-.17-.19.08-.73-.81-1.28-.95-.36-.28-.89-.53-1.39-.67-.5-.11-.96-.18-1.18-.21-.18.03-.35.06-.52.08l-.49.17c-.34.08-.64.28-1.02.42.13-.09.33-.18.35-.25-.51.13-.56.31-.94.58.05-.12-.88.57-1.31,1.01-.38.65-.12.51-.1.61-.29.21-.49.7-.67,1.21-.07.26-.15.52-.21.77-.05.25-.12.48-.21.68.03-.25.13-1.07-.06-.48-.09.15-.15.32-.18.5-.01.18,0,.37,0,.57,0,.2.03.41.07.63.03.23.02.47.07.74l.13-.28c0,.23.06.62.19.9.12.28.21.5.11.49.04.08.1.18.17.29.08.14.16.29.24.42.26.36.49.58.53.51.11.15.23.29.34.45l.18.23.09.11s.07.08,0,.09c-.39.14-.81.28-1.18.43l-.54.23-.27.12c-.08.04-.12.07-.18.1-.22.13-.45.24-.65.39-.84.55-1.51,1.18-2,1.49-.15.22-.58.7-.43.66.35-.27.32-.51.48-.59-.15.18-.14.25-.14.29-.4.4-.64.77-.46.24-.42.48-.53.81-.64,1.16-.1.36-.22.75-.54,1.47-.05-.09-.11.01-.25.45-.04.29-.07.59-.09.88-.2.99-.25.55-.39.55-.04.55-.06,1.24.05,1.48-.03.22-.07.45-.1.68.05-.5.13.44.22.69-.03-.08-.05-.17-.08-.25-.05.11.13.74.24,1.04.04-.09-.09-.73-.12-1.08.09.27.18.69.35,1.03-.16-.08.19.88.37,1.27.2.46.34.46.41.58-.05.04.4.71.13.42-.1-.14-.15-.36-.32-.59.11.31,0,.34.43.89.35.39.11-.23.63.59-.18-.18-.25-.19-.4-.33.15.27.34.51.51.77l.11-.04c.06.11,0,.05.02.11.26.14,1,.98,1.27.98.35.28.72.64,1.1.86l-.08-.03c.26.22.63.38.97.51l-.47.97c-.2-.08-.39-.14-.55-.18h.03c-.13-.07-.36-.13-.59-.2-.24-.04-.49-.08-.67-.07-.69-.14-.2-.47-1.02-.34-.76.03-1.13.34-.83.35-1.33.12-2.61.97-3.55,1.7-.1.16,0,.09-.23.4-.63.69-1.04,1.62-1.16,2.54-.13.93-.04,1.83.06,2.59-.19-.53-.12,0-.17.02.22.42.09.57.3.68.08-.08.14-.06,0-.58.2.53.5,1.18.86,1.72.35.54.76.97.96,1.21-.2-.25,0-.1.2.04-.06.05-.04.13.38.46.39.27,1.1.57,1.68.8l.36.05.32.21c-.05.04-.17.08-.28.12-.31.2-.07.24-1.31.79-.1.01-.21.03-.42.11-.12.08-.26.16-.39.25-.12.08-.3.23-.34.27-.14.14-.3.26-.45.41-.3.29-.59.58-.87.81-.18.1-.33.23-.51.35-.21.24-.43.73-.08.31-.84.93-1.19,1.68-1.47,1.99-.31,1.06-.62,2.35-.61,3.7-.02,1.34.29,2.7.79,3.82l-.1-.04c.21.64.27.26.43.69-.16-.16.11.53-.22.1.41.89.77,1,1.18,1.46.13.02-.36-.36-.19-.34.06.08.8,1.06,1.02,1.05.13.21-.08.16-.21.11.16.12.31.25.48.35.22.29-.15.1-.5-.13-.35-.23-.7-.48-.51-.12l.42.39c.29.5-1.2-.95-.21.11.51.38,1.06.54.68.14.49.41.69.39.85.43.17.03.35.06.91.41.27.27-.91-.54-.76-.31.47.44,1.11.61,1.61.85-.55-.29,0-.22.36-.09.6.3-.46,0,.43.31.17-.01,1.02.14.32-.11.22-.05.51.05.82.15l-.61,1.71c-.17-.09-.36-.18-.55-.21-.22-.25.97.12.09-.38.1.15-1.24-.2-.78.13-.36-.11-.39-.22-.09-.24-.54-.23-1.36.05-1.54-.2l-.19.13c-.18-.05-.43-.04-.73-.09-.52.05-1.53.54-1.54.35-.08.03-.37.17-.6.28-.22.13-.36.24-.13.2.67-.21.71-.43,1.14-.36-.52,0-.95.37-1.27.6l-.09-.04c-.2.13-.67.42-.74.58.11-.15.01-.13-.15-.03l-.12.25c-.66.68-.33-.03-.95.69.12-.21.28-.39.43-.58-.1.12-.42.27-.68.66-.05.2-.1.55-.11.71-.23.45-.22.14-.36.63.07-.21.11-.44.2-.65.03-.11-.42.29-.65.98-.14.44-.09,1.16.1.49-.09.33-.23.81-.26.52-.06.8.13-.08.11.6-.05.14-.09.42-.14.75-.01.33-.05.69-.03.97-.12-.23-.2-.48-.28-.73.02.17.02.34.05.51-.23-.64-.06.35-.27,0,.04.36.17.78.32,1.1-.03-.53.13-.27.31.06.19.33.45.71.49.54.3.59.29.84.33,1.07.03.24.1.49.69.94-.1-.22.44.19-.13-.43.24.34.39.4.53.48.14.08.28.19.62.52-.61-.4.45.68-.44.09.09,0-.39-.45-.52-.56.19.3-.23.11.42.73.41.37,1.06.74,1.02.59.05-.12-.67-.45-.32-.36.88.54,1,.74,1.47.69-.62-.21-.68-.44-.63-.5.22.11.45.18.68.25l-.16.03c.14.06.25.11.34.15l-.96,1.52c-.22-.2-.27-.19-.35-.21-.08-.03-.18-.08-.55-.34-.1-.15-.24-.25-.36-.39.07,0,.2.05.35.11.14.08.28.2.43.3.27.21.47.42.48.27-.53-.52-.82-.52-1.41-.89.15.06.34.14.48.19-.22-.11-.33-.61-1.47-.68-.57-.03-.16.06-.19.13-1.22-.11-1.59.05-2.35.2.12-.24-1.36.36-.56-.05.21-.02.75-.14,1.3-.19.55-.08,1.1-.08,1.33-.13-.22-.12.03-.1.36-.04.33.08.74.18.9.15-.97-.3-.91-.44-1.06-.6-.3-.04-.59-.02-.77,0-.13.12.26.12.27.25-1.16-.11-2.28.25-2.82.58-.37.09-.32-.08.12-.25-1.31.47-2.58,1.32-3.4,2.36.35-.26.11,0-.1.35-.22.33-.42.71-.21.5.4-.59.89-.92.73-.58-.27.31-.06-.06-.2.04-.21.5-.61.62-.7,1.18.52-1.12-.1-.33-.13-.6-.35.86-.11-.1-.49.75-.29.9-.5,2.03-.53,3.06-.12.64-.11,1.48,0,2.28.1.81.34,1.57.5,2.13.11.61-.2.27,0,.91.28.74-.03-.61.31.51l-.08-.09c.14.32.8,2.01,1.22,2.17l-.35-.22c.09.2.24.35.35.5-.05.04.03.29-.18,0,.26.7.84,1.29,1.32,1.92l-.21-.48c.87,1.04,1.36,1.81,2.26,2.76l-.11.05.58.53c-.21-.07.23.51.58.74-.53-.43-1.07-.86-1.58-1.32-.33-.47.51.37.36.04-.13-.28-.95-1.19-1.15-1.28.28.37.32.37.59.62-.02.22-.48-.32-.77-.54.16.19.35.49.42.49-.37-.32-.69-.69-1.18-1.33.38.4-.1-.3.06-.16-.14.03-.65-.56-1.15-1.43-.25-.68-1.06-1.57-1.47-2.68.31.39.66.88,1.04,1.47-.28-.67-.38-.71-.61-1.4-.23-.28-.49-.45-.84-1.34l.08-.08c-.29-.81-.44-.78-.62-1.88-.28-1.89-.09-3.88.36-5.28l.11-.02c0-.86.97-2.54,1.73-3.38.69-.66,1.52-1.27,2.35-1.66.82-.39,1.6-.6,2.09-.59,2.09-.43,4.36-.01,5.91,1.61l1.14,1.19-1.58-.49c-1.04-.32-2.05-.94-2.89-1.81.16.11.35.2.53.29-.54-.32-.24-.33-.67-.74.19.29.02.17-.24-.07-.24-.25-.58-.62-.72-.79-.78-1.33-1.46-3.22-1.51-4.64l.1-.05c-.2-1.41.46-3.16,1.61-4.46.16-.13.43-.31.79-.66.6-.72.99-1.06,2.21-1.73.93-.44,2.59-.74,3.62-.62,1.15-.05,2.35.19,3.42.75l3.52,1.83-3.93-.7c-2.68-.48-5.07-2.1-6.76-4.27l-.07-.3c-1.19-1.49-2-3.61-2.01-5.72-.04-2.11.66-4.05,1.4-5.51l.03.38c.5-.88,1.22-1.96.95-1.85.66-.79,1.72-1.96,2.39-2.17.34-.2.35-.28.37-.36-.01,0-.03,0-.05-.02-.09-.05-.19-.12-.28-.2-.11-.09-.21-.17-.31-.25-.14-.13-.28-.26-.41-.39-.51-.53-.99-1.08-1.48-1.99.06.16.15.3.24.45.15.17.24.14,0-.3-.21-.32-.48-.97-.64-1.45-.14-.49-.25-.8-.27-.4-.21-1.09-.29-2.41.05-3.69.3-1.29,1.11-2.43,1.97-3.08-.18.08.21-.32.37-.48,1.57-1.25,3.66-1.64,5.22-1.67.31.04-.5.09.29.14.47.03.02-.09.61-.05.73.09,1.44.33,2.1.68l-.77,1.6c-2.25-.98-3.89-2.84-4.95-4.68-1.28-2.09-1.79-4.78-1.23-7.27.56-2.47,1.99-4.65,3.85-6.14v.07c.26-.29.61-.55.99-.79.36-.22.9-.49.96-.48.09-.03.17-.06.22-.07l.08-.03h.04s-.03-.04-.03-.04c-.08-.08-.19-.16-.27-.18,0-.02.02.02-.01-.04-.03-.06-.07-.13-.11-.2-.07-.14-.17-.29-.2-.44-.09-.28-.15-.49-.05-.36-.34-.6-.44-1.56-.4-2.54.06-.99.35-1.99.62-2.89-.07.16-.09.26-.14.45.36-.87.8-1.64,1.36-2.35.53-.73,1.28-1.34,2.19-1.79-.19.09-.48.33-.51.4.33-.2.73-.42,1.11-.62.38-.19.77-.27,1-.21.44-.07.3-.17.02-.12,1.12-.16,2.31,0,3.36.47,1.06.47,1.95,1.26,2.61,2.18,1.32,1.83,2,4.22,1.41,6.53-.06.2-.11.38-.19.53-.04.09-.06.11-.07.12l-.04.05c-.04.05-.08.1-.13.13-.08.06-.14.09-.17.09-.07-.02-.06.03-.25.34-.14.11.13-.07.03,0-.01.02-.03.03-.04.05.1-.02.11.17.52.02-.02-.14.24-.1.26-.19.17.01.33.03.47.04.2,0,.38.04.55.07.33.05.6.13.86.19.51.15.97.27,1.69.54l-.14.02c.86.26,1.71.78,2.41,1.43.71.64,1.24,1.42,1.67,2.09,1.28,2.91.75,6.41-1.37,8.73l-3.81,4.17,2.32-5.15c.4-.88,1.04-1.68,1.88-2.19.85-.5,1.79-.7,2.69-.74,1.82-.03,3.53.55,4.96,1.58.37.23.68.56,1.02.85.29.35.62.65.85,1.06.12.19.25.38.36.58l.28.64c.19.43.27.83.39,1.25.38,1.69.31,3.44-.04,5.06-.3,1.41-.79,2.74-1.33,4.01-.27.64-.56,1.26-.86,1.87l-.25.5s-.02,0,.14.03l.09.02h.04s.15.05.15.05l.61.19c.8.29,1.58.63,2.29,1.08,1.43.89,2.68,2.07,3.61,3.49.94,1.4,1.55,3.07,1.72,4.79.16,1.72-.12,3.45-.73,5.04-.51,1.04-.88,1.53-1.22,2.07-.17.27-.37.53-.6.86-.06.08-.13.16-.2.25l-.05.07s-.05.07-.08.12c-.03,0-.02-.04-.09,0,.06,0,.07.02.06.04,0,.04-.25.18.04.06l-.09.05c.06-.03.15-.05.24-.06.05,0,.02,0,.13,0h.13s.07,0,.07,0l.22.03c.59.07,1.18.19,1.75.38,1.14.37,2.23.94,3.2,1.77-.48-.37-.79-.45-.24-.01.21.13.43.26.63.42l.05.12c.38.32.77.71.48.27.94,1.03,1.62,2.34,1.91,3.72.3,1.38.19,2.8-.16,4.12-.71,2.63-2.6,4.97-5.2,6l-2.14.86.83-2.17c.42-1.11,1.49-2.03,2.61-2.32,1.12-.32,2.23-.21,3.23.08,1.01.3,1.93.8,2.73,1.49.79.69,1.45,1.6,1.76,2.67.31,1.11.37,2.48.15,3.82-.2,1.34-.67,2.6-1.14,3.64-.39.76-.81,1.47-1.24,2.16-.09.13-.17.23-.23.3-.04.07-.19.21-.16.24.12-.01.27-.01.45,0h.02s.12.02.12.02l.24.03c.16.02.32.03.47.07.31.07.62.14.92.22,1.2.37,2.31.97,3.27,1.76,1.9,1.56,3.35,3.92,3.37,6.67,0,0-.11-.24-.26-.82-.2-.57-.42-1.49-1.11-2.7Z"/>
    <path class="cls-1" d="M7.34,95.02c-.1-.22-.59-.79-.1-.44,0,.11.2.44.1.44Z"/>
    <path class="cls-1" d="M1.67,77.37s.13-.23.17-.28c-.09.21-.11.44-.22.59.09-.21.04-.2.05-.31Z"/>
    <path class="cls-1" d="M4.83,74.01c-.04.08-.87.64-1.29,1.04.39-.38.81-.75,1.29-1.04Z"/>
    <path class="cls-1" d="M9.03,73.55c.33.14.24.11-.23.07-.03-.04.13-.04.23-.07Z"/>
    <path class="cls-1" d="M9.35,73.44c.34.07.49.16.63.26.02-.09-.77-.18-.63-.26Z"/>
    <path class="cls-1" d="M8.61,69.1c-.07-.21-.26-.65-.21-.87-.04.25.36,1,.21.87Z"/>
    <path class="cls-1" d="M8.49,64.96c.05-.13.08-.17.11-.33.14-.21.06.04.01.24l-.13.08Z"/>
    <polygon class="cls-1" points="21.23 7.37 21.29 7.85 21.21 7.78 21.23 7.37"/>
    <path class="cls-1" d="M39.64,18.52c0,.48-.11.33-.12.4.04-.43.07.17.12-.4Z"/>
    <polygon class="cls-1" points="48.97 27.63 48.96 27.48 49.11 27.53 48.97 27.63"/>
  </g>
  <g>
    <path class="cls-1" d="M34.2,49.69c.05-.17-.15.02,0-.13.04.05.07.1,0,.13Z"/>
    <path class="cls-1" d="M30.11,32.68c-.04-.34.17-.65.42-.9.25-.25.54-.45.76-.73.06-.06.1.19.21.05.37-.61,1.5-.81,2.24-.58l-.04.06c.14.03.31-.16.46-.12,0,.04-.05.05-.02.11.04-.12.27-.04.35-.11.05.06.03.15.1.21l.11-.12c.31-.27.57.16.92.15-.03.02-.07.03-.06.07.57.04,1.13.52,1.55.99-.05,0-.14.04-.16.1.13-.06.28.07.39.21-.09.14.26.19.27.41h-.04c.2.08,0,.23.21.28l-.07.13c.22,0-.04.24.09.32h.04c.08.09,0,.16.05.26h-.02c.09.25,0,.41.16.38-.11.1-.1-.23-.26-.07.28.77.15,1.65-.14,2.4-.09.06-.13.11-.19.1,0,.09-.11.28-.06.36,0-.02-.11.03-.13.06-.14.13.11.14-.05.26-.02-.04-.06-.06-.16-.04.1.11-.04.25-.08.34-.02,0-.02-.03-.09,0,.09.07-.25.26-.23.3l-.15.03c-.25.14-.14.11-.01.06.08-.03.18-.07.08,0,0,0-.01,0-.02.01,0,0,0,0-.01,0-.03,0-.08.03-.16.06.02,0,.03,0,.03,0,.03,0,.02.02.04.04.08-.01.15-.03.23-.04.13-.02.25-.03.37-.05-.03.01-.06.03-.06.03.21-.01.37.03.64,0,.04.04-.22.2.04.19.12-.17.4,0,.38-.22.11.04.43.2.57.18-.11.04.03.24-.13.22l.09.14c-.04.07-.11-.06-.1.05.08,0,.32.02.38.07.18-.06.39-.2.63-.12-.14.02-.02.21-.11.21.15-.07.31-.12.47-.17.08.03-.05.14.08.15.02-.05.08-.05.13-.06.02.03.33.15.26.32,0,.08-.14-.04-.09.06.13.08.17.03.3.12v.02c.05.08.28.11.25-.03-.06-.05-.04.1-.1,0,.12-.04.29.04.41.15-.06-.01-.09.03-.14.06.25.02.46.14.67.27.06-.06-.18.05-.17,0,.14.29.57.35.6.66-.04-.02.08-.1.07-.08.08.13-.02.2.07.25-.05.05.09.08.17.15.08.01-.01.04-.07-.02.14.07.54.5.58.85.04-.03.25.11.27.19l-.12.02c-.04.09.11.23.02.28.19.1-.34-.53-.16-.37-.07.09.28.21.12.23.06.14.24.23.18.41,0-.05-.19-.07-.14.05.08.19.07.04.16.19l.08.09c.11-.02.03.19.13.08-.08.05.12.3-.06.31h-.15c.03.08.18.12.25.18-.01.01-.04.04-.06.04.22-.02.01.22.2.31-.06.2.03.5-.11.6.07.15.15.29.1.46-.02-.04-.03-.08-.07-.09-.07.1,0,.13.02.23-.03-.02-.15.2-.24.31.05.15.17.12.25.14-.24.1.08.44-.16.57-.02-.06-.06-.23-.14-.12-.24.08.1.3-.06.48h.19c-.13.06,0,.34-.16.26.04.09-.13.23.04.26-.26.29-.26.86-.65.91,0,.06-.09.15,0,.18.13-.03,0-.14.07-.13-.02.04.02.07.04.09-.09.08-.15.15-.22-.02-.22.15.14.38-.11.61-.05-.05-.09-.05-.13.03,0,.07,0,.16,0,.21-.09.06-.18-.04-.29-.11-.03.07-.09.14-.02.2h-.22c.16,0,.04.07.05.1v-.03c-.08,0-.1.06-.11.09.1,0,.19-.04.23-.06.04.03,0,.06.06.09-.13-.02-.2.05-.14.08,0,.04.17.03.17.04-.07,0,.03.05-.09.04-.04,0,.05-.04-.04-.05-.04.03-.16.04-.02.09.1.02.25-.07.23.01-.04,0-.1,0-.16,0,0,.03,0,.06,0,.09l.11-.04s-.03.02-.04.03c.13-.02.09.07.25.08.06.08.05.22.09.3h-.02c.01.11.1.23.21.29h-.02c.02.07.09.19.18.24-.02.18-.37.19-.18.3.04.14.26.17.31.09.01.29.26.58.11.86.05.04.07,0,.11.09,0,.41.17.89-.1,1.2-.03-.12-.11-.02-.17-.02.09.11-.12.1.05.16.1,0,.15.02.2-.09.04.25-.04.63-.17.73.06-.06.08,0,.1.06-.15-.06-.22.11-.2.26l.09.05-.13.05c.01.06.17.12.04.22-.04,0-.08-.01-.11,0,.02.16.09.41-.06.51l-.19.05c-.01.06.01.2.1.12-.2.2-.28.34-.44.35.02.53-.39,1.12-.85,1.45l-.04-.07c-.16.04.02.15-.09.18,0-.08-.18-.05-.15-.19-.2.08-.13.27-.23.37.04.09.06-.11.11,0,0,.04-.29.1-.24.24-.08-.02-.09-.13-.1-.2l-.07.13c-.21-.07.14-.45-.11-.54l-.08.08c-.16-.08.14-.29-.1-.2-.05.12-.04.36.08.36-.19.17.06.36-.21.48-.11-.05.21-.11.1-.2-.17-.05-.22.17-.35.18.14,0,.1.18.02.24-.16,0,.04-.17-.16-.1,0,.1-.18.2,0,.22-.02.2-.24,0-.32.18-.1-.11.14-.35-.1-.36.07.12-.24.24-.08.4-.1-.01-.13-.11-.08-.21-.14-.04-.28.29-.36.04l-.03.13s-.11-.07-.18-.13c-.11,0-.37.2-.36,0-.04.02-.3-.02-.2.13.16.1.19-.08.28.1-.12-.14-.24,0-.35.05v-.08c-.07.02-.2,0-.25.07.05-.04.03-.09-.01-.12l-.08.11c-.25.02-.03-.2-.25-.22.06-.01.12-.03.18-.06-.04.02-.09-.1-.2-.1-.06.09-.17.2-.23.27-.14.01-.02-.13-.18-.06l.2-.08s-.06-.2-.22-.24c-.11.01-.32.1-.18.21-.09-.02-.17-.14-.08-.18-.19-.04-.02.12-.2.11-.04-.09-.19-.27-.25-.42l.23-.09-.1-.05c.19-.07-.01-.13.12-.23-.05-.05-.15-.03-.23-.04.07.32-.36.17-.43.39-.3-.12.13-.55-.32-.43,0,.08-.21.13-.02.19-.14-.13-.23.1-.36-.12.18.03,0-.29.27-.24-.06.05.07.13.11.13,0-.12.14-.17,0-.28-.1-.05-.22-.15-.28-.04-.08.1.14.1,0,.15-.21-.11-.11-.28-.33-.18.12.09.07.2,0,.27-.06-.03-.12-.05-.17-.08l.08-.04c-.15-.24-.16.05-.34-.16l.03-.21c.15-.05.23.33.36.13-.11-.13-.24-.09-.31-.25.04.01.08.04.12.06-.04-.05.15-.3-.15-.35-.13-.05-.08.03-.15.08-.19-.2-.31-.21-.43-.35.15-.06-.16-.27.09-.2-.03.13.22.44.41.41.1-.2.11.19.31.09-.15-.15.03-.28.1-.39-.03-.05-.1-.06-.14-.07-.11.06-.06.11-.16.2-.11-.21-.31-.33-.47-.39,0-.1.13-.14.18-.07-.16-.22-.33-.47-.39-.73-.11.24-.16-.25-.27-.08.02.15-.06.33-.17.29-.03-.09.08-.03.1-.09-.15-.06.09-.24-.12-.27.17.22.24-.05.41-.07-.15-.13.11-.04.03-.2-.15-.13-.27-.32-.37-.51.06-.28-.13-.63-.17-.86.07-.13.25-.06.28-.19,0-.15-.19.12-.11-.1l.04.02c-.04-.07.1-.39-.13-.47l.18.08s-.02-.08-.03-.11c.06,0,.12-.04.16.03.15-.12,0-.27.02-.41l-.12.07c-.07-.27.12-.4.13-.64l.1.04-.02-.16c.09.07.2-.03.15-.12.02.14.08.29.14.42-.09.07-.1-.14-.22-.12-.11.02-.14.24-.04.3.03-.08.01-.08,0-.16.16.02.12.13.2.21,0-.04.07-.08.02-.1.06.1.03.17.02.3-.05-.1-.1.03-.14,0,.13.04.16.16.1.32-.18.1.07.31.04.48-.14-.07-.25-.17-.31-.29-.06.12,0,.14-.06.26.1.06.26.09.33.24l-.1.02c.06.14.22.12.22.29-.01.31.09.6.15.83l-.09.04c.24.05.25.37.4.49.06.3.39.5.35.72.37.38.73.65,1.13,1l-.16.06c.14-.02,0,.11.09.15-.02-.16.19-.04.3-.09.13.22.46.27.69.24l-.03.1c.25-.08.42.13.66.23.02.05.04.16.13.15.16-.15.23-.13.43-.21.14.02.36.02.52.08.48-.3,1.03-.34,1.4-.79l.1.08c.26-.51.84-.87.97-1.35l.16.14c.12-.11.11-.33-.04-.36.13-.1.07-.36.25-.39.09-.13-.02-.21,0-.33.14-.27.17-.38.17-.67l-.02.07s.13.06.15-.01c-.04-.11.1-.39-.15-.31.18-.29-.07-.68.07-.97-.06.03-.08-.04-.13-.06-.01-.25,0-.53-.14-.68.02-.05.13.02.1-.08-.05-.05-.08.03-.15-.02-.14-.15-.17-.34-.25-.52,0-.05-.14-.31-.27-.45-.12-.16-.24-.31-.39-.45l-.2-.19c-.06-.06-.18-.13-.08-.19l.35-.39.66-.75c.2-.28.4-.57.53-.88l.04.03c-.07-.27.39-.42.18-.68.06-.04.08-.18.16-.12-.07-.2.26-.46.13-.75,0,.02,0,.04.02.07.15-.24.03-.49.14-.76.02.03.03.08.08.09.1-.11-.2-.26.03-.32,0-.06-.12-.04-.11,0,.09-.62-.16-1.26-.44-1.81-.04-.46.36-.18.06-.44.03-.05-.09.02-.05,0-.12-.09.13-.31-.02-.35-.11.11-.1-.02-.18.02-.07-.28.02-.41-.21-.53l.07-.03c-.32-.09-.44-.39-.76-.37-.5-.48-1.09-.84-1.72-1.08-.31-.12-.63-.21-.95-.27l-.12-.03-.27-.03-.59-.06c-.44,0-.93.04-1.42.07-.82.05-1.64.09-2.45.14l1.97-1.69c.29-.27.65-.56.9-.82l.42-.65c.2-.43.3-.87.37-1.35.21-.29.19-.33.08-.65.03,0,.04.03.07,0-.17,0-.05-.23-.21-.23-.07-.46-.27-.84-.51-1.2.05.05.19,0,.13-.06h-.14s.03-.05.03-.05c-.05-.03-.15-.04-.16.04-.37-.39-.75-.71-1.25-.93-.49-.22-1.1-.31-1.69-.18-.29-.01-.67.18-.92.35-.9.18-1.73.8-1.88,1.73,0,0-.38-.24-.27-.7Z"/>
    <path class="cls-1" d="M34.13,49.88c-.09,0-.19.09-.24-.04.08.02.18,0,.24.04Z"/>
    <path class="cls-1" d="M33.35,53.36s0,.06-.02.08c-.02-.04-.11-.06-.08-.11.03.04.06.02.1.03Z"/>
    <path class="cls-1" d="M33.75,54.26c-.07.03-.23-.13-.3-.24l.3.24Z"/>
    <path class="cls-1" d="M34.05,55.21c0,.11-.04.11-.1.02.02-.03.06-.01.1-.02Z"/>
    <path class="cls-1" d="M34.22,55.15c.05.06.05.11.04.17.04-.04-.16-.11-.04-.17Z"/>
    <path class="cls-1" d="M35.7,56.65s.17.03.18.11c-.03-.07-.27-.04-.18-.11Z"/>
    <path class="cls-1" d="M36.68,56.95s.04.03.08.02c.05.05-.03.08-.08.07v-.1Z"/>
    <polygon class="cls-1" points="43.31 45.5 43.33 45.6 43.26 45.57 43.31 45.5"/>
    <path class="cls-1" d="M41.21,38.9c-.1-.03,0-.1-.01-.12.07.05-.08.05.01.12Z"/>
    <polygon class="cls-1" points="37.74 37.7 37.76 37.7 37.65 37.83 37.74 37.7"/>
  </g>
  <g>
    <path class="cls-1" d="M27.23,70.55c.19-.02-.08-.14.13-.04-.04.06-.08.1-.13.04Z"/>
    <path class="cls-1" d="M48.82,79.27c.4.66-.12,1.47-.15,2.19-.01.08-.19-.09-.21.1.04.76-.73,1.67-1.48,2.05v-.08c-.14.08-.15.35-.29.44-.03-.03,0-.08-.06-.09.05.12-.19.23-.2.34-.08,0-.13-.08-.23-.07v.16c-.05.42-.55.32-.81.61,0-.04.03-.07-.01-.09-.45.42-1.2.59-1.86.71.02-.05.04-.14,0-.19-.02.15-.22.2-.4.23-.08-.14-.31.14-.52.05l.02-.03c-.17.15-.22-.11-.37.07l-.09-.12c-.1.2-.21-.14-.35-.06v.04c-.13.03-.18-.08-.29-.08v-.03c-.28,0-.4-.16-.43,0-.05-.15.26.01.17-.21-.37-.03-.78-.14-1.09-.28-.32-.13-.6-.32-.87-.52-.03.07-.04.18-.07.27-.06,0-.09.05-.14,0,.02.13-.07.35-.03.47,0-.03-.08-.01-.11.03-.11.12.1.25-.03.36,0-.08-.05-.12-.11-.13.05.19-.06.35-.11.53-.01-.04,0-.08-.05-.1.04.24-.2.28-.22.47l-.04-.1c-.24.15.11.18-.07.33,0-.06-.03-.07-.06-.1.02.29-.28.51-.38.71,0-.02-.02-.03-.02-.03-.16.18-.38.31-.53.54-.1.02-.12-.19-.29-.02.12.14-.3.31-.06.4-.19.11-.54.21-.63.34.05-.11-.2-.15-.05-.25l-.17-.03c-.02-.08.13-.05.05-.11-.07.06-.26.22-.35.23-.1.16-.15.44-.4.54.1-.11-.14-.17-.07-.23l-.25.46c-.09.04-.06-.13-.17-.05.02.05-.03.09-.06.14-.04-.01-.37.13-.44-.04-.05-.06.14-.07.03-.11-.16.04-.16.1-.32.12v-.02c-.12-.01-.32.11-.19.2.08,0-.04-.11.08-.07-.07.11-.26.18-.44.18.06-.03.05-.08.07-.13-.22.14-.48.2-.75.24,0,.09.11-.15.14-.1-.32-.15-.72.11-.97-.14.05,0,0,.13,0,.1-.16-.05-.12-.17-.23-.15,0-.07-.14-.01-.25-.02-.07.03-.02-.04.08-.03-.15.01-.81-.09-1.05-.39-.02.05-.28.04-.36,0l.09-.08c-.03-.09-.24-.15-.19-.24-.23.03.63.27.37.23,0-.11-.38-.01-.25-.12-.13-.1-.34-.09-.4-.28.03.04.2-.04.1-.12-.19-.13-.09,0-.26-.09l-.12-.05c-.08.08-.14-.16-.16,0,.04-.08-.28-.21-.13-.32l.13-.08c-.08-.06-.23-.01-.32-.04,0-.02,0-.06.03-.07-.18.13-.13-.2-.34-.19-.08-.21-.3-.46-.23-.61-.14-.1-.29-.19-.32-.39.03.02.06.07.11.05,0-.13-.05-.13-.13-.21.04,0,.02-.26.04-.41-.11-.12-.21-.03-.28-.02.16-.21-.29-.39-.15-.62.04.05.18.19.18.05.17-.19-.22-.24-.18-.49l-.17.1c.09-.13-.18-.32,0-.33-.08-.07.02-.28-.15-.23.08-.4-.16-.96.16-1.19-.03-.06.02-.19-.08-.17-.11.09.06.13,0,.16,0-.05-.05-.06-.07-.07.05-.12.07-.21.21-.09.14-.25-.29-.3-.17-.64.07.03.1,0,.11-.1l-.09-.21c.07-.22.19-.09.31-.07,0-.14.04-.23-.05-.27.06-.02.12-.04.19-.08-.14.06-.06-.06-.08-.09l.02.03c.06-.02.05-.1.05-.14-.09.03-.15.11-.18.15-.05-.03-.02-.08-.08-.1.13-.01.13-.11.17-.15.05-.06-.11,0-.1-.01.08-.03.04-.07.14-.09.02,0-.09.07-.04.07.07-.05.21-.12.14-.14-.06-.01-.32.17-.18.04.03,0,.1-.04.15-.05.04-.05.09-.09.14-.14l-.16.09s.06-.04.08-.05c-.15.08.03-.09-.17.04,0-.01.16-.16.22-.21h.01c.15-.14.13-.14,0-.05l.05-.04s.04-.06-.07.03c.11-.1.68-.59.55-.49-.02.01-.04.03-.08.07-.1.06-.48.4-.58.49.01-.04-.34.24-.23.06-.06.06-.09.09-.14.13-.14,0-.31.21-.42,0,.05-.05,0-.11,0-.17-.09.1-.12-.1-.15.07.01.1,0,.15.12.19-.25.05-.64.08-.78-.04.07.05.01.08-.05.1.03-.16-.16-.2-.31-.16l-.03.1-.08-.11c-.06.03-.09.2-.22.07,0-.04,0-.08-.02-.11-.16.05-.41.14-.55.02l-.09-.18c-.07,0-.21.04-.1.12-.24-.17-.42-.23-.45-.38-.55.1-1.23-.21-1.67-.6l.06-.05c-.08-.14-.14.05-.2-.05.08-.03,0-.19.15-.18-.12-.19-.29-.09-.42-.16-.08.06.13.03.03.1-.04,0-.18-.26-.3-.18,0-.08.11-.12.17-.15-.05-.01-.1-.03-.15-.04,0-.23.48.04.5-.23l-.1-.06c.03-.18.34.08.17-.15-.14-.03-.36.02-.33.16-.2-.17-.34.14-.53-.1.01-.12.17.17.23.05,0-.18-.24-.17-.28-.3.04.14-.15.14-.22.08-.03-.17.17,0,.06-.19-.09.02-.26-.12-.21.06-.2.03-.09-.23-.28-.25.08-.13.39.03.32-.2-.1.11-.29-.18-.4.03-.01-.11.08-.16.18-.14.01-.16-.36-.21-.15-.35h-.14s.02-.12.07-.21c-.03-.11-.29-.32-.09-.37-.03-.03-.1-.3-.21-.16-.03.19.16.16,0,.31.11-.16-.09-.24-.17-.33l.07-.03c-.05-.05-.05-.2-.14-.22.05.04.1,0,.11-.05l-.13-.04c-.1-.24.19-.09.12-.32l.12.17s.07-.13.02-.24c-.12-.03-.25-.11-.33-.14-.05-.14.12-.07,0-.2l.13.17s.17-.13.17-.3c-.04-.11-.19-.3-.25-.11,0-.09.06-.22.14-.14-.03-.21-.12.02-.17-.16.08-.07.21-.28.33-.4l.15.2.02-.11c.12.16.12-.06.26.04.03-.07,0-.17-.04-.25-.28.18-.28-.31-.5-.3.03-.34.57-.06.32-.48-.07.04-.19-.17-.18.05.08-.19-.17-.2,0-.4.02.2.28-.1.31.19-.06-.04-.1.11-.1.15.11-.05.2.09.28-.1.02-.12.08-.27-.03-.29-.12-.04-.06.18-.15.06.05-.25.24-.21.08-.39-.06.15-.18.14-.26.1,0-.07.01-.13.03-.2l.06.07c.19-.24-.1-.15.06-.4l.21-.04c.09.13-.25.34-.02.4.09-.16.02-.27.15-.39,0,.04-.02.09-.02.14.04-.05.32.04.31-.26.01-.15-.05-.07-.12-.12.14-.26.12-.39.23-.55.11.13.23-.25.23.02-.15,0-.38.37-.3.54.23.02-.15.17,0,.33.13-.19.29-.07.42-.03.04-.04.03-.12.03-.16-.09-.09-.13-.02-.24-.09.16-.19.25-.42.26-.6.1-.03.18.07.12.16.16-.26.39-.47.62-.63-.27-.02.2-.25,0-.29-.14.07-.34.06-.33-.06.08-.06.06.07.12.07.02-.17.25,0,.24-.21-.18.22.11.22.17.37.1-.19.07.09.21-.02.1-.18.24-.39.41-.53.3-.03.59-.34.82-.44.15.02.14.22.27.19.15-.06-.18-.14.07-.14v.04c.05-.06.43-.02.43-.28l-.02.21s.07-.05.1-.08c.02.06.08.1.02.16.17.09.28-.08.43-.11l-.12-.09c.25-.15.44-.04.7-.09v.11s.15-.07.15-.07c-.04.11.1.16.18.09-.13.07-.26.19-.38.28-.11-.06.11-.14.04-.25-.06-.09-.3-.05-.32.06.09,0,.09-.02.16-.06.04.15-.09.15-.14.26.04,0,.11.04.11-.01-.08.07-.16.09-.3.13.09-.08-.07-.08-.04-.13,0,.14-.11.2-.29.2-.16-.13-.29.2-.49.21.03-.15.1-.29.21-.39-.15-.02-.14.05-.29.03-.03.12-.02.27-.15.4l-.05-.09c-.12.11-.06.25-.24.3-.31.11-.61.28-.81.43l-.07-.07c.02.25-.32.35-.39.56-.32.14-.39.57-.64.58-.26.51-.45.96-.67,1.48l-.1-.14c.06.13-.1.03-.12.14.15-.07.1.18.18.28-.19.21-.12.57-.03.79h-.1c.16.23,0,.48,0,.76-.04.04-.12.1-.1.18.2.12.16.21.34.38.05.14.07.4.09.57.43.44.68,1,1.25,1.3l-.05.12c.6.19,1.13.73,1.67.79l-.12.18c.14.11.38.06.38-.09.14.12.41,0,.47.19.16.07.21-.04.35-.06.31.1.43.11.76.05h-.08s-.04.12.04.13c.06-.03.17-.02.25-.03.1-.02.24-.1.11-.19.17-.01.36-.05.55-.1.1-.03.2-.06.3-.09.1-.03.19-.05.37-.17.63-.39,1.27-.79,1.64-.9.04-.1.38-.32.64-.52.56-.34,1.09-.63,1.48-.84.3-.16.59-.33,1.11-.7,0,0,0,0,.02,0-.21.21-.44.33-.61.55.03.02.4-.34.42-.31-.09.16-.3.42-.56.72-.31.35-.62.7-.94,1.06-.34.39-.69.78-1.01,1.15-.33.37-.49.59-.68.86-.16.23-.31.45-.47.67-.13.21-.14.36-.22.54l-.21.53c-.04.14-.04.2-.06.3-.08.36-.12.74-.1,1.1h-.05c.18.22-.16.58.15.74-.04.06,0,.22-.09.19.18.16-.01.57.25.78,0-.03-.02-.04-.05-.06-.02.31.22.48.26.79-.03-.02-.07-.06-.12-.05-.03.15.3.15.13.32.04.06.13-.02.1-.05.24.63.82,1.08,1.37,1.4.3.38-.2.35.22.4,0,.06.06-.07.04-.02.16,0,.07.36.23.28.02-.15.1-.05.14-.13.23.19.25.36.51.31l-.04.07c.17-.07.31-.06.46-.05.15-.01.29-.03.41-.14,1.46.09,2.87-.6,3.87-1.55.39-.31.69-.71.93-1.13l.16-.32c.07-.18.16-.55.23-.81.17-.56.29-1.2.44-1.8.74.53,1.69,1.25,2.28,1.56.23.31.27.32.65.35-.02.03-.05.03-.03.06.06-.15.26.05.33-.1.51.14,1.02.14,1.56.1-.08.02-.12.16-.02.14l.1-.11.02.04c.07-.03.13-.12.06-.17.66-.14,1.29-.29,1.9-.55.6-.26,1.16-.66,1.57-1.21.26-.21.45-.65.57-.97.64-.82,1.03-1.87.74-2.93,0,0,.45.08.56.58Z"/>
    <path class="cls-1" d="M27,70.54c-.03-.09-.17-.14-.05-.24,0,.08.07.17.05.24Z"/>
    <path class="cls-1" d="M23.19,70.98s-.07.01-.09,0c.04-.04.03-.12.09-.11-.04.04,0,.06,0,.1Z"/>
    <path class="cls-1" d="M22.39,71.67c-.05-.06.06-.28.16-.37-.06.12-.12.24-.16.37Z"/>
    <path class="cls-1" d="M21.54,72.29c-.1.04-.12,0-.05-.1.04.01.03.06.05.1Z"/>
    <path class="cls-1" d="M21.64,72.44c-.04.07-.11.08-.16.1.05.03.07-.19.16-.1Z"/>
    <path class="cls-1" d="M20.59,74.45c0,.06.04.19-.05.23.06-.05-.05-.29.05-.23Z"/>
    <path class="cls-1" d="M20.61,75.54s-.02.05,0,.09c-.03.06-.09,0-.09-.06l.09-.03Z"/>
    <polygon class="cls-1" points="27.78 84.88 27.72 84.79 27.8 84.78 27.78 84.88"/>
    <path class="cls-1" d="M33.49,89.48c.11-.05.08.07.1.08-.1,0,.03-.09-.1-.08Z"/>
    <polygon class="cls-1" points="37.19 87.78 37.17 87.8 37.09 87.67 37.19 87.78"/>
  </g>
</svg>