<?xml version="1.0" encoding="UTF-8"?>
<svg id="Capa_1" data-name="Capa 1" xmlns="http://www.w3.org/2000/svg" viewBox="0 0 157.35 61.15">
  <defs>
    <style>
      .cls-1 {
        fill: #3c4f69;
      }
    </style>
  </defs>
  <g>
    <path class="cls-1" d="M33.23,43.92c.06-.15-.06-.42-.29-.31l-.06.52.34-.22Z"/>
    <path class="cls-1" d="M31.39,43.42c-.23.31-.44.8-.15,1.19.16-.53.27-.36.44-.98.23-.12.46.05.46.24.05-.14.4.02.46-.32-.4-.3-.81-.22-1.14.19-.12-.08-.06-.23-.06-.32Z"/>
    <path class="cls-1" d="M21.75,60.29l-.12-.14c.02.05.07.1.12.14Z"/>
    <path class="cls-1" d="M34.38,53.17c-.03.12,0,.18.05.2,0-.12,0-.22-.05-.2Z"/>
    <path class="cls-1" d="M35.59,50.68c-.02.05-.04.1-.07.15.06-.05.1-.11.07-.15Z"/>
    <path class="cls-1" d="M21.75,60.29c.11.11.23.22.35.33.09-.14-.17-.2-.35-.33Z"/>
    <path class="cls-1" d="M28.56,45.48c.07-.05.12-.12.16-.19-.06.04-.11.08-.17.11,0,.03,0,.05.01.08Z"/>
    <path class="cls-1" d="M18.02,54.09v-.14c-.06-.04-.12-.08-.2-.12.06.09.13.18.2.26Z"/>
    <path class="cls-1" d="M19.63,48.66c-.09.1.25.36.38.5-.11-.15-.13-.28-.1-.38-.07-.05-.16-.09-.28-.12Z"/>
    <path class="cls-1" d="M26.92,44.25l.12-.11s-.08.07-.12.11Z"/>
    <path class="cls-1" d="M18.92,58.21s-.09.09-.1.13c.05-.03.08-.07.1-.13Z"/>
    <path class="cls-1" d="M1.01,20.14s.05,0,.07.01c-.04-.04-.06-.05-.07-.01Z"/>
    <path class="cls-1" d="M4.52,14.79v.09c.07.03.14.07.22.09l-.22-.18Z"/>
    <path class="cls-1" d="M36.83,45.96s0,.01-.01.02c.03.13.03.06.01-.02Z"/>
    <path class="cls-1" d="M30.45,2.25c.31.02.01.37-.2.67-.22.31-.36.56.03.54-.03-.08.17-.42.32-.73.15-.31.25-.6-.16-.47Z"/>
    <path class="cls-1" d="M28.42,45.47c-.06.03-.12.05-.19.07.09-.02.15-.04.19-.07Z"/>
    <path class="cls-1" d="M30.29,3.46h0s.08,0,.08,0c-.03,0-.05,0-.08,0Z"/>
    <path class="cls-1" d="M37.6,35.03c-.08.02-.13.06-.19.1.04,0,.1-.02.19-.1Z"/>
    <path class="cls-1" d="M36.3,43.1l.08-.19c-.05.08-.07.14-.08.19Z"/>
    <path class="cls-1" d="M37.19,30.75c.04-.11.09-.15.04-.3-.02.01-.04.03-.05.04.06.06.08.13.01.25Z"/>
    <path class="cls-1" d="M37.18,26.32s-.05.06-.08.08c0,.04.02.09.03.14l.06-.22Z"/>
    <path class="cls-1" d="M1.11,33.98c.1-.12.22-.2.34-.27-.28.12-.5-.53-.34.27Z"/>
    <path class="cls-1" d="M28.48,45.26c.01.11,0,.17-.06.21.04-.02.08-.04.12-.07,0-.06-.02-.12-.06-.15Z"/>
    <path class="cls-1" d="M33.87,30.5l.08-.68c-.04.19-.07.44-.08.68Z"/>
    <path class="cls-1" d="M20.24,31.25v.17c.03-.06.03-.12,0-.17Z"/>
    <path class="cls-1" d="M33.88,27.81c.15-.12.24-.25.29-.39-.03-.03-.06-.06-.11-.08l-.18.46Z"/>
    <path class="cls-1" d="M1.45,33.71h0s0,0,0,0Z"/>
    <path class="cls-1" d="M0,29.05c.02.7.56.3.88.43.2.81-.39.4-.66.7.19.51.73.86.74,1.24-.09.04-.11.11-.24.04.48.49.21,1.61.85,2.15-.04.05-.08.08-.12.1.26-.14.53-.2.74-.21.06.3.44.49.1.67-.02-.18-.17-.18-.29-.24l.21.29c-.47.37-.25-.4-.63-.34.27.59.81,1.22.78,1.71-.48.2-.4-1.06-.71-.35,0-.25.04-.51.06-.77-.7.7-.02-.46-.78.21.03,1.01.47,1.04.52,2.04.33.15.39-.16.72-.01.83,1.21-.99,1.39-.04,2.21.41.17,1.04.06.94.87l-.63-.07c.28,1.01.95.28,1,1.4-.29-.08-.48-.67-.49-.5-.16.83.5.33.71.81l-.41.32c.58.97,1.53,1.84,2.53,2.66-.15.06-.44,0-.32.34.71.5,1.47,1.09,2.47,1.5,1,.42,2.19.53,3.24.35.21-.23.39-.46.53-.7.15-.07.37.03.25.19.74-.23-.1-.26.11-.58.31-.23.57-.08.44.17.42-.51.87-1.2,1.27-1.81.41-.61.79-1.15,1.3-1.42v.24c.6-.55-.25-1.25.49-1.61v.16c1.08-1.34,1.53-3.18,2.64-4.09-.48-.47.9-1.44.1-1.86.75-.73.8-.43,1.51-1.6.15-.33-.37-.68-.32-1.12l.45.13-.29-.71.62-.15v-.43c-.07.15-.3.28-.42.21-.02-.67.73-1.41.96-1.36v-1.56c.18.08.18.34.24.56-.26-.89.51-.02.27-.84-.13.07-.25-.12-.34-.16.36-.29.56-1.09.59-1.71l.28.19c.34-1.05.39-2.3.68-3.48-.25.39-.76.16-.73-.2l.51-.02c-.24-.3-.27.32-.51-.23.16-.43.61-.17.7.13l-.03-.58c.15,0,.19.15.37.23-.24-.29.71-.8.28-1.25h.15c.31-1.16.29-1.73.53-2.67-.4-.14-.2-.47-.44-.85.34-.65.9-1.3,1.15-2.11.01-.63-.27-.29-.41-.63.37.09.64-.71.74-.2.32-.96.41-1.22.68-2.51-.2.05-.33.17-.41.04.04-.25.39-.4.53-.29v.07c.07-.77.74-1.36,1.36-1.87.32-.24.62-.49.85-.74.24-.24.4-.51.41-.85v.07c.11-.39.28-.74.43-1.13.4-.34,0,.43.43.31.07-.32.29-.6.36-.72.05-.08.12-.13.19-.15.16-.06.22-.02.38-.41.04.34.04.52.06.58,0,.13.03.13.07.15.05.01.11.04.14.11.04.1-.04.06-.1.42l.22-.16c.35.17-.01.38,0,.6.18-.1.11-.38.31-.27,1.25,2.14,1.29,4.88,1.57,7.33.11.9,1.46.23,1.06,1.49l-.55-.23c.46.85.58,1.8.72,2.73.08.95.17,1.88.5,2.77-.12-.1-.27-.09-.28-.27-.33.41.08,1.42.38,1.41-.01.29-.26.08-.4.27-.19.4.53.94.18,1.17-.06.04-.12-.1-.15-.17.18.24,0,1.18.4.92-.18.7.23,1.32,0,1.87.46.36-.22,1.18.43,1.3-.68-.05-.54,1.21-.24,1.65-.2-.15-.22.38-.5.2,0,.5.11.96.46.88-.83.89.58,1.89-.49,2.36.3,1.5.43,2.91.49,4.27-.67-.1.04-1.49-.67-1.49.19,1.29.7,2.08.42,3.33-.12.32-.28-.21-.38-.33.17,1.3-.31,2.45-.06,3.63-.06-.01-.12-.14-.16-.26,0,.23-.16.51.15.52l-.06-.23c.48-.31.82.99,1.05,1.06-.83-.48-.35,1.1-1.39.37.04.15.16.36.37.35-.08.21-.21.27-.42.02.07.82.43.58.34,1.3-.15-.02-.19-.17-.35-.27.24.4.49.8.28,1.39-.08-.05-.21,0-.18-.17-.09,1.04.52,1.88.02,2.95-.57-.45-.29.33-.85.27l.03.61.32-.17c-.13.5.14,1.06-.17,1.44l-.11-.44c-.06.32-.12.64-.19.96.13-.15.25-.3.38-.46.11.6.7.17.32.79,0-.16-.19.51-.61.64h0c.07.31.12.64-.18.93-.2.01-.52-.35-.65-.34.31.44-.45,1.1-.23,1.63-.03-.15-.28-.32-.35-.33l.19.39c-.24.13-.3.12-.47-.05-.48.5.71.26-.06.72.02-.07-.04-.08,0-.23-.63.52-.96,1.35-1.73,1.64-.49-.34.45-.5-.03-.74-.73.7-1.59,1.74-2.69,1.85l.21.02c.03.4-.21.36-.48.26-.28-.12-.58-.26-.83-.07.13-.06.13-.45.11-.36-.67-.09-1.36.24-2.46.07l.2-.14c-.29-.32-.89-.54-1.13-.91-.22.08-.4-.11-.49.21-.08-.9-.49-1.23-.93-1.75-.39-.5-.79-1.15-.34-1.82.02.15.22.32.2.21-.11-.33-.18-.67-.24-1.03-.35.08-.21.13-.48.37-.2-.14-.38-.47-.35-.77.18.54.56.02.77-.16-.11.03-.22-.06-.33-.05.67-.5-.69-.19-.14-.95l.17.08c-.04-.32-.18-.65-.04-.97.42-.01.09.37.41.48.08-.42-.44-1.12.1-1.36,0,.22-.07.49-.04.71.59-.26.49-.33.7-.6l-.02.02c.16-.19.33-.38.52-.55l-.2.1c-.32-.48-.23-.79-.04-1.04.18-.27.41-.5.42-1.02,0,1,.2.34.5.68.22-.06.49-.16.53-.01,0-.5.58-.19.61-.9.11.1.29-.23.46.11.28-.36-.24-.14-.33-.3.12-.41.55-.56,1.01-.7.45-.15.92-.3,1.22-.84.68-.66.64-1.17,1.37-1.74.36.11-.03.59-.03.59.52.03.83-.14,1.2-.44-.04.15.08.22.26.33.32-.15.06-.59.57-.52-.03.18-.05.46-.16.67.35-.25.67-.64,1.05-.88.18.21-.15.44-.24.65.43-.25,1.15-.56,1.2-.99l-.34-.06c.17-.07.18.31.07.42-.32.41-.62.03-.69-.11l.28-.18c-.55-.74-1.18.48-1.78.64l.05-.68-.45.7c-.18-.11-.39-.41-.12-.6-.54-.14-.31.35-.8.16-.06-.03-.05-.07-.02-.11l-.35.34c.03-.16-.24-.38.06-.4-.91-.02-1.02.96-1.5.66l.05-.06c-.92.71.1.46-.38,1.32-.34-.24-.69-.47-1.06-.69l.14.45c-.11.05-.32.15-.38-.03-.2.5.17.13.12.51-.72-.04-1.1,1.06-1.67.6.08.39.59-.15.29.43-.66-.47-.42.56-1.02.68-.2-.4.33-.61-.31-.48.14.36-.05.53-.32.68-.26.15-.57.31-.65.53.43.31-.34.96-.48,1.74-.17-.13-.8,1.22-1.1,1.92l-.09-.04c.5.24.29.94.38,1.48-.33-.04-.45-.14-.57-.45l-.04.53c.18.13.27.29.34.63l-.41-.12c.04.74.58,1.36.58,2.29.37-.1.82-.91,1.33-.22-.19.1-.51.25-.67.06.05.07.25.2.22.37l-.45-.22c0,.43.34.1.42.39-.28.11-.09.3-.32.35-.06-.07-.02-.3-.16-.38.08.36.15.84.02,1.1.13-.11.34-.19.53.01.42.58-.16.41-.02.86.28,0,.45.51.77.21.14.16.03.33.02.47.22.05.56.35.89.48.32.14.56.19.5-.12l-.06-.07s.04,0,.06.01h0s0,0,0,0c.61.11,1.12.36,1.68.61.56.21,1.17.41,1.75.28v.15c.69-.17,1.52-.29,1.9-.72.18-.06.52.11.5.31.47-.27.44-.45,1.22-.54-.36.47.27.14-.41.4.67-.16.96-.03,1.38-.77-.02.46.72.12.91-.19l-.55.07c.26-.27.55-.42.82-.61l.18.5c.77-.25,1.11-.93,1.33-1.55.25-.62.39-1.12,1.11-1.33-.1-.5-.61.52-.78.02.39-.48,1.34-.73,1.44-.93.64-.7-.3-1.05.2-1.81-.21.05-.68-.03-.62-.69.25-.54.94-.48.96-.06-.03.15-.11.2-.16.17,0,.21-.03.49.24.32l-.14-.14c.27-.24.51-1.07.73-.8-.03-.51-.23-.27-.41.03.47-.7.34-1.2.67-1.96-.12.11-.35.18-.32.05.45-1.12-.22-.58-.16-1.36.34-.4.61.27.52-.56.25-.45.48-.03.6.19-.23-.77.42-1.32.53-1.72l.09.4c-.06-.24-.03-.42,0-.61l-.38.17c.09-.21.12-.4.26-.38-.2-.25-.61.1-.87-.39.22-.27-.09-.91.39-.95-.26.9.48-.05.47.74-.04-.16-.02-.34.07-.55.06-.03.09.04.11.11.52-.83-.48-.46-.37-1.37.25.15.53-.15.49-.31-.05.37-.46.12-.63-.23.27-.56-.08-.65-.03-.95l-.13.34c-.25-.15-.19-.43-.23-.85.21-.01.1.38.21.25-.42-.5.59-.97.34-1.63.21-.27.5.02.65-.22-.28-.74.43-.73.22-1.5-.38.18-.29.23-.59-.33l.14,1.24-.45-.83c-.04.37.15.8.07,1.01-.26-.4-.17-.35-.48-.21.58-.45-.22-1.02.19-1.57l.88.09c.48-.84-.33-1.6-.02-2.72l-.18.36c-.34-.18,0-.71-.11-1.09.29.05.41-.17.61-.32-.22,0,.06-.84-.52-.97l.42-.49c.21-.92-.79-1.09-.66-1.97.31.28.54-.12.75.49.01-.3.07-.56-.13-.58.19-.17-.38-.83-.09-1.1-.13-.13-.44-.17-.4-.51.06-.04.15,0,.15,0-.14,0-.2-.52-.53-.24.92-.91-.05-2.54.7-3.35-.12-.65-.24-1.43-.28-2.01.09.03.15,0,.12.11.22-.83-.88-.45-.64-1.39.45-.5.29.47.45.17.96-.2-.2-1.11.31-1.78l.07.15c.28-.51-.49-1.13-.51-1.91,0,0,.09.03.15-.01-.54-.48-.86-1.44-1.11-2.16.41.17.25.3.61.1-.11-.32-.6.19-.81-.45.17-.25.28-.76.67-.89l.12.62c.48-.41-.15-.81-.13-1.16h.24c-.27-.95-.85-.84-1.02-1.87l-.15.15c-.69-.42.2-.54-.36-.99l.53-.31c-.24-.33-.87-1.14-1.18-1.74.55.23.95.95,1.33,1.36-.09-.37-.36-1.23-.71-1.34.1.13.28.27.24.44-.55-.32-.98-.82-1.19-1.52.57-.12.48-.6.34-1.16-.14-.56-.4-1.17-.08-1.59-.23-.28-.38-.55-.52-.89-.17-.45-.39-.95-.59-1.45-.41-1.01-.86-2.21-1.45-3.3.03,1.02-.06.85-.17.65-.02-.1-.09.02-.14.05-.06.05-.11.11-.16.18-.1.15-.18.34-.22.64-.39.34-.53.41-.56.36-.38.03-.8.11-1.27.25-.39-.04.37-.53.31-.73-1.06.7-.52-.09-1.38.24.28.21-.19.68-.85,1.14.37-.16.72-.27,1.05-.34-.3.37-.51.59-.72.73-.23.16-.38.17-.54.19-.32.04-.66.09-.88.7l.05-.48c-.32.56-1.53,1.75-1.25,2.67-.15.03-.43,0-.33-.26-.98,1.14-1.01,3.11-1.87,3.87l-.16-.19c-.05.27.19.59-.16.8-.08-.05-.16-.19-.22-.08,0,.16.09.79-.17,1.06l-.12-.37c-.81,1.16-.19,2.17-.4,3.26-.63-.21-1.16.73-1.41,1.2l-.08-.04c-.52,1.48-.19,2.69-.28,4.11-.91.68-.99,2.81-1.7,4.06.17-.18.49.15.5.41-.21.28.23.98-.34.79l.04-.11c-.64.1-.64.78-.78,1.28l.75.28c-1.44,1.02-.51,3.54-1.73,3.94.1.37-.03.75.05,1.11l-.4-.15c-.38.8-.58,1.19-.88,2.23l-.2-.31c-.25.54.84,1.17.64,1.71l-.65-.1c-.44.98-1.39,1.65-1.43,2.81-.07-.06-.21-.18-.15-.34-.25.43-1.36,1.32-.55,1.68-.46-.3-.67.82-.83,1.42l-.27-.33c.12.68.22.81-.12,1.36-.15.06-.32-.16-.11-.21-.49.15-.01.57-.6.71,0-.11.01-.22.01-.33-.37.22-.26.3-.35.69-.2.3-.86.12-.91-.26-.01.21-.26.57-.51.4-.01-.15.09-.22.13-.26-.29-.18-.53-.13-.79-.14-.26,0-.52-.06-.61-.38.07-.12.09-.19.08-.25.45.37.83.52.78.54.12-.37-.13-.57.31-.94-.08.04-.18.1-.3.15-.12.03-.26.06-.41.07-.29,0-.58-.11-.68-.34.01-.04.02-.08.05-.13h.07c-.05-.09-.13-.15-.24-.18-.05-.15-.08-.25-.16-.38.21-.23-.19-.55-.31-.79-.35.24-.47-.1-.6.37,0-.05.07.02.18.16.03.03.06.06.1.07h-.04c.1.15.25.33.41.52-.29-.03-.59-.11-.55-.5-.31.03-.63.04-.79.02.28-.65.27-1.44.56-1.67-.28-.33-.48-.75-.72-1.17-.24-.44-.54-.82-1-1-.17-.23.14-.35.24-.48.11.13.15.3.28.35-.33-.45-.45-1.47-1.03-1.47.11-.7.57.25.3-.62l.19.08c.24-.95-.22-1.58-.66-2.27-.42-.69-.83-1.44-.34-2.48-.06.14-.08.21-.17.25.29-2.26-.7-4.68.28-6.87.21-.61-.12-.71-.35-1.13l.46-.09c-.15-.24-.3-.48-.44-.72-.25-1.01,1.33-1.43.85-2.71l-.33.09c.13-.41.12-1.37.44-1.22-.04-.05-.28-.21-.09-.34l.23.04c-.05-.37-.08-.74-.12-1.12.39-.74.86.37,1.24-.74.04-.43-.28-1.4-.48-1.29-.06.17-.28.39-.51.33v-.43c-.64-.29-1.21-.84-1.99.01l.19.82-.39.13.16-.6c-.41.24-.21.54-.09.83-.19,0-.34.07-.44.2l.46.87c-.29.02-.44-.45-.71-.02.21.4.67-.16.73.43-.39.26-.62.11-.44.57-.19.02-.28-.09-.32-.27.13.41-.13.97.2,1.23-.45.28-.13,1.23-.77,1.08.13.14.4.72.38,1.06-.69-.73-.23,1.24-1.04.97.66.54.13,1.69.48,2.52-.05-.05-.16-.14-.12-.21-.09.45-.31.57-.47.86.59.09.7.8,1.05,1.18-.58.54-.68-.35-1.23-.19.47-.01.45.98.86.79-.35.42-.17.36-.65.59.74.07.13.4.58.74-.34.62-.68.18-.43.85-.21.34-.5-.26-.5-.26ZM5.86,44.31h0c-.12-.1-.23-.18-.28-.24.05.05.14.12.29.24ZM7.11,45.26c-.15-.12-.37-.24-.57-.4.05-.15.18-.23.3-.14-.13.03.13.3.27.53ZM7.18,41.36c.15.1.11.19.06.26-.05-.06-.12-.12-.21-.21-.02,0-.04,0-.05.01.08-.03.15-.06.21-.07Z"/>
    <path class="cls-1" d="M6.55,41.41s-.05-.02-.07-.04c-.01.05-.02.1-.02.14.05,0,.1-.01.15-.02l-.06-.08Z"/>
    <path class="cls-1" d="M21.6,60.12l.02.02s-.03-.05-.02-.09c0,.03,0,.04,0,.06Z"/>
    <polygon class="cls-1" points="20.02 32.73 19.92 32.7 19.97 32.84 20.02 32.73"/>
    <path class="cls-1" d="M19.98,53.5s.08-.03.11-.07c-.03,0-.07.03-.11.07Z"/>
    <path class="cls-1" d="M20.81,50.84l.3-.29c-.15.11-.24.21-.3.29Z"/>
    <path class="cls-1" d="M22.1,49.19c-.04-.07-.08-.11-.11-.15h0s.12.15.12.15Z"/>
    <path class="cls-1" d="M33.48,42.96s0-.06,0-.09c-.06-.22-.04-.07,0,.09Z"/>
    <path class="cls-1" d="M32.41,53.89c-.03-.14-.05-.27-.05-.39-.1.16-.17.29.05.39Z"/>
    <polygon class="cls-1" points="33.86 30.58 33.86 30.58 33.87 30.5 33.86 30.58"/>
    <path class="cls-1" d="M32.53,53.03c-.14.15-.18.3-.18.46.08-.13.18-.29.18-.46Z"/>
    <path class="cls-1" d="M30.52,44.93h.11s0-.06,0-.08l-.11.08Z"/>
    <path class="cls-1" d="M30.63,44.85l.11-.08c-.06.01-.1.03-.11.08Z"/>
    <path class="cls-1" d="M30.96,44.6l-.23.17c.09-.02.2-.04.23-.17Z"/>
    <path class="cls-1" d="M27.58,45.66l.02.16s0-.09-.02-.16Z"/>
    <path class="cls-1" d="M26.76,46.04c.22-.05.62.09.86-.1l-.02-.12c-.05.26-.76-.1-.85.22Z"/>
    <path class="cls-1" d="M22.4,46.38c.25-.13.49-.28.75-.4-.21-.05-.51-.12-.2-.37-1.17.23.38.16-.55.77Z"/>
    <path class="cls-1" d="M20.31,48.07c.26-.42-.19-.15-.24-.22-.08.34-.08.42.24.22Z"/>
    <path class="cls-1" d="M27.65,60.77l.08.38c.35-.17-.05-.14-.08-.38Z"/>
    <path class="cls-1" d="M29.59,57.36h-.37s.11.36.11.36c.09-.11.17-.24.25-.36Z"/>
    <polygon class="cls-1" points="33.01 57.62 32.96 57.79 33.21 57.19 33.01 57.62"/>
    <path class="cls-1" d="M37.58,27.11l-.47.11c.08.23.62.27.47-.11Z"/>
    <path class="cls-1" d="M35.62,13.98c.21-.19.26-.6-.03-.77.05.3-.06.63.03.77Z"/>
    <polygon class="cls-1" points="17.31 28.37 17.22 28.08 17.23 28.59 17.31 28.37"/>
  </g>
  <g>
    <path class="cls-1" d="M80.36,29.23c.03-.14-.06-.42-.19-.33v.51s.19-.17.19-.17Z"/>
    <path class="cls-1" d="M79.21,28.52c-.12.27-.23.72-.03,1.15.07-.5.15-.31.22-.91.13-.09.28.11.29.29.03-.14.24.06.26-.26-.26-.34-.5-.31-.69.05-.07-.1-.05-.23-.05-.33Z"/>
    <path class="cls-1" d="M65.4,30.5l.05.05s-.02-.05-.05-.05Z"/>
    <path class="cls-1" d="M62.78,29.9s.1-.01.2-.05c-.05,0-.09,0-.2.05Z"/>
    <path class="cls-1" d="M64.4,29.01s-.06.03-.08.04c.09-.03.15-.05.08-.04Z"/>
    <path class="cls-1" d="M65.4,30.5s-.07-.09-.09-.14c-.09.18.03.12.09.14Z"/>
    <path class="cls-1" d="M77.51,30.08s.08-.09.1-.15c-.04.03-.07.05-.11.08,0,.03,0,.05,0,.08Z"/>
    <path class="cls-1" d="M68.77,29.41h.07c0-.07.02-.15.02-.22l-.09.22Z"/>
    <path class="cls-1" d="M71.7,28.75c-.07,0-.01.41,0,.6,0-.18.04-.27.09-.31-.01-.08-.04-.17-.09-.29Z"/>
    <path class="cls-1" d="M76.52,28.54l.07-.07s-.05.05-.07.07Z"/>
    <path class="cls-1" d="M66.65,29.74c-.02-.06-.04-.11-.06-.14.01.05.03.1.06.14Z"/>
    <path class="cls-1" d="M72.47,35.57s-.04.02-.07.04c.05,0,.07-.01.07-.04Z"/>
    <polygon class="cls-1" points="72.37 39.57 72.33 39.54 72.12 39.66 72.37 39.57"/>
    <path class="cls-1" d="M65.65,28.46h0s.04.02,0,0Z"/>
    <path class="cls-1" d="M75.39,4.75c-.25.44-.63-.38-.87.24.14-.11.77.26.87-.24Z"/>
    <path class="cls-1" d="M77.43,30.04s-.08.02-.12.03c.06,0,.09,0,.12-.03Z"/>
    <path class="cls-1" d="M74.52,4.99h0s-.02.06-.02.06c.01-.03.02-.04.03-.06Z"/>
    <path class="cls-1" d="M69.17,23.88c-.07-.03-.13-.05-.19-.06.04.02.09.04.19.06Z"/>
    <path class="cls-1" d="M65.6,27.25l.12-.05c-.06.01-.1.03-.12.05Z"/>
    <path class="cls-1" d="M70.18,21.45c.06-.04.12-.02.13-.13-.02,0-.04,0-.06,0,.03.06.03.11-.07.14Z"/>
    <path class="cls-1" d="M71.6,19.21s-.07,0-.1,0l-.02.08.12-.08Z"/>
    <path class="cls-1" d="M69.31,28.76c-.1.09-.21.16-.32.23.27-.13.48.18.32-.23Z"/>
    <path class="cls-1" d="M77.46,29.85c0,.11,0,.16-.04.19.03-.01.05-.02.08-.04,0-.06-.02-.12-.04-.15Z"/>
    <path class="cls-1" d="M67.48,19.5l.27-.29c-.09.07-.19.17-.27.29Z"/>
    <path class="cls-1" d="M66.84,11.24l.05.09s0-.07-.05-.09Z"/>
    <path class="cls-1" d="M68.31,18.22c.16.02.27,0,.36-.03-.02-.03-.03-.06-.07-.09l-.29.13Z"/>
    <path class="cls-1" d="M68.98,28.99h0s0,0,0,0Z"/>
    <path class="cls-1" d="M70.82,31.07c-.13-.35-.57.04-.9.09-.3-.36.31-.34.52-.59-.23-.21-.78-.23-.84-.43.08-.05.1-.1.22-.09-.51-.13-.33-.81-.96-.96.04-.04.08-.07.12-.09-.25.14-.51.24-.7.3-.06-.16-.43-.19-.11-.37.02.1.16.07.29.08l-.2-.12c.44-.32.25.18.61.05-.27-.27-.8-.53-.74-.83.47-.21.35.54.68.07l-.06.45c.67-.55.02.25.75-.29-.02-.55-.43-.49-.45-1.04-.31-.03-.39.16-.7.13-.71-.6,1.07-.93.26-1.29-.37-.05-1,.06-.78-.41h.59c-.08-.53-.89-.09-.64-.72.24.04.29.35.33.26.35-.45-.38-.16-.44-.43l.48-.17c-.2-.52-.69-1.04-.92-1.62.15,0,.33.08.46-.1-.38-.71-.24-1.64-.04-2.42l-.47-.22c0-.07.18-.15.27-.09.13-.31-.28.02-.47-.09-.05-.16.22-.25.37-.16-.44-.45-.99-1.36-.56-1.95l.14.09c.14-.43-.94-.4-.57-.83l.08.07c.1-.93-.31-1.94.31-2.65-.64-.12.28-.91-.6-.96.44-.53.6-.37.89-1.1.04-.19-.54-.31-.62-.55h.46s-.47-.34-.47-.34l.56-.15-.11-.23c-.03.09-.22.18-.35.16-.19-.37.37-.85.6-.84-.12-.29-.22-.57-.32-.87.18.03.23.18.34.3-.43-.48.49-.04.1-.48-.11.05-.27-.05-.36-.07.3-.18.34-.64.26-.99l.31.1c.14-.6.03-1.31.12-2-.18.22-.72.08-.74-.13h.49c-.28-.18-.21.18-.54-.15.09-.25.57-.08.71.09l-.12-.34c.15,0,.21.09.39.14-.28-.19.57-.42.09-.67l.15.02c.13-.55.04-.79.15-1.08-.37-.2-.23-.27-.46-.54.28-.17.64-.03.78-.15.04-.26-.12-.34-.15-.61.17.34.4.23.36.53.26-.13.31-.19.84-.46-.04-.17-.11-.23-.06-.36.12-.06.23.19.18.37l-.03.04c.35-.25.69.14.85.51.19.38.25.68.66.52h-.04c.21,0,.41.02.63.05.07.21-.29.09-.39.36.37-.05.5.2.54.4.05.21.06.41.33.57-.47.36-.38.62-.25.95.12.33.27.73-.09,1l.27-.03c.27.14-.15.17-.22.27.21,0,.24-.15.39-.06.32,1.29-.72,2.61-1.33,3.85-.22.46,1.22.7.41,1.12l-.41-.34c.12.59-.07,1.1-.3,1.58-.21.49-.45.96-.46,1.54-.08-.11-.21-.17-.16-.26-.42.04-.36.72-.1.86-.1.13-.25-.09-.43-.07-.29.09.14.7-.23.63-.06-.01-.07-.11-.08-.16.08.21-.36.56.07.65-.35.25-.22.75-.59.89.29.42-.54.46-.02.87-.55-.38-.84.28-.72.67-.12-.18-.3.06-.48-.18-.15.24-.19.53.12.69-.97-.04-.1,1.25-1.11.88-.22.9-.52,1.69-.89,2.4-.5-.45.5-.71-.09-1.13-.23.75-.07,1.44-.67,1.91-.19.09-.15-.27-.2-.4-.27.75-.98,1.04-1.15,1.78-.05-.04-.05-.14-.04-.23-.07.11-.28.16-.04.35l.02-.15c.47.15.35,1,.49,1.2-.47-.79-.77.52-1.38-.47-.05.14-.04.35.17.42-.19.11-.36.12-.42-.16-.39.66.15.57-.32,1.04-.17-.04-.14-.15-.28-.26.06.36.21.62-.32.99-.1-.03-.3.01-.18-.11-.32.36-.32.65-.35.9-.04.26-.08.46-.67.86-.99.08-.63.34-1.77.69-.04.12-.07.23-.1.34l.72-.34c-.39.38.23.34-.45.76-.1-.01-.19-.03-.27-.05l-.39.55.85-.55c.37.04,1.68-.69.96-.18-.07,0-.26.25-1.27.79h0c.31-.06.7-.18.12.2-.55.3-1.67.79-2.03.99,1.15-.49-.42.61.91-.02-.3.14-1.19.61-1.39.73l.79-.38.28-.14c-.1.07-.18.13-.25.17-.05.04-.11.07-.18.12-.15.09-.36.21-.72.4.41-.01,1.86-1.1,1.66-.75-.14.06-.27.14-.54.26.13.06.64-.11,1.1-.26.47-.15.89-.29.99-.22-1.03.78-.89.32-1.74.97.66-.18,1.57-.54,2.32-.83.76-.3,1.38-.53,1.73-.53l-.08-.05c.65-.54.63-.43.63-.28-.01.16.01.36.45.08-.17.09-.66.58-.52.46.54.02,1.61-.52,2.6-.98l-.21.25c.29.13.95-.08,1.35-.07.14-.24.36-.25.23-.52.25.25.67.27.88.24.22-.03.42-.16.61-.29.39-.26.75-.54,1.25-.15-.1.02-.2.22-.12.21l.65-.32c-.12-.33-.13-.19-.33-.42.05-.22.21-.41.38-.45-.26.29.11.55.28.71-.04-.1-.02-.22-.05-.33.48.53-.08-.7.5-.39v.18c.18-.13.3-.4.51-.39.16.38-.16.22-.11.55.27-.08.4-.85.73-.51-.1.13-.27.17-.36.3.37.41.38.28.59.32h-.02s.51.11.51.11l-.14-.1c.14-1.09.67-.33,1.01-1.09-.33.73,0,.38.05.84.14.1.35.2.33.34.15-.4.43.21.63-.38.04.14.24-.03.26.34.27-.17-.12-.24-.13-.42.35-.58,1.16.38,1.67-.42.5-.39.5-.89.96-1.23.22.19-.04.55-.04.55.32.16.52.07.75-.14-.03.14.05.23.16.38.2-.08.04-.55.36-.39-.02.17-.03.44-.09.62.22-.18.41-.5.64-.68.12.24-.08.41-.14.59.27-.17.7-.38.71-.79l-.21-.1c.1-.04.12.33.06.42-.19.36-.38-.07-.43-.21l.16-.13c-.36-.8-.71.28-1.09.31l.03-.64-.28.58c-.11-.14-.24-.47-.07-.6-.32-.25-.19.26-.48-.03-.04-.05-.03-.08-.01-.11l-.22.23c.02-.14-.13-.42.05-.37-.53-.26-.65.61-.92.18l.03-.05c-.6.34.03.46-.35,1.09l-.55-1.04.03.46c-.07,0-.21-.01-.22-.19-.18.36.08.19,0,.51-.4-.35-.84.37-1.06-.33-.05.36.36.2.06.51-.25-.75-.37.21-.73-.08,0-.42.33-.26-.03-.56-.04.71-.6-.03-.82.14.1.54-.49.33-.87.59,0-.18-.83-.14-1.26-.25v-.09c.03.55-.39.53-.65.7-.05-.33-.03-.46.1-.64l-.27.06c-.03.19-.1.29-.26.39v-.42c-.37.09-.64.62-1.16.44.05.38.58.97.14,1.32-.06-.2-.15-.54-.04-.65-.04.04-.12.2-.22.13l.13-.38c-.24-.11-.05.31-.23.31-.05-.29-.17-.18-.19-.42.04-.04.17.09.21-.04-.2-.01-.47-.14-.59-.34.05.16.08.39-.05.46-.34.09-.24-.32-.39-.44-.02.21-.15.02-.14.47-.07.01-.08-.2-.1-.32-.11.22-.49.16-.51.64l.03.03-.03.03h0s0,0,0,0c-.31.29-.58.28-.76.22-.19-.06-.28-.17-.6,0l.16-.18c-.45.26-.67.24-1.36.7-.1.02.22-.32.54-.56-.36.18-.71.43-.53.14.66-.4.37-.31.53-.3,0-.13.49-.47-.58.16.86-.56.9-.67.57-.49l-.48.37c-.23.1-.26.07-.28.05l1.24-.76c.46-.33.18-.17-.33.08-.27.14-.54.27-.8.4-.25.12-.48.23-.38.15.08-.06.39-.26,1.1-.64-.9.44-.82.5-1.93,1.06.18-.13.8-.5,1.36-.8.51-.28.93-.5,1.07-.58.79-.42-1.73.75-1.05.33-.43.2-1.62.75-1.77.67.38-.3,1.86-.86,2.1-.91,0,.02-.14.08-.27.14.1-.01.23-.04.72-.27l-.39.15c.47-.23.56-.35,1.15-.54-.3.07-.58.18-.84.33.67-.33.24-.23.7-.47-.2.06-.61.19-.58.17.62-.33-.49.03-.4-.17.55-.18,1-.12.81-.24.37-.12.71-.07.92-.09-.22-.01-.08-.08.09-.11.18-.03.4-.04.45-.04.05.01.11.02.17.03-.1-.01-.09-.03-.08-.03-.15-.02-.3-.03-.45-.04.1-.02.12-.03.29,0-.24-.08-.73-.08-1-.25.25,0,0-.29.48-.11-.31.1.48.18.47.3-.05-.03-.03-.05.05-.05.05.02.09.04.12.06.44.14-.48-.26-.33-.42.1.09.2.16.28.21.07.05.11.07.13,0-.08.09-.12-.03-.24-.11-.11-.08-.17-.25-.18-.39.39-.12.14-.38.28-.5l-.21.09c-.15-.23,0-.33.09-.57.17.12-.04.26.09.26-.17-.51.76-.14.77-.63.25-.01.39.31.58.28.02-.54.58-.11.65-.64-.36-.13-.3-.06-.37-.52l-.28.73-.1-.7c-.14.17-.12.5-.26.56-.08-.36-.02-.28-.32-.4.6.12.14-.66.64-.69l.68.57c.64-.16.25-1.01.84-1.41l-.26.08c-.22-.29.22-.36.24-.62.22.2.39.15.6.19-.18-.12.32-.39-.12-.79l.49-.02c.46-.36-.31-1,.08-1.37.17.32.48.24.46.66.11-.14.24-.24.08-.36.21.02-.05-.64.27-.61-.07-.14-.31-.33-.18-.48.06.02.12.08.12.08-.12-.08,0-.37-.36-.4,1.09.06.74-1.32,1.67-1.31.12-.38.25-.85.4-1.16.07.06.13.07.07.12.47-.3-.6-.66-.08-1,.55-.04.1.38.34.31.9.37.17-.66.85-.75v.11c.44-.12,0-.79.22-1.19,0,0,.07.06.13.06-.34-.5-.25-1.1-.23-1.57.31.26.12.26.51.32.01-.21-.6-.16-.57-.58.24-.05.5-.26.91-.16l-.1.37c.57,0,.14-.48.3-.64l.21.1c.12-.59-.44-.77-.24-1.36h-.19c-.47-.47.39-.18.06-.61l.6.05c-.07-.26-.35-.9-.4-1.32.39.3.51.83.68,1.18.07-.21.14-.78-.13-.95.04.1.16.25.05.32-.39-.37-.55-.77-.48-1.2,1.13.24.44-1.13,1.32-1.44-.41-.86.17-1.76-.17-2.87-.77.59-.1-.3-.97,0-.12-.21-.14-.29-.09-.33.11-.28.17-.58.24-.89.17-.28.28.14.46.05-.17-.57.26-.38.29-.87-.26.22-.5.03-.59-.34-.04.22-.07.42-.13.63-.41-.24-.33-.47-.28-.74.04-.26.08-.59-.43-.77.14,0,.28.02.42.03-.23-.13-.53-.48-.92-.7-.38-.23-.82-.36-1.19-.14,0-.13.02-.4.23-.36-.44-.34-1.09-.4-1.66-.42-.58,0-1.08.02-1.49-.21l.1-.22c-.22.06-.36.39-.62.19,0-.09.08-.23-.03-.24-.12.08-.52.43-.82.37l.2-.3c-.6-.04-1.04.27-1.32.65-.29.38-.46.81-.72,1.16-.45-.52-1.29.06-1.59.43l-.07-.06c-.77,1.21-.29,2.18-.21,3.07-.8.42-.56,1.73-1.08,2.52.13-.12.51.08.56.24-.15.18.4.59-.2.5l.02-.07c-.61.09-.49.52-.54.84l.78.12c-1.25.75.3,2.2-.77,2.6.18.21.18.46.38.66l-.42-.02c-.11.56-.17.84-.07,1.54l-.3-.14c-.03.4,1.22.48,1.26.83l-.63.12c.04.67-.5,1.4.12,2.04-.09,0-.28-.01-.31-.12.01.32-.32,1.28.54,1.09-.56.06,0,.71.29,1.04h-.42c.57.24.72.23.92.63-.04.11-.32.13-.23-.02-.17.36.43.21.26.64l-.28-.12c.01.35.15.3.49.45.19.19-.02.66-.38.78.24.01.57.15.5.37-.14.05-.24,0-.29-.04-.18.62.63.76.3,1.23-.13.03-.2.07-.23.11-.07-.46-.11-.83-.08-.8-.38.07-.38.45-.96.25.34.25,1.05.64.94,1.04-.03.02-.06.05-.12.07l-.05-.03c-.02.09.03.16.11.21-.04.13-.07.21-.05.32-.3.11-.07.46-.05.65.41-.11.4.15.68-.15-.02.04-.06-.02-.1-.14-.02-.02-.03-.06-.06-.07h.04c-.04-.11-.08-.27-.13-.44.24.1.45.21.27.46.29.03.58.07.72.1-.52.38-.72.93-1.06,1.09.37.5.5,1.27,1.36,1.4.14.13-.17.24-.27.33-.1-.07-.12-.18-.24-.2.28.26.33.9.89.81-.12.46-.56-.07-.3.44l-.18-.02c-.5,1.34,1.87,1.25,1.24,2.76.04-.1.05-.15.13-.2,0,.74.37,1.37.73,1.98.35.63.67,1.25.62,2.03.02.42.36.31.7.4l-.37.28.64.13c.6.33-.52,1.39.47,1.7l.22-.23c.07.26.54.64.22.77.06,0,.32-.08.23.08l-.2.13.68.34c.11.51-.85.41-.51,1.07.22.19.98.3,1.07.13-.05-.1-.02-.32.18-.45l.23.14c.61-.33,1.31-.57,1.43-1.32l-.57-.12.22-.29.19.28c.17-.33-.13-.29-.36-.3.14-.12.22-.23.23-.34h-.78c.21-.18.56-.12.55-.42-.36,0-.44.46-.77.3.18-.33.43-.4.08-.46.14-.12.26-.13.38-.09-.29-.07-.33-.42-.71-.33.25-.36-.41-.55.18-.84-.17.02-.63-.07-.74-.22.86-.07-.28-.63.53-.94-.74.1-.67-.66-1.22-.89.06,0,.19,0,.17.04-.05-.25.11-.4.16-.6-.55.22-.83-.08-1.24-.13.4-.51.7-.11,1.16-.42-.43.21-.64-.29-.96-.04.23-.35.08-.25.48-.55-.69.25-.2-.15-.69-.15.2-.45.6-.34.25-.59.14-.24.51-.04.51-.04ZM67.1,23.04h0c.03.07.05.13.06.17-.01-.04-.03-.09-.07-.17ZM66.96,22.31c0,.09.02.2.04.32-.14.05-.29.05-.3-.02.1.02.15-.17.26-.3ZM64.42,24.48c-.09-.11-.01-.17.07-.2.02.06.05.12.1.2.02,0,.04,0,.05,0-.08,0-.16,0-.22,0Z"/>
    <path class="cls-1" d="M65,24.58s.03.02.04.04c.03-.03.06-.06.08-.09h-.14s.02.05.02.05Z"/>
    <path class="cls-1" d="M65.45,30.56h0s0,.02,0,.05c0-.02,0-.03,0-.05Z"/>
    <polygon class="cls-1" points="67 12.07 66.9 12.07 66.99 12.13 67 12.07"/>
    <path class="cls-1" d="M69.55,31.21s.04.07.08.1c0-.03-.04-.06-.08-.1Z"/>
    <path class="cls-1" d="M71.35,30.95l.28.1c-.13-.06-.21-.09-.28-.1Z"/>
    <path class="cls-1" d="M72.76,30.88c0-.08,0-.13,0-.18h0s.01.18.01.18Z"/>
    <path class="cls-1" d="M63.43,25.44s.02-.03.02-.05c.02-.15,0-.06-.02.05Z"/>
    <path class="cls-1" d="M58.43,32.06c-.13.03-.26.05-.31.03-.2.15-.31.25.31-.03Z"/>
    <polygon class="cls-1" points="67.45 19.54 67.46 19.54 67.48 19.5 67.45 19.54"/>
    <path class="cls-1" d="M58.44,31.79c-.32.2-.38.28-.32.31.17-.13.38-.28.32-.31Z"/>
    <path class="cls-1" d="M78.74,29.87h.07s0-.05,0-.06l-.06.06Z"/>
    <path class="cls-1" d="M78.81,29.81l.06-.06s-.06.02-.06.06Z"/>
    <path class="cls-1" d="M79,29.61l-.13.14c.05,0,.12,0,.13-.14Z"/>
    <path class="cls-1" d="M76.89,30.05v.15s.01-.08,0-.15Z"/>
    <path class="cls-1" d="M76.35,30.2c.14,0,.39.25.56.12v-.12c-.05.24-.48-.28-.56,0Z"/>
    <path class="cls-1" d="M73.67,28.81l.49.03c-.11-.14-.26-.34-.06-.42-.68-.36.19.33-.43.39Z"/>
    <path class="cls-1" d="M72.19,28.86c.23-.12-.05-.23-.05-.32-.13.18-.16.22.05.32Z"/>
    <path class="cls-1" d="M63.61,30.58l.64-.52c-.18.09-.25.2-.64.52Z"/>
    <polygon class="cls-1" points="57.53 33.82 57.22 34.13 58.18 33.58 57.53 33.82"/>
    <polygon class="cls-1" points="63.92 29.75 64.1 29.66 63.86 29.78 63.73 29.83 63.83 29.79 63.92 29.75"/>
    <path class="cls-1" d="M71.67,19.8l-.44-.19c0,.16.44.46.44.19Z"/>
    <path class="cls-1" d="M74.46,12.31c.25-.02.46-.2.27-.4-.08.17-.3.29-.27.4Z"/>
    <polygon class="cls-1" points="63.33 9.83 63.19 9.65 63.29 9.97 63.33 9.83"/>
  </g>
  <g>
    <path class="cls-1" d="M121.07,51.59c.04-.13.03-.42-.07-.37l-.09.49.16-.13Z"/>
    <path class="cls-1" d="M120.46,50.65c-.12.24-.27.65-.22,1.11.13-.47.15-.27.3-.83.1-.05.16.17.14.35.04-.13.15.12.21-.19-.11-.39-.27-.41-.45-.1-.03-.11,0-.24.02-.33Z"/>
    <path class="cls-1" d="M111.3,48.88l.05.07s-.03-.06-.05-.07Z"/>
    <path class="cls-1" d="M105.76,47.41s.07-.04.09-.09c-.05.02-.09.04-.09.09Z"/>
    <path class="cls-1" d="M104.96,46.63s.03.03.05.05c0-.05-.02-.08-.05-.05Z"/>
    <path class="cls-1" d="M111.3,48.88l-.12-.18c-.04.16.06.13.12.18Z"/>
    <path class="cls-1" d="M119.1,51.78s.06-.07.09-.13c-.03.02-.06.04-.08.05,0,.03,0,.05,0,.08Z"/>
    <path class="cls-1" d="M113.85,48.87h.05c.02-.05.04-.12.07-.19l-.11.19Z"/>
    <path class="cls-1" d="M115.77,49.03s-.1.39-.14.58c.04-.17.09-.25.13-.28,0-.08.01-.18.01-.3Z"/>
    <path class="cls-1" d="M118.77,50.04l.06-.05s-.04.03-.06.05Z"/>
    <path class="cls-1" d="M112.5,48.58c0-.06,0-.12,0-.15,0,.05,0,.1,0,.15Z"/>
    <path class="cls-1" d="M112.94,6.81s.04.02.07.03c-.03-.03-.06-.04-.07-.03Z"/>
    <polygon class="cls-1" points="115.78 5.63 115.79 5.67 116 5.78 115.78 5.63"/>
    <path class="cls-1" d="M103.48,45.63s0,0,0,0c.05-.03.03-.03,0,0Z"/>
    <path class="cls-1" d="M104.42,34.2c-.42.02-.31-.48-.81-.39.16.04.49.5.81.39Z"/>
    <path class="cls-1" d="M119.05,51.72s-.05,0-.08,0c.04.02.06.02.08,0Z"/>
    <path class="cls-1" d="M103.61,33.81h0s-.05,0-.05,0c.02,0,.03,0,.05,0Z"/>
    <path class="cls-1" d="M101.22,44.37c-.07.04-.11.07-.16.1.04-.02.08-.05.16-.1Z"/>
    <path class="cls-1" d="M102.34,46.1l-.03-.08s.02.07.03.08Z"/>
    <path class="cls-1" d="M100.41,43.52s.09-.05.03-.09c-.02,0-.03.01-.05.02.06.01.09.03.02.07Z"/>
    <path class="cls-1" d="M100.52,42.15s-.06,0-.09.01v.05s.09-.06.09-.06Z"/>
    <path class="cls-1" d="M110.99,11.53c.12.02.25.05.38.09-.28-.1-.28-.37-.38-.09Z"/>
    <path class="cls-1" d="M119.11,51.54c-.02.11-.03.16-.06.18.02,0,.04-.01.06-.02,0-.06.01-.12,0-.16Z"/>
    <path class="cls-1" d="M97.09,43.63l.05-.37c-.04.1-.05.24-.05.37Z"/>
    <path class="cls-1" d="M106,22.5l-.02-.08s-.02.04.02.08Z"/>
    <path class="cls-1" d="M97.15,42.21c.15-.04.25-.09.31-.15-.03-.02-.05-.04-.1-.05-.07.06-.14.13-.21.2Z"/>
    <path class="cls-1" d="M111.37,11.62h0s0,0,0,0Z"/>
    <path class="cls-1" d="M111.2,9.6c-.12.23.44.34.71.52.02.34-.43-.05-.73-.07.05.23.45.58.37.7-.09-.03-.13-.02-.22-.1.32.37-.23.55.17,1-.05,0-.1-.02-.14-.03.27.08.52.2.7.29-.04.11.23.34-.12.23.04-.06-.09-.13-.18-.2l.09.18c-.52-.12-.1-.22-.44-.39.06.28.33.71.12.81-.48-.18.02-.45-.49-.43l.29-.17c-.82-.15.12-.13-.74-.32-.29.27.07.48-.22.75.22.19.39.15.61.35.25.68-1.33-.17-.87.46.27.23.83.54.41.64l-.48-.33c-.2.3.67.53.16.7-.18-.16-.06-.33-.14-.31-.51.02.23.29.15.46l-.48-.18c-.08.37.08.9-.01,1.32-.13-.08-.24-.22-.42-.19.01.58-.52.99-1.01,1.32l.32.36s-.22,0-.27-.09c-.23.11.25.13.37.29-.02.11-.29.03-.38-.09.19.47.32,1.24-.26,1.37l-.09-.12c-.28.18.68.67.2.74l-.05-.08c-.43.48-.35,1.27-1.15,1.42.54.35-.51.44.27.84-.55.14-.65-.02-1.12.31-.09.1.42.41.43.6l-.42-.19.35.41-.55-.12.04.19c.05-.04.24-.03.36.03.09.31-.54.4-.76.3l.12.68c-.16-.09-.18-.2-.26-.32.3.47-.47-.15-.19.28.11,0,.24.13.32.18-.31,0-.45.3-.44.56l-.27-.17c-.25.35-.23.87-.44,1.3.21-.09.69.17.68.32l-.47-.15c.24.21.23-.05.49.27-.13.14-.56-.12-.66-.28l.06.27c-.14-.05-.19-.13-.35-.22.24.21-.6.13-.18.47l-.14-.05c-.2.43-.14.69-.28,1.05.38.18.23.28.49.53-.24.2-.67.35-.78.68.09.3.3.21.48.41-.36-.14-.47.18-.64-.09-.11.4-.15.51-.08,1.11.17.01.26-.02.36.07.02.11-.24.13-.4.04l-.03-.04c.28.77-1.58.76-1.05,1.51l-.03-.04.18.61c-.15.17-.21-.24-.49-.19.37.73-.43.71-.22,1.27-1.17-.17-.42,1.1-1.26,1.21l.25.09c.19.21-.2.06-.29.12.19.07.27-.02.37.11-.12,1.02-1.2,1.67-1.84,2.48-.22.3,1.17.75.4.91l-.4-.32c.24.9-.67,1.46-.46,2.4-.09-.08-.23-.13-.2-.21-.4.04-.22.61.06.69-.07.11-.26-.05-.43-.02-.26.11.32.56-.05.55-.06,0-.1-.08-.12-.12.13.15-.18.53.25.51-.27.27.06.64-.23.86.44.23-.29.56.36.67-.67-.08-.58.59-.24.81-.21-.07-.2.21-.49.13.01.27.19.52.52.43-.38.3-.17.54.02.73.18.19.34.33-.1.65.65.71,1.28,1.2,1.88,1.58-.51.46-.58-.54-1.11-.1.7.46,1.37.27,1.77.77.08.17-.25.18-.37.24.69.17,1.05.74,1.69.61-.03.06-.11.1-.18.12.1.02.18.19.29-.1l-.12.04c.04-.47.72-.71.81-.93-.47.77.36.37-.26,1.33.08-.03.21-.14.26-.34.07.09.06.21-.11.4.39-.05.37-.39.66-.3-.05.14-.12.18-.21.34.24-.23.47-.46.67-.27-.04.08-.04.2-.12.18.43.08.9-.55,1.26-.16-.3.59.09.25-.03.79l.28-.1-.03-.29c.21.06.49-.28.62-.06l-.21.18h.42s-.17-.26-.17-.26c.28-.22.16-.69.39-.47-.07.04.2.06.23.41h0c.15-.15.3-.3.42-.13,0,.18-.18.59-.18.72.21-.43.52,0,.76-.46-.07.1-.14.39-.14.45l.17-.35c.07.14.07.2,0,.43.28.13.07-.71.34-.34-.03.02-.03.08-.1.13.31.23.72-.08,1,.17-.02.57-.31.08-.3.56.49,0,1.1-.45,1.52-.24l-.07-.08c.22-.77.26.45.55.13-.07.05-.16.42-.12.34.28.19.67-.08,1.17-.24l-.09.19c.15.21.46.19.64.31.09-.19.2-.14.18-.44.42,1.25,1.24-.43,1.64.6-.06,0-.18.15-.13.16l.49-.12c.01-.35-.03-.22-.09-.5.09-.2.24-.34.35-.32-.24.2-.07.55,0,.76,0-.11.05-.22.05-.33.16.64.13-.69.4-.23l-.04.18c.13-.08.28-.3.4-.23,0,.4-.15.17-.2.5.19,0,.46-.71.58-.29-.09.1-.2.09-.3.19.13.49.16.37.29.46h-.01s.29.24.29.24l-.07-.14c.35-1.01.5-.14.88-.79-.37.61-.09.37-.16.82.07.13.18.29.13.41.19-.35.22.31.48-.2,0,.15.16.03.09.39.21-.1-.02-.26.01-.44.34-.47.65.67,1.14.02.39-.25.5-.74.85-.96.1.24-.13.52-.13.52.17.23.31.2.5.04-.04.13-.01.24.03.4.14-.03.13-.53.3-.3-.04.16-.1.42-.18.58.18-.12.36-.39.53-.51.03.26-.12.38-.19.54.2-.1.52-.2.59-.6l-.12-.15c.07-.02.02.35-.04.42-.18.31-.23-.15-.23-.3l.13-.09c-.08-.86-.5.11-.74.05l.14-.62-.28.5c-.04-.17-.06-.51.07-.6-.15-.32-.17.21-.3-.14-.01-.05,0-.08.01-.11l-.18.17c.04-.13,0-.44.1-.34-.28-.38-.53.43-.61-.05l.03-.04c-.44.18-.08.46-.44.96l-.12-1.15-.08.45s-.13-.06-.09-.24c-.19.3.01.2-.11.49-.17-.43-.6.14-.58-.59-.11.34.18.29-.07.51.01-.79-.27.11-.43-.27.1-.4.26-.16.11-.54-.19.67-.36-.19-.53-.07-.07.54-.37.18-.67.33.04-.18-.47-.35-.7-.59l.02-.09c-.12.54-.36.4-.57.49.05-.33.1-.45.22-.58l-.18-.02c-.07.17-.13.25-.26.3l.1-.4c-.24,0-.54.41-.8.09-.08.38.08,1.09-.28,1.3.02-.21.06-.56.16-.63-.03.02-.12.16-.17.06l.18-.33c-.11-.17-.12.28-.22.23.05-.29-.05-.22,0-.45.03-.02.08.14.14.03-.12-.07-.24-.27-.25-.5-.02.17-.06.39-.16.42-.24-.02-.02-.37-.14-.54-.09.19-.2-.04-.28.39-.07-.01-.05-.22-.05-.34-.15.17-.57-.04-.52.45l.03.04s-.01,0-.02.02h0s0,0,0,0c-.47.36-.78-.39-1.21-.28l.03-.15c-.27.12-.54,0-.77.28-.07-.01-.11-.3-.05-.46-.2.07-.25.23-.46-.06.23-.21-.01-.24.22-.15-.21-.17-.21-.42-.54-.07.16-.35-.07-.5-.21-.42l.1.3c-.14.03-.24-.03-.34-.08l.17-.47c-.33-.7-1.08.82-1.2-.26-.2.31.2.3,0,.67-.2-.12-.26-.87-.32-.89-.23-.34-.45.64-.71.38,0,.18-.08.65-.36.75-.2-.12-.08-.79.09-.9.06,0,.07.06.05.12.09-.04.2-.09.16-.3l-.07.17c-.06-.2-.36-.26-.22-.53-.2.12-.14.26-.05.39-.21-.32-.43-.12-.66-.36.02.11,0,.32-.04.31-.36-.33-.27.28-.57.27-.09-.31.23-.61-.11-.47-.12-.22.09-.46.2-.59-.35.26-.41-.35-.52-.45l.17-.1c-.1.06-.16.04-.22.02l-.03.36c-.06-.08-.12-.1-.07-.24-.14.2-.12.58-.36.84-.04-.2-.36.09-.24-.37.25.25.12-.46.39-.45-.07.04-.12.02-.17-.07,0-.05.04-.09.07-.11-.13-.49-.3.46-.58.35.13-.24.12-.5.06-.46.1.05-.11.43-.29.58-.09-.27-.25.06-.33,0l.06.14c-.14.23-.22.15-.38.17.08-.19.17-.08.17-.18-.35.35-.07-.58-.38-.39.02-.2.25-.43.26-.57-.35.19.05-.4-.24-.27-.19.31-.12.25-.45.43.14,0,.27,0,.41,0-.15.1-.32.2-.48.29.08.08.32-.05.33.04-.25.18-.2.11-.32.39.19-.52-.46.06-.37-.36l.6-.65c.15-.4-.59.06-.58-.33l-.08.16c-.31.16-.16-.12-.31-.14.26-.13.33-.24.48-.35-.2.1-.06-.16-.62.01.11-.09.21-.17.32-.25.1-.25-.9-.06-.84-.38.33.03.52-.11.77.02,0-.08.04-.15-.17-.13.17-.06-.43-.2-.14-.3-.13-.03-.44-.03-.42-.14.06-.01.15,0,.15,0-.15,0-.2-.17-.53-.08.47-.16.45-.35.45-.57-.02-.21-.02-.44.39-.49-.06-.23-.09-.51-.05-.72.08.04.14.04.1.07.34-.19-.78-.4-.38-.64.51-.02.19.25.4.2.94.25,0-.41.61-.44l.04.07c.36-.04-.21-.51-.04-.75,0,0,.08.04.14.06-.39-.36-.4-.77-.41-1.08.31.23.13.2.51.3,0-.14-.58-.22-.58-.49.23.01.47-.08.86.07l-.08.23c.54.11.11-.29.25-.37l.21.11c.08-.36-.45-.61-.25-.95l-.18-.04c-.44-.43.37-.03.07-.4l.57.18c-.07-.19-.31-.69-.31-.96.34.31.42.67.58.95.06-.13.16-.45-.08-.64.03.08.13.2.02.21-.35-.35-.47-.65-.34-.9,1.03.52.57-.55,1.47-.37-.18-.63.58-.82.76-1.37-.9-.18.05-.16-.8-.51,0-.15.04-.19.1-.17l.67-.15c.28.02.13.2.32.27.19-.24.41.05.71-.03-.32-.1-.39-.29-.2-.39l-.48.04c-.27-.58.85,0,.58-.58l.21.24c-.07-.26.33-.71-.25-1.21.11,0,.36.07.38.18.31-.42-.24-1.35.34-1.53l.19.13c-.02-.11-.31-.32-.06-.34.08.04.19.13.22.09-.05-.08-.25-.39-.08-.45l.18.2c.48-.33-.24-.95-.21-1.39.6.27.96,0,1.14-.12l.08.04c.32-.49-.09-1.12-.1-1.72.79,0,.74-.9,1.33-1.22-.14.02-.46-.23-.48-.34.17-.06-.27-.51.27-.24l-.03.04c.58.16.54-.14.64-.31l-.71-.36c1.27,0,.19-1.43,1.25-1.26-.13-.2-.06-.34-.19-.54l.38.18c.25-.27.37-.41.46-.85l.24.21c.13-.21-.98-.79-.91-1.01l.6.2c.17-.39.86-.55.51-1.18.08.05.24.13.24.21.1-.18.72-.53-.1-.83.52.23.24-.38.11-.69l.36.21c-.4-.4-.53-.47-.55-.78.08-.04.33.09.19.12.29-.1-.29-.32.02-.46l.2.2c.12-.19-.02-.23-.25-.47-.09-.2.27-.34.63-.21-.2-.12-.43-.36-.27-.44.14.04.2.12.23.16.41-.22-.21-.71.27-.76.13.05.2.07.24.07-.13.26-.25.47-.27.44.35.16.51-.03.91.37-.18-.3-.62-.86-.36-.99.04,0,.08.01.13.03l.03.04c.06-.03.04-.09,0-.16.09-.04.15-.06.19-.13.3.11.27-.18.33-.28-.39-.17-.26-.28-.64-.3.03,0,.04.04.02.12,0,.02,0,.04.02.06l-.03-.02c-.02.08-.06.17-.1.28-.16-.18-.28-.34-.01-.36-.22-.17-.44-.35-.55-.44.6.1,1.02-.05,1.37.06-.06-.43.22-.84-.41-1.38-.05-.14.26-.01.38,0,.05.09,0,.15.1.22-.1-.27.18-.59-.3-.87.33-.13.4.35.47-.01l.13.12c1.09-.26-.8-1.64.55-1.86-.09.02-.13.03-.21,0,.82-.59.34-1.86,1.42-2.32.25-.16-.06-.33-.24-.59l.43.14-.36-.46c-.19-.5,1.27-.1.81-.84l-.3-.08c.12-.13.06-.56.36-.38-.04-.04-.26-.19-.09-.18l.22.1-.2-.55c.29-.22.83.45,1.07.05-.01-.2-.42-.74-.59-.75-.04.06-.21.1-.42,0l-.05-.2c-.62-.33-1.21-.74-1.82-.6l.27.43-.34-.07.08-.22c-.34-.02-.12.18.01.34-.17-.06-.3-.08-.38-.06l.49.53c-.26-.09-.44-.34-.65-.24.23.25.6.15.7.43-.34-.02-.56-.16-.38.09-.17-.06-.26-.14-.31-.22.14.22-.07.36.24.59-.41-.04-.1.46-.69.16.13.11.37.44.34.56-.62-.54-.24.4-.98-.01.57.46.03.69.26,1.13-.04-.04-.13-.12-.09-.13-.12.13-.34.08-.5.12.52.27.54.56.8.85-.6-.05-.57-.41-1.09-.58.44.19.28.53.67.63-.38,0-.21.05-.69-.08.65.34.05.19.41.5-.42.05-.65-.24-.55.08-.25.01-.4-.3-.4-.3ZM109.86,15.53h0c.01-.05.02-.1.03-.12,0,.03-.01.06-.02.12ZM109.66,15.99s.07-.12.11-.19c.14.05.27.13.24.17-.08-.07-.2,0-.34.02ZM112.75,16.26c.02.1-.06.09-.15.06,0-.04.01-.08.01-.15l-.04-.03c.07.04.13.08.18.12Z"/>
    <path class="cls-1" d="M112.31,15.9s-.02-.03-.01-.04c-.04,0-.08,0-.11,0l.11.08v-.04Z"/>
    <path class="cls-1" d="M111.35,48.96h0s.01.02.01.05c0-.02,0-.03,0-.05Z"/>
    <polygon class="cls-1" points="106.04 21.91 106.14 21.96 106.07 21.88 106.04 21.91"/>
    <path class="cls-1" d="M113.85,50.81s0,.08.02.11c0-.03,0-.07-.02-.11Z"/>
    <path class="cls-1" d="M115.03,51.05l.15.17c-.06-.09-.11-.14-.15-.17Z"/>
    <path class="cls-1" d="M115.93,51.36c.02-.07.03-.13.04-.18h0s-.04.18-.04.18Z"/>
    <path class="cls-1" d="M101.23,48.7s-.03,0-.05,0c-.13.03-.05.03.05,0Z"/>
    <path class="cls-1" d="M105.87,49.09c-.06.06-.13.13-.18.16.07.05.12.07.18-.16Z"/>
    <polygon class="cls-1" points="97.08 43.67 97.09 43.67 97.09 43.63 97.08 43.67"/>
    <path class="cls-1" d="M105.49,49.19c.05.1.12.1.19.06-.06-.04-.12-.1-.19-.06Z"/>
    <path class="cls-1" d="M119.92,51.86l.04.02s0-.05,0-.07l-.05.05Z"/>
    <path class="cls-1" d="M119.98,51.81l.05-.05s-.04,0-.05.05Z"/>
    <path class="cls-1" d="M120.14,51.67l-.11.1s.08.02.11-.1Z"/>
    <path class="cls-1" d="M118.71,51.6l-.02.15s.02-.08.02-.15Z"/>
    <path class="cls-1" d="M118.33,51.61c.09.04.2.34.33.26l.02-.12c-.07.22-.25-.39-.35-.13Z"/>
    <path class="cls-1" d="M116.96,49.6l.29.15c-.04-.17-.09-.39.05-.42-.34-.52.05.37-.34.27Z"/>
    <path class="cls-1" d="M116.04,49.28c.17-.06.02-.24.04-.33-.12.14-.15.17-.04.33Z"/>
    <path class="cls-1" d="M109.33,48.23l.09-.37c-.13.03-.03.15-.09.37Z"/>
    <polygon class="cls-1" points="107.62 49.9 107.69 50.16 107.83 49.83 107.62 49.9"/>
    <polygon class="cls-1" points="107.48 47.06 107.54 47.02 107.31 47.11 107.48 47.06"/>
    <path class="cls-1" d="M100.84,42.46l-.47-.04c.07.09.59.17.47.04Z"/>
    <path class="cls-1" d="M101.97,37.98c.24.05.44-.02.26-.19-.08.09-.29.11-.26.19Z"/>
    <polygon class="cls-1" points="108.93 24.7 109.04 24.86 108.99 24.63 108.93 24.7"/>
  </g>
  <g>
    <path class="cls-1" d="M149.38,40.78c.13.01.42-.07.34-.16l-.5.02.16.14Z"/>
    <path class="cls-1" d="M150.17,39.93c-.26-.08-.7-.15-1.14,0,.49.05.3.11.88.14.07.09-.13.21-.31.22.13.01-.08.18.24.18.35-.21.34-.37,0-.49.1-.06.24-.04.33-.05Z"/>
    <path class="cls-1" d="M151.59,30.35l-.07.04s.06-.02.07-.04Z"/>
    <path class="cls-1" d="M154.33,25.16s.02.09.05.11c0-.05,0-.1-.05-.11Z"/>
    <path class="cls-1" d="M155.34,24.67s-.04.02-.06.03c.05,0,.08,0,.06-.03Z"/>
    <path class="cls-1" d="M151.59,30.35l.2-.1c-.15-.06-.14.04-.2.1Z"/>
    <path class="cls-1" d="M148.8,38.69s.08.06.14.08c-.02-.03-.05-.05-.06-.08-.03,0-.05,0-.08,0Z"/>
    <path class="cls-1" d="M151.38,32.96v.05s.11.05.19.07l-.19-.12Z"/>
    <path class="cls-1" d="M151.2,34.91s-.4-.09-.58-.13c.17.04.25.08.28.12.08,0,.18,0,.3,0Z"/>
    <path class="cls-1" d="M150.45,38.07l.06.05s-.04-.04-.06-.05Z"/>
    <path class="cls-1" d="M151.75,31.6c.06.01.12.02.15.02-.05-.01-.1-.02-.15-.02Z"/>
    <path class="cls-1" d="M149.66,35.09s-.02.05-.02.07c.02-.04.04-.06.02-.07Z"/>
    <polygon class="cls-1" points="151.36 37.65 151.32 37.66 151.28 37.89 151.36 37.65"/>
    <path class="cls-1" d="M152.91,23.74s0,0,0,0c-.05-.04-.04-.02,0,0Z"/>
    <path class="cls-1" d="M152.02,39.07c.3.29.21.6.57.89-.1-.17-.36-.73-.57-.89Z"/>
    <path class="cls-1" d="M148.85,38.63s-.02-.06-.01-.09c0,.04,0,.07.01.09Z"/>
    <path class="cls-1" d="M152.59,39.96h0s.04.03.04.03c-.02-.01-.03-.02-.04-.03Z"/>
    <path class="cls-1" d="M153.44,27.92c.07,0,.13-.03.18-.05-.04,0-.1.01-.18.05Z"/>
    <path class="cls-1" d="M153.87,24.73l-.05.08s.05-.06.05-.08Z"/>
    <path class="cls-1" d="M154.02,29.57s-.09.05-.04.12c.02,0,.04,0,.05-.02-.06-.02-.08-.05-.02-.1Z"/>
    <path class="cls-1" d="M153.94,31.3s.06-.02.09-.03l-.02-.06-.07.08Z"/>
    <path class="cls-1" d="M145.4,33.05c-.05.11-.11.23-.17.34.16-.25.41-.2.17-.34Z"/>
    <path class="cls-1" d="M149.03,38.67c-.11,0-.16-.01-.19-.04,0,.02.02.04.03.06.06,0,.12,0,.16-.02Z"/>
    <path class="cls-1" d="M157.34,29.74l-.07.29c.04-.08.07-.19.07-.29Z"/>
    <path class="cls-1" d="M143.31,35.53h-.08s.03.02.08,0Z"/>
    <path class="cls-1" d="M157.3,30.91c-.15.04-.24.1-.3.15.03.01.06.03.11.04l.19-.19Z"/>
    <path class="cls-1" d="M145.22,33.4h0s0,0,0,0Z"/>
    <path class="cls-1" d="M147.14,33.49c-.19-.13-.38.41-.58.66-.33-.01.1-.42.17-.71-.22.03-.62.38-.72.28.04-.08.04-.12.13-.2-.41.26-.46-.31-.98,0,.02-.05.04-.09.06-.13-.14.24-.31.47-.43.62-.1-.06-.39.15-.2-.16.05.05.15-.06.24-.13l-.19.05c.24-.47.24-.04.48-.35-.29,0-.76.15-.81-.07.3-.41.42.13.54-.36l.08.32c.35-.76.09.15.48-.64-.16-.33-.45-.04-.61-.37-.24.16-.26.33-.51.49-.72.02.6-1.19-.13-.95-.3.17-.79.6-.73.17l.48-.33c-.18-.28-.74.43-.69-.1.21-.1.32.07.34-.02.18-.47-.35.1-.47-.04l.36-.36c-.29-.21-.82-.28-1.13-.56.14-.07.3-.11.38-.28-.5-.25-.54-.91-.5-1.45l-.47.06s.14-.16.23-.16c0-.02,0-.03,0-.04l-3.19,2.26c.04.15.22-.23.4-.27.1.07-.08.29-.23.32.52.02,1.3.22,1.21.83l-.15.03c.07.34.89-.36.78.12h-.09c.3.62,1.09.88.94,1.7.53-.36.23.67.91.1-.07.57-.26.6-.12,1.19.07.13.55-.22.73-.16l-.34.32.52-.16-.32.47.2.04c-.02-.07.06-.24.16-.32.33.05.18.67.01.84l.69.18c-.15.12-.26.09-.4.11.56-.08-.32.37.2.3.05-.1.22-.17.29-.23-.11.3.12.54.37.65l-.27.18c.24.38.75.59,1.08.96-.01-.23.42-.58.56-.5l-.32.37c.29-.14.03-.24.44-.35.09.18-.32.47-.51.5l.28.05c-.1.11-.19.12-.34.24.29-.14-.1.62.38.36l-.1.11c.34.37.61.42.91.71.32-.28.35-.1.69-.24.1.31.08.78.36,1.02.33.04.31-.19.57-.27-.27.27,0,.51-.33.56.17.14.28.23.42.31.07.04.14.07.25.12.14.08.31.18.5.27.04-.19.02-.32.14-.38.14.05.12.37,0,.51h-.05c.5.12.69.74,1.07,1.27.35.52.88.89,1.27.51l-.04.03c.26-.11.51-.26.73-.43.35,0-.16.33.13.51.38-.39.65-.51.94-.62.28-.11.57-.23.7-.66.51.31.9-.14,1.13-.69.25-.55.35-1.14.83-1.43l-.27-.05c-.18-.3.22-.2.33-.35-.21-.03-.29.16-.4,0,.03-.26.02-.35.05-.49.02-.13.06-.27.1-.4.09-.26.21-.52.35-.77.29-.51.62-1.02.84-1.55.14-.39-1.32-.46-.61-.85l.47.22c-.45-.9.27-1.66-.15-2.51.11.06.26.08.24.15.38-.13.08-.62-.21-.65.05-.12.27,0,.42-.07.23-.15-.42-.46-.05-.52.06-.01.11.06.14.09-.16-.12.08-.51-.34-.44.22-.28-.14-.58.12-.8-.46-.18.25-.5-.41-.58.68.05.57-.5.26-.7.2.07.22-.16.5-.08,0-.22-.13-.42-.48-.39.82-.39-.65-.8.39-1.02-.37-.64-.63-1.22-.81-1.78.68,0,.09.63.8.58-.29-.54-.9-.82-.76-1.37.08-.14.3.06.42.1-.32-.52,0-1.06-.43-1.51.06,0,.14.04.19.09-.03-.09.08-.23-.23-.19l.09.08c-.43.19-.96-.28-1.2-.27.89.07.17-.49,1.31-.36-.06-.06-.22-.12-.42-.08.05-.1.16-.14.41-.07-.21-.32-.52-.16-.55-.47.15-.02.21.04.39.05-.27-.11-.55-.21-.54-.43l.09-2.26-1.99,1.71s-.04.03-.07.05c-.06-.07-.17-.12-.12-.18-.25.4.12,1.09-.4,1.31-.44-.5-.27.01-.74-.29l-.02.32.28.07c-.14.19.07.59-.19.65l-.09-.27-.16.42.32-.09c.11.35.6.37.31.54-.02-.08-.12.19-.47.12h0c.09.19.19.39-.02.46-.18-.05-.51-.35-.63-.39.34.33-.17.54.2.91-.08-.1-.34-.24-.39-.26l.29.27c-.16.03-.22.02-.41-.11-.22.25.67.25.22.44-.01-.04-.07-.05-.09-.14-.33.26-.13.76-.44,1-.55-.15,0-.34-.47-.44-.14.52.16,1.25-.14,1.65l.09-.06c.71.36-.5.19-.25.56-.03-.08-.38-.23-.31-.18-.24.28-.05.73.03,1.29l-.17-.12c-.25.13-.25.47-.4.66.18.12.11.23.42.23-1.32.35.31,1.36-.77,1.72,0-.07-.14-.2-.16-.15l.1.53c.35.02.22-.03.5-.08.19.1.33.26.31.38-.19-.25-.55-.09-.76-.03.11,0,.22.05.33.06-.65.16.68.15.21.43l-.18-.04c.07.14.3.29.23.43-.4,0-.17-.16-.5-.21,0,.21.71.48.29.61-.1-.1-.09-.22-.19-.31-.49.14-.37.18-.46.32h.01s-.25.31-.25.31l.14-.08c1.01.34.15.53.81.91-.63-.36-.37-.08-.82-.13-.13.08-.28.21-.41.16.36.18-.31.27.22.52-.15,0-.01.18-.38.13.11.22.25-.05.44-.02.5.33-.62.78.09,1.24.3.39.8.44,1.06.78-.23.14-.54-.06-.54-.06-.2.21-.16.37.03.54-.13-.03-.23.02-.39.1.06.15.54.05.35.27-.17-.02-.43-.03-.6-.09.15.17.45.32.6.48-.25.08-.4-.06-.57-.11.14.2.29.52.71.52l.12-.15c.03.07-.34.09-.42.04-.34-.14.11-.28.25-.31l.11.12c.84-.24-.19-.5-.18-.78l.63.05-.55-.22c.16-.07.5-.14.61-.02.29-.21-.24-.14.09-.33.05-.02.08-.02.11,0l-.19-.16c.13.03.44-.06.35.06.34-.33-.5-.49-.03-.63l.04.02c-.23-.43-.46-.02-1.01-.35l1.13-.25-.46-.04s.05-.14.23-.12c-.31-.17-.2.03-.5-.07.42-.22-.19-.62.54-.65-.35-.09-.27.2-.51-.04.79-.04-.12-.28.25-.47.4.08.18.26.55.08-.68-.16.17-.38.05-.55-.55-.05-.2-.38-.34-.68.18.04.35-.49.59-.72l.09.02c-.54-.13-.39-.38-.47-.6.32.06.45.12.57.25l.03-.18c-.17-.07-.25-.14-.29-.27l.4.12c.01-.24-.38-.57-.05-.82-.37-.1-1.1.02-1.28-.37.21.03.55.1.62.21-.02-.03-.15-.14-.05-.18l.31.21c.18-.11-.27-.14-.21-.25.29.07.22-.04.45.04.02.03-.14.07-.04.14.08-.11.29-.23.51-.22-.17-.03-.39-.1-.4-.2.04-.24.37,0,.55-.09-.18-.11.06-.2-.36-.32.02-.07.22-.03.35-.02-.15-.17.1-.58-.38-.58l-.04.02s0-.02-.01-.03h0s0,0,0,0c-.3-.54.52-.75.46-1.2l.14.05c-.07-.29.11-.54-.12-.83.03-.07.32-.06.47.04-.03-.21-.18-.31.16-.45.16.28.23.03.09.25.22-.17.46-.12.2-.52.31.24.51.04.45-.11l-.32.03c0-.14.08-.23.16-.32l.42.28c.74-.14-.5-1.26.56-1.1-.24-.29-.34.11-.64-.19.16-.17.91,0,.95-.06.39-.11-.47-.62-.14-.8-.17-.06-.59-.28-.6-.59.19-.16.78.18.82.38-.02.05-.08.04-.13,0,.01.1.03.22.24.25l-.13-.12c.21,0,.37-.25.57-.03-.05-.23-.2-.22-.35-.17.38-.09.26-.36.57-.5-.11-.02-.3-.11-.27-.14.43-.22-.16-.35-.03-.64.32.03.48.44.48.07.26-.03.39.26.46.41-.09-.34.28-.29.49-.29l-3.52-1.02s-.06.08-.07.11l-.11-.09,3.85,1.11v.06s0-.04,0-.05l-3.86-1.12c.06.06.06.12.07.18l.34-.13c-.05.09-.04.16-.19.18.24.06.58-.14.92,0-.17.14.23.33-.23.42.12-.38-.47.09-.58-.2.06.05.07.12.02.21-.05.02-.1,0-.13-.02-.38.38.55.09.58.45-.27-.02-.49.13-.43.18,0-.14.44-.11.65,0-.18.25.18.23.17.36l.08-.15c.27.02.25.14.34.29-.21.03-.16-.13-.24-.07.49.14-.45.44-.12.66-.17.13-.5.05-.61.15.36.25-.34.32-.04.59.35-.1.27-.11.62.07l-.28-.46.54.28c0-.15-.24-.29-.19-.38.3.13.21.12.5.03-.52.23.33.38-.02.63l-.89.04c-.38.36.49.59.27,1.04l.15-.15c.35.05.06.28.2.42-.3,0-.4.08-.58.15.22-.01-.02.32.57.36l-.39.2c-.16.36.85.42.74.77-.32-.11-.53.04-.76-.19,0,.12-.06.22.14.22-.19.06.39.33.11.43.13.05.44.08.41.21-.06.01-.15,0-.15,0,.15,0,.19.21.52.11-.94.32.02,1.02-.79,1.29.08.26.16.57.16.81-.09-.02-.15-.01-.11-.05-.3.29.83.27.49.61-.49.14-.24-.22-.43-.12-.98-.05.09.45-.5.63l-.05-.06c-.35.14.31.49.21.79,0,0-.08-.03-.15-.02.47.27.57.69.67,1-.36-.15-.18-.16-.57-.16.04.14.62.05.69.33-.22.05-.43.21-.84.17l.02-.25c-.55.04-.03.32-.15.43l-.23-.05c.01.38.6.49.48.89h.18c.53.32-.36.11.03.42l-.59-.05c.12.17.46.62.51.9-.4-.24-.55-.59-.77-.82-.03.14-.06.49.21.62-.04-.07-.17-.17-.07-.21.42.27.59.55.52.84-1.1-.3-.46.68-1.37.66.17.19.1.26-.01.31-.12.04-.25.01-.27.11.69.69-.01.07.63.89-.01.13-.05.15-.09.1-.17-.1-.33-.24-.47-.4-.16-.27-.07-.26-.19-.48-.09-.02-.23-.41-.35-.68.16.38.2.56.12.43.06.17.13.33.22.48.04.33-.08.12-.15-.11-.09-.23-.12-.48-.12-.16,0-.13-.01-.25-.03-.38-.01.22-.02.02-.24.86,0-.14.06-.44.09-.51-.03-.09-.13.09-.27.16-.13.08-.3.06-.19-.16l.16-.16c-.07.02-.3.3-.24.03.07-.06.19-.12.17-.16-.09.01-.47.07-.46-.12l.26-.09c-.14-.59-1-.18-1.41-.4.49-.45.36-.9.3-1.12l.07-.06c-.35-.51-1.11-.4-1.68-.64.29-.74-.59-1.08-.67-1.77-.03.14-.39.34-.51.31,0-.19-.59.04-.13-.35l.02.04c.37-.48.07-.57-.06-.74l-.61.51c.47-1.19-1.3-.79-.75-1.71-.24.04-.35-.09-.58-.05l.32-.28c-.17-.35-.26-.52-.65-.79l.29-.14c-.16-.21-1.12.59-1.3.43l.42-.48c-.31-.33-.22-1.04-.94-.98.07-.06.22-.17.29-.14-.13-.17-.24-.9-.83-.25.41-.39-.28-.38-.63-.39l.33-.25c-.53.21-.64.3-.95.19,0-.09.21-.27.19-.13,0-.32-.41.14-.43-.22l.27-.11c-.07-.09-.12-.12-.2-.1l-4.93,1.03,3.1.27c.09,0,.2-.02.38-.04.22.05.14.46-.16.68.22-.09.55-.13.53.05-.11.09-.22.09-.27.09,0,.51.75.25.57.72-.11.08-.16.14-.18.18-.18-.29-.31-.53-.27-.52-.32.21-.22.48-.79.59.37.04,1.1,0,1.12.31-.02.03-.04.06-.09.11h-.05c0,.08.07.1.15.1,0,.11,0,.18.04.25-.23.22.06.37.14.48.32-.27.38-.1.54-.44,0,.04-.06.01-.13-.05-.02,0-.04-.02-.07-.02l.03-.02c-.07-.06-.14-.15-.23-.25.24-.04.44-.07.35.19.26-.11.52-.23.65-.29-.34.51-.35.99-.59,1.27.46.15.8.63,1.54.24.15,0-.06.25-.12.37-.1.01-.15-.05-.26,0,.31.02.56.42.97.05.05.37-.46.28-.1.47l-.15.09c.02.59.5.55.96.49.47-.05.88-.09.93.61-.01-.09-.02-.13.02-.22.57.99,1.94.64,2.49,1.75.2.26.36-.05.62-.24l-.11.44.46-.38c.49-.22.31,1.29,1.04.76l.02-.31c.16.12.61-.02.49.31.03-.05.14-.29.17-.12l-.05.23.53-.29c.31.23-.26.91.27,1.05.22-.05.67-.58.62-.75-.07-.03-.17-.18-.14-.42l.19-.09c.14-.68.35-1.37.08-1.92l-.33.37-.02-.35.21.02c-.06-.34-.18-.07-.31.1.02-.18,0-.31-.03-.38l-.39.59c.03-.27.23-.5.11-.69-.19.27-.03.62-.27.77-.05-.34.06-.58-.15-.35.03-.18.09-.28.16-.35-.18.18-.35,0-.51.34-.01-.41-.45-.03-.23-.66-.08.14-.38.43-.5.41.47-.67-.4-.2-.04-.97-.41.62-.63.08-1.05.33.04-.04.11-.14.12-.09-.12-.12-.07-.33-.1-.49-.27.52-.55.53-.84.79.09-.59.42-.56.62-1.07-.21.43-.51.27-.64.65.03-.38-.04-.21.13-.67-.38.63-.18.04-.51.37,0-.42.3-.62-.01-.55.02-.25.33-.37.33-.37ZM142.21,30.69h0s.07.06.09.08c-.02-.02-.05-.04-.1-.08ZM141.93,30.29c.02.06.06.12.1.19-.11.1-.24.17-.26.12.09-.03.1-.18.16-.31ZM140.24,32.94c-.1-.04-.06-.11,0-.18.03.03.07.06.14.1l.05-.02c-.07.04-.13.08-.19.1Z"/>
    <path class="cls-1" d="M140.77,32.72s.03,0,.05,0c.02-.04.03-.07.04-.1l-.12.06.04.03Z"/>
    <path class="cls-1" d="M151.5,30.4h.01s-.04,0-.06,0c.02,0,.03,0,.05,0Z"/>
    <polygon class="cls-1" points="142.76 35.24 142.83 35.17 142.73 35.2 142.76 35.24"/>
    <path class="cls-1" d="M149.44,32.91s-.08,0-.11.02c.03,0,.07,0,.11-.02Z"/>
    <path class="cls-1" d="M149.17,34.19l-.17.17c.09-.07.14-.13.17-.17Z"/>
    <path class="cls-1" d="M148.88,35.18c.07.02.13.02.18.03h0s-.18-.03-.18-.03Z"/>
    <path class="cls-1" d="M156.67,24.41s.01.03.02.04c.09.08.05.02-.02-.04Z"/>
    <path class="cls-1" d="M152.69,24.75c-.04-.08-.08-.17-.09-.24-.07.05-.11.11.09.24Z"/>
    <polygon class="cls-1" points="157.35 29.7 157.34 29.7 157.34 29.74 157.35 29.7"/>
    <path class="cls-1" d="M152.72,24.33c-.11.03-.14.1-.12.18.06-.04.14-.09.12-.18Z"/>
    <path class="cls-1" d="M148.86,39.6v.05s.04,0,.06,0l-.06-.05Z"/>
    <path class="cls-1" d="M148.92,39.65l.06.05s-.01-.05-.06-.05Z"/>
    <path class="cls-1" d="M149.1,39.8l-.12-.1s0,.09.12.1Z"/>
    <path class="cls-1" d="M148.91,38.24h-.15s.08,0,.15,0Z"/>
    <path class="cls-1" d="M148.84,37.83c-.03.1-.31.27-.21.4h.12c-.23-.05.35-.32.09-.4Z"/>
    <path class="cls-1" d="M150.69,36.16l-.12.31c.16-.06.38-.12.42.02.49-.39-.36.08-.3-.33Z"/>
    <path class="cls-1" d="M150.97,35.2c.07.17.24.01.33.03-.14-.11-.18-.14-.33-.03Z"/>
    <path class="cls-1" d="M152.56,28.46l.35.16c0-.14-.14-.06-.35-.16Z"/>
    <polygon class="cls-1" points="151.34 26.36 151.07 26.38 151.36 26.59 151.34 26.36"/>
    <polygon class="cls-1" points="154.14 26.91 154.17 26.99 154.14 26.74 154.14 26.91"/>
    <path class="cls-1" d="M153.59,30.97h.47c-.08-.1-.61-.15-.47,0Z"/>
    <path class="cls-1" d="M153.45,36.1c-.24.01-.42.12-.21.26.05-.11.26-.19.21-.26Z"/>
    <polygon class="cls-1" points="146.49 33.71 146.68 33.68 146.45 33.62 146.49 33.71"/>
  </g>
</svg>