<?xml version="1.0" encoding="UTF-8"?>
<svg id="Capa_1" data-name="Capa 1" xmlns="http://www.w3.org/2000/svg" viewBox="0 0 81.07 109.47">
  <defs>
    <style>
      .cls-1 {
        fill: #645b51;
      }
    </style>
  </defs>
  <path class="cls-1" d="M25.06,103.81c.04-.41-.41-.42-.85.51l.21.96.64-1.47Z"/>
  <path class="cls-1" d="M20.49,108.85c.26-1.22.4-2.72-.5-2.3.02.96-.17,1.31-.28,2.05l1.61.87c0-.19.03-.5.02-.93.45-.93,1.08-1.45,1.2-1.18.03-.4.92-1.31.84-2-1.07.87-1.91,2.25-2.43,3.9l-.87-.47c.02-.07.03-.14.05-.21.3-.27.29.13.36.27Z"/>
  <path class="cls-1" d="M71.48,22.4l-.42.5c.13-.12.27-.3.42-.5Z"/>
  <path class="cls-1" d="M51.51,41.4c.27-.39.34-.59.3-.64-.23.38-.41.69-.3.64Z"/>
  <path class="cls-1" d="M44.68,49.61c.15-.18.27-.33.4-.49-.19.16-.35.34-.4.49Z"/>
  <path class="cls-1" d="M71.48,22.4l1.08-1.28c-.12-.22-.6.63-1.08,1.28Z"/>
  <path class="cls-1" d="M25.42,95.79c-.13.32-.21.61-.26.88.11-.27.22-.52.33-.79-.02-.03-.05-.06-.07-.1Z"/>
  <path class="cls-1" d="M57.33,45.87l-.26.43c-.01.17,0,.33.01.5l.25-.93Z"/>
  <path class="cls-1" d="M46.69,64c.26-.4-.14-.82-.26-1.1.06.35-.02.71-.19,1.09.09.06.23.07.45.01Z"/>
  <path class="cls-1" d="M29.65,92.68l-.21.56c.05-.15.15-.39.21-.56Z"/>
  <path class="cls-1" d="M65.37,33.15c.09.01.19-.01.27-.05-.06-.04-.16,0-.27.05Z"/>
  <path class="cls-1" d="M23.84,66.8s-.06-.02-.09-.05c0,.13.01.19.09.05Z"/>
  <path class="cls-1" d="M10.61,87.39l.11-.32c-.08-.08-.16-.15-.26-.2l.14.52Z"/>
  <path class="cls-1" d="M33.06,65.33s.03-.04.06-.07c.23-.46.08-.21-.06.07Z"/>
  <path class="cls-1" d="M57.73,16.18c1.6-1.34-1.42,3.04.83.91-.35.1.93-2.75-.83-.91Z"/>
  <path class="cls-1" d="M25.74,95.34c.12-.26.26-.51.4-.77-.2.34-.32.57-.4.77Z"/>
  <path class="cls-1" d="M58.55,17.09h0s.23-.22.23-.22c-.1.09-.15.14-.23.22Z"/>
  <path class="cls-1" d="M10.05,104c.13-.03.28-.15.44-.28-.06-.01-.17.04-.44.28Z"/>
  <path class="cls-1" d="M27.8,75.58l-.5.66c.22-.25.37-.47.5-.66Z"/>
  <path class="cls-1" d="M17.68,95.24c.22-.39.36-.5.54-1.08-.05.04-.09.08-.14.14-.02.23-.12.51-.4.94Z"/>
  <path class="cls-1" d="M25.46,79.06c-.08.07-.17.16-.25.24-.07.16-.16.35-.23.52l.49-.76Z"/>
  <path class="cls-1" d="M52.93,20.85c-.36.22-.65.31-.9.35.49.02-.99,2.2.9-.35Z"/>
  <path class="cls-1" d="M25.71,95.93c-.08-.16-.07-.33.03-.59-.09.19-.17.37-.25.55.05.09.11.13.22.04Z"/>
  <path class="cls-1" d="M13.94,92.76l1.29-2.59c-.39.71-.85,1.65-1.29,2.59Z"/>
  <path class="cls-1" d="M7.1,90.16l.24-.62c-.13.22-.22.44-.24.62Z"/>
  <path class="cls-1" d="M18.83,82.39c.4-.38.75-.82,1.06-1.29.01-.13.04-.27.02-.37l-1.08,1.66Z"/>
  <path class="cls-1" d="M52.02,21.2s0,0,0,0c0,0,0,0,0,0Z"/>
  <path class="cls-1" d="M42.25,37.25c1.53-2.23.11-1.46.09-2.17,1.64-2.8,1.29-.93,2.22-1.63,1-1.76,1.34-3.42,2.23-4.64.16-.02.37-.24.3.13.76-2.09,3.69-5.16,4.6-7.59.16-.11.27-.15.34-.15-.54.1-.88-.08-1.04-.3.73-.98,1-2.09,1.66-2.16-.46.59-.35.76-.44,1.12l.61-1.15c1.25-.5-.86,1.54-.45,1.85,1.31-2.13,2.63-4.78,3.99-6.15.78.11-2.59,3.65-.53,2.02-.68.71-1.35,1.44-2.01,2.18,2.21-1.14-1.14,1.38,1.02.43,2.52-2.95,2.39-3.63,4.95-6.54.26-.91-.62-.13-.36-1.04,2.97-4.69,4.04-2.28,5.97-5.93.29-.95.03-1.73,1.42-3.17l-2.4-1.87c-.19.23-.41.49-.67.76l-.06-1.25c-2.23,3.05-.34,2.4-3.03,5.35.16-.75,1.5-2.58,1.09-2.16-1.97,1.75-.68,1.74-1.82,3.35l-.79-.06c-2.22,3.36-4.36,7.28-6.8,11.02-.03-.32.24-1.07-.53-.33-2.93,4.82-6.88,9.85-10.26,14.13l-.66,2.06c-.27.4-.72.6-.52.1-1.36,1.64.25.3-.12,1.27-.63,1.02-1.16,1.14-.89.4-.84,1.69-2.08,4.06-3.44,6.38-1.37,2.31-2.85,4.59-4.17,6.08l.27-.74c-1.85,2.47-.86,3.55-2.82,5.68l.2-.52c-3.75,5.52-7.09,12.08-10.38,16.06.23,1.24-3.6,5.55-2.77,6.51-2.36,3.04-2.04,1.98-4.9,6.54-.72,1.25-.37,2.22-1.06,3.86l-.57-.24-.51,2.44-1.24.81-.61,1.56c.33-.58.88-1.13,1-.96-.95,2.42-3.17,5.49-3.49,5.42-.72,1.93-1.48,3.84-2.15,5.79-.17-.23.18-1.2.37-2.01-.78,3.26-.84.27-1.55,3.26.29-.31.24.35.33.46-.53.67-1.2,1.93-1.85,3.33l4.48,2.26c.62-1.04,1.23-2.17,1.73-3.17l.13.63c2.36-3.85,4.64-8.33,7.26-12.67-1.11,1.46-1.53.72-.82-.59l.87-.17c.15-1.03-1.01,1.21-.42-.74,1.04-1.59,1.29-.71.91.33l1-2.09c.24-.01.05.5.19.75.14-1.02,2.62-3.06,2.74-4.59h.23c2.64-4.34,3.69-6.39,5.85-9.92-.43-.37.54-1.67.81-2.95,1.77-2.48,3.96-5.07,5.91-8.18,1.16-2.31,0-.89.36-2.04.53.12,2.49-2.97,1.76-1.18,2.33-3.73,2.98-4.75,5.72-9.61-.51.39-.96.9-.91.51.49-.89,1.45-1.79,1.57-1.53l-.1.25c2.85-5.61,9.3-11.08,11.28-15.74l-.12.26,2.5-4.54c1.44-1.88-.51,1.38.77.13,2.5-5.03,5.19-7.08,7.4-11.12,2.7-1.62,5.9-7.43,8.96-11.24l-4.37-3.08c-.65.91-1.27,1.69-1.9,2.32l.45-.03c-.39,1.23-1,1.14-1.57,1.85.3.04,1.01-.94.74-.2-5.42,8.99-12.36,17.8-18.39,26.76-2.17,3.3.37,2.87-2.98,6.64l.18-1.55c-3.52,7.18-8.5,13.91-11.77,21.04.1-.48-.08-.59.31-1.25-1.23,1.2-3,5.32-2.67,5.53-.63,1.04-.45.08-.99.63-1.05,1.32-1.43,3.95-2.27,4.5-.14.1.08-.48.19-.77-.31,1.06-2.42,4.41-1.44,3.76-1.57,2.49-2.36,5.09-3.68,7.05-.11,1.64-2.47,4.39-1.89,5.2-.76-.6-2.83,4.36-3.22,6.22.01-.68-.93,1.35-.98.53-.84,1.95-1.45,3.81-.88,3.65-2.59,3.15-2.21,7.57-4.33,9.09-.12.38-.23.75-.33,1.06l4.72,2.19c2.43-5.33,4.82-10.18,7.3-14.82.66.62-3.01,5.41-2.07,5.67,2.3-4.8,3.21-7.83,6.1-12.24.81-1.1-.07.86-.17,1.34,1.22-2.36,2.57-4.55,3.87-6.67,1.33-2.11,2.61-4.16,3.65-6.3.06.06-.13.54-.33.98.46-.81,1.27-1.76.87-1.89l-.4.82c-1.31.93.96-3.78.79-4.09.13,1.97,2.78-3.77,2.66-.85.27-.56.52-1.31.22-1.34.56-.72.86-.87.61.07,1.65-2.9.64-2.15,2.32-4.67.16.12-.11.67-.09,1.06.53-1.48,1.04-3,2.63-5.01.01.19.31.04-.12.66,1.21-1.83,2.06-3.52,2.97-5.22.93-1.69,1.96-3.4,3.49-5.26-.11,1.66,1.17-1.18,1.93-.95l1.34-2.23-.9.63c1.34-1.83,2.07-3.78,3.42-5.21l-.74,1.54c.78-1.18,1.61-2.34,2.41-3.5l-1.66,1.76c1.06-2.07-.91-.36,1.06-2.67-.31.54,1.36-1.82,2.42-2.5h0c.48-1.04.99-2.1,2.15-3.33.45-.2.44.78.74.65.18-1.26,3.08-4.33,3.44-5.83-.17.46.13.72.29.65l.18-1.04c.78-.73.93-.8,1.07-.47,2.03-2.43-1.36.2,1.28-2.5-.15.26,0,.19-.32.72,2.5-2.83,4.3-5.89,6.69-8.41,1.23-.31-1.78,2.45-.55,1.95,1.53-1.97,3.01-4.1,4.5-6.19,1.51-2.08,3.06-4.11,4.69-5.89l-.65.63c-.14-.47.24-.94.84-1.47l-1.02-.78c-.83.92-2.15,2.05-2.73,3.46.27-.54-.05-.98-.04-.78-2,2.66-3.55,5.79-6.04,10.18l.11-.67c-1.27,1.51-2.92,4.25-4.18,5.95-.11.68-.8,1.67-.07,1.27-4.82,4.66-5.96,10.93-10.07,15.18.36-.59.66-1.53.37-1.06l-2.36,4.33c.6-.09.57-.41,1.42-1.1-.1.67-.63,1.97-1.26,3.02.88-2.05-.64-.37-1.36.32.2-.06.17.3.33.3-2.03,1.78.57.85-1.72,3.57l-.11-.28c-.56,1.19-.91,2.4-1.69,3.58-.76.23.5-1.33.17-1.63-.99,1.73-1.14,3.89-2.51,5.17.29-.81.92-1.85,1.22-2.65-1.54,1.37-1.52,1.64-2.34,2.85l.08-.12-1.94,2.77.58-.66c-.06,2.85-2.33,4.52-3.2,7.88.87-3.26-.17-.72-.57-1.23-.57.66-1.38,1.7-1.35,1.29-.37,1.62-1.64,2.12-2.12,4.42-.22,0-.85,1.47-1.1.92-.88,1.87.54-.26.66.01-.98,3.09-4.35,6.14-5.74,10.6-1.54,3.65-1.33,4.59-2.75,7.98-.85.94-.15-1.23-.15-1.23-1.19,1.62-1.84,2.97-2.53,4.73.03-.41-.28-.14-.74.27-.65,1.36.16,1.22-1.01,2.85-.04-.4-.14-.95,0-1.7-.66,1.66-1.15,3.38-1.84,5.09-.53.28.05-1.22.16-1.9-.83,1.9-2.17,4.9-1.99,5.71l.77-1.09c-.32.68-.59.13-.42-.41.43-1.77,1.33-2.19,1.55-2.19l-.49,1.22c1.62-.67,2.26-4.75,3.53-7.05l.23,1.36.64-2.71c.46-.41,1.06-.54.56.67,1.25-1.47.52-1.61,1.69-2.83.15-.12.14-.03.1.13l.65-1.74c-.02.4.66,0,.02.95,1.97-2.7,1.98-4.99,3.12-5.79l-.09.27c1.94-4.17-.33-.68.69-4.05l2.44-1.3-.32-.69c.25-.4.74-1.2.87-.93.49-1.75-.38.13-.23-.95,1.58-1.73,2.84-5.61,3.94-5.59,0-.94-1.38,1.72-.47-.56,1.25-.09,1.22-2.54,2.68-4.11.15.82-1.08,2.39.38.82-.17-1.54,2.19-3.42,2.91-5.03-.59-.43,1.66-3.45,2.94-6.12.11.28,3.17-4.57,4.8-6.78l.06.13c-.36-.83,1.23-3.18,2.16-5.02.33.3.29.7-.12,1.76l1-1.66c.04-.51.24-1.1.83-2.21l.21.7c1.33-2.2,2.16-4.76,4.23-7.37-.34-.43-2.61,1.48-1.04-1.67.3.04.77.18.38,1.02.13-.27.37-1.03.8-1.48l-.35,1.43c.97-1.17.09-.88.77-1.87.32.23.71-.61.89-.29-.13.28-.7.8-.81,1.28.78-1.11,1.85-2.38,2.39-2.68-.25-.02-.45-.29.04-1.15,1.36-2.19.88-.49,1.85-1.65.1-.67,1.23-1.9.75-2.26.41-.63.71-.6,1.01-.76.49-1.27,3.32-5.26,1.97-4.35l-.22.26c.03-.06.06-.13.1-.2h0s0,0,0,0c1.88-3.99,5.25-7.41,7.45-11.15l.16.12c.78-1.42,1.8-2.95,2.59-4.32l-1.26-.97c-.6.8-1.11,1.53-1.44,2.16-.5.58-1.45,1.14-1.41.74-1.17,1.61-1.16,1.9-3.24,3.9,1.01-1.75-.68.33,1.12-1.73-1.79,1.86-2.4,2.12-3.75,4.59.22-1.04-1.74,1.08-2.39,2.14l1.43-1.17c-.83,1.1-1.61,2.02-2.41,2.94l-.1-.93c-3.97,3.59-4.86,8.29-8.41,10.62-.49,1.39,2.02-2.06,1.68-.74-1.57,1.85-3.85,3.29-4.32,3.89-2.32,2.42-1.12,3.05-3.39,5.69.46-.22,1.21-.17-.16,2.04-1.52,1.89-2.58,1.8-1.82.46.33-.48.56-.66.61-.59.4-.68.93-1.57.15-.95v.39c-.92.82-2.87,3.53-2.72,2.67-.89,1.62-.15.87.75-.16-2.1,2.33-2.87,3.93-4.92,6.41.4-.34.9-.56.6-.15-2.95,3.68-.82,1.95-2.57,4.62-1.33,1.28-.34-1.03-1.92,1.78-1.31,1.48-.75-.01-.47-.77-1.28,2.68-3.34,4.35-4.35,5.68l.71-1.38c-.43.83-.86,1.44-1.28,2.09l.88-.47c-.57.71-1,1.34-1.15,1.22-.26.95,1.05-.15.38,1.62-.87.87-1.81,3.2-2.57,3.2,2.28-3.04-.76,0,.93-2.73-.28.56-.7,1.19-1.27,1.9-.13.07-.04-.18.07-.41-2.48,2.72-.32,1.79-2.38,4.93-.04-.59-1.04.37-1.31.93.83-1.27.89-.29.37,1.03-1.54,1.88-1.24,2.32-1.94,3.37l.88-1.15c.04.6-.64,1.6-1.44,3.08-.31-.03.65-1.39.23-.95-.45,1.92-2.81,3.22-3.79,5.67-.83.9-.63-.25-1.32.57-1.11,2.74-2.08,2.44-3.31,5.28.86-.52.84-.71.14,1.39.76-1.51,1.51-3.01,2.3-4.5l-1.07,3.13c.77-1.31,1.4-2.9,1.94-3.64-.47,1.52-.49,1.32.23.9-1.7,1.4-1.76,3.75-3.4,5.57l-.98-.66c-2.31,2.84-2.71,5.86-5.3,9.79l.93-1.21c.09.77-1.38,2.55-1.94,3.98-.28-.32-.86.45-1.39.89.25.06-1.15,2.19-1.27,3.27l3.04,1.41c0-.2-.04-.36-.12-.46l1.26-1.74c1.61-3.4.54-4.42,2.12-7.69-.04,1.17.87-.23.19,2.11.48-1.11.98-2.07.74-2.2.51-.54.83-3.29,1.64-4.15.06-.53-.25-.86.35-2.08.13-.1.18.09.18.09-.18-.09.65-2.04-.25-1.15.67-.72,1.27-1.67,1.83-2.73.58-1.06,1.13-2.22,1.67-3.37.54-1.15,1.06-2.29,1.6-3.3.56-1,1.13-1.86,1.74-2.46.55-1.2,1.16-2.52,1.75-3.82.62-1.28,1.25-2.53,1.8-3.59.03.19.17.1-.08.48,1.9-2.73-.06-2.35,2.13-5.44,1.5-1.37-.67,1.91.12.98,1.4.18,2.05-4.06,3.96-5.88l-.24.57c1.35-1.45,1.92-4.34,3.61-7.02,0,0,.02.19.16.12.54-2.19,2.43-5.84,3.88-8.53-.06,1.07-.49,1.32.25,1.1.65-1.2-.92-.09.38-2.49.7-.61,1.93-2.16,2.54-2.09l-1.32,2.21c1.29-.75,1.72-2.85,2.55-3.93l.17.31c2.01-3.39,1.35-3.86,3.68-7.4l-.43.24c.59-2.37,1.41-1.4,2.17-3.66l1.04-.16c.67-1.38,2.26-4.91,3.63-7.29-.36,1.62-1.85,4.48-2.63,6.33.83-1.27,2.74-4.35,2.85-5.23-.27.55-.52,1.3-.95,1.74.48-1.9,1.57-4.11,3.24-6.63.98,1.28,4.65-6.37,6.85-7.54.95-1.83,2.06-3.54,3.27-5.25l-3.32-2.33c-2.07,2.64-4.38,5.25-6.6,8.39,2.27-1.08-1.05,1.49.17,1.9-.79,1.22-1.14,1.65-1.28,1.71l-3.17,3.14c-.9.64.59-1.28.29-1.33-1.93,2.53-1.2.78-2.69,2.3.61-.09-.14,1.26-1.32,2.65l1.94-1.75c-2.05,4-3.06,2.54-5.13,6.57l.5-1.38c-1.15,2.01-4.88,6.95-5.34,9.37-.35.26-.93.51-.43-.38-3.24,4.45-6.03,10.69-8.89,13.92l-.02-.51c-.5.9-.52,1.8-1.48,2.7-.07-.12-.02-.51-.3-.12-.22.51-1.07,2.56-1.95,3.6l.35-1.16c-3.27,4.27-3.81,7.34-6.06,11.23-.74-.49-3.24,2.92-4.49,4.63l-.07-.13c-3.43,5.23-5,9.39-7.72,14.5-2.69,2.57-6.62,10.2-9.98,14.92.58-.68.52.47.08,1.4-.84,1.08-1.35,3.54-1.94,2.95l.26-.41c-.31.13-.62.39-.93.74l4.6,2.32c.77-1.08,1.46-2.87,2.13-4.32l-.82-.76c1.82-2.27,3.35-5.62,4.64-8.74,1.38-3.08,2.59-5.89,3.91-6.94.4-1.32,1.2-2.81,1.6-4.12l.47.33c1.88-3.27,2.9-4.85,5.03-8.99l-.11,1.03c1.31-2.27.24-3.69,1.42-5.81l1.1-.21c1.13-2,2.49-3.87,3.75-5.8,1.25-1.93,2.45-3.89,3.33-6.02.07.13.2.37-.16,1.02.58-.91,1.8-2.61,2.71-4.08.92-1.45,1.52-2.68.82-2.66.67.36,2.59-3.97,3.69-6.22l.26.63c.55-2.14.42-2.31,1.86-4.87.44-.54.71-.26.08.43,1.51-1.77.56-1.79,2.36-3.97l-.28,1.07c1.36-1.96,1.09-1.91,1.47-3.23.64-1.38,2.65-3.67,3.26-3.68-.07-.44.32-1.75,1.23-2.83.26-.05.07.44-.02.69,2.55-3.08,2.81-5.25,4.81-7.2.18.06.36-.04.54-.19-1.8,2.6-3.27,4.68-3.17,4.46.42.29,1.95-1.76,1.38.31.84-1.91,2.13-5.28,3.76-7.19.11-.07.22-.14.33-.17l-.1.24c.37-.44.62-.89.83-1.34.52-.61.86-.98,1.3-1.61.51,0,1.86-2.27,2.61-3.31-.52-.24.51-1.55-.77-.54.15-.14-.08.24-.55.94-.1.17-.22.36-.26.48,0-.03,0-.06,0-.1-.47.69-1.08,1.6-1.78,2.62.34-.99.74-1.99,1.81-2.97.08-.74.19-1.55.28-1.98,1.64-.98,3.92-3.5,4.58-3.6.96-1.63,2.18-3.47,3.25-5.22l-3.06-2.39c-1.32,1.78-2.46,3.48-2.86,4.8-.62.93-1.05.78-1.45,1,.32-.57.83-1.14.94-1.5-1.23,1.87-4.11,5.16-3.87,6.03-2,1.98.44-1.66-1.85,1.43l.15-.55c-1.4,1.31-2.5,2.63-3.43,3.99-.92,1.37-1.69,2.75-2.48,4.15-.8,1.39-1.57,2.83-2.56,4.26-.99,1.43-2.16,2.89-3.67,4.4.41-.42.61-.63.78-.66-6.1,7.44-10.53,16.65-16.24,24.23-1.56,2.2-1.27,2.71-1.79,4.3l-.81.2-.78,2.78c-.74,1.86-1.89,3.18-3.06,4.66-1.15,1.48-2.3,3.13-3.05,5.57l.66-.39c-.92,1.56-2.37,5.2-2.66,4.72-.02.2.11.72-.4,1.25l-.31-.09c-.5,1.4-.97,2.82-1.45,4.23-1.69,3-.93-1.04-3.11,3.49-.67,1.75-1.38,5.21-.9,4.66.33-.68.98-1.67,1.29-1.58l-.56,1.61c.72.67,1.05,2.23,3.37-1.27l.69-2.87.8-.65-1,2.22c.96-1.07.98-2.03,1.18-3.02.32-.11.65-.4.97-.88l.43-2.94c.48-.15.1,1.46,1.1-.16.21-1.38-1.29.79-.57-1.31,1-1.05,1.13-.53,1.54-2.14.32-.1.3.28.1.9.4-1.42,1.61-3.47,1.52-4.36,1.14-1.03,2.16-4.38,2.87-3.84.01-.51.6-2.57,1.21-3.75-.24,2.63,2.44-4.33,3.14-3.2.07-2.02,2.85-5.83,4.06-8.81-.03.19-.08.57-.26.78.99-1.49,1.5-1.79,2.25-2.68-.55-.6.78-3.06,1.17-4.6,1.8-1.46.07,1.62,1.05,1.42-.6-.25,1.49-3.56.65-3.21,1.31-1.15.98-1.09,2-1.46-.66-.78.71-1.4.97-2.89,1.75-1.75,1.11,0,2.35-2.38.96-.88-.08,1.27-.08,1.27ZM52.47,17.61s0,0,0,0c.3-.46.56-.85.73-1.1-.15.23-.36.55-.72,1.11ZM49.43,22.03c.39-.53.85-1.19,1.34-1.91.27-.04.32.24,0,.68.06-.31-.75.66-1.34,1.23ZM59.09,14.92c-.42.74-.67.91-.83.94.22-.33.47-.73.79-1.26,0-.03,0-.09,0-.12.04.13.07.26.04.44Z"/>
  <path class="cls-1" d="M59.36,13.25c.06-.11.08-.18.17-.31-.14.11-.27.22-.39.34,0,.12-.02.24-.03.35.09-.13.17-.26.25-.38Z"/>
  <path class="cls-1" d="M70.99,22.98l.07-.09c-.07.07-.14.13-.2.16.06-.05.08-.04.12-.07Z"/>
  <polygon class="cls-1" points="9.57 84.68 9.7 84.74 9.8 84.26 9.57 84.68"/>
  <path class="cls-1" d="M53.67,46.98c-.07.02-.17.09-.32.26.04,0,.17-.11.32-.26Z"/>
  <path class="cls-1" d="M47.03,57.88l-1.08,1.46c.49-.62.83-1.08,1.08-1.46Z"/>
  <path class="cls-1" d="M41.87,66.24c.02.16.07.22.11.29h.01s-.13-.29-.13-.29Z"/>
  <path class="cls-1" d="M31.33,77.02c-.07.11-.13.23-.18.33-.38.81-.09.28.18-.33Z"/>
  <path class="cls-1" d="M56.55,38.2c-.21.46-.42.9-.68,1.35.53-.64.92-1.14.68-1.35Z"/>
  <path class="cls-1" d="M13.8,93.05s0,0,0,0c.05-.1.09-.19.14-.29l-.14.28Z"/>
  <path class="cls-1" d="M54.58,41.28c.58-.59.97-1.16,1.29-1.72-.43.52-.95,1.12-1.29,1.72Z"/>
  <path class="cls-1" d="M21.34,103.55l-.24.41s.05.05.05.09l.18-.5Z"/>
  <path class="cls-1" d="M21.16,104.05l-.18.5c.11-.22.2-.4.18-.5Z"/>
  <path class="cls-1" d="M20.61,105.6l.38-1.05c-.18.34-.41.75-.38,1.05Z"/>
  <path class="cls-1" d="M27.59,92.14l-.11-.23c0,.09.03.17.11.23Z"/>
  <path class="cls-1" d="M29.39,88.62c-.48.81-1.49,1.88-2,3.11l.09.18c.02-.69,1.8-2.34,1.91-3.29Z"/>
  <path class="cls-1" d="M39.52,75.39l-1.75,2.81c.47-.4,1.09-.92.41.42,2.58-3.33-.85.51,1.34-3.22Z"/>
  <path class="cls-1" d="M44.85,66.64c-.79,1.59.28.14.34.28.39-1.07.48-1.34-.34-.28Z"/>
  <path class="cls-1" d="M76.32,10.08l-.27-.47c-.84,1.09.14.14.27.47Z"/>
  <polygon class="cls-1" points="69.33 22.67 70.41 21.83 70.44 21.05 69.33 22.67"/>
  <polygon class="cls-1" points="61.26 26.95 61.57 26.43 60.3 28.35 61.26 26.95"/>
  <path class="cls-1" d="M24.44,82.12l-.74.09c-.3.88.25,1.37.74-.09Z"/>
  <path class="cls-1" d="M50.61,35.46c.58-.32,1.56-1.49,1.8-2.44-.68.99-1.54,1.88-1.8,2.44Z"/>
  <path class="cls-1" d="M7.81,99.69c-.09.35-.17.71-.25,1.06.22-.64.46-1.27.7-1.9l-.44.84Z"/>
</svg>